<svg width="337" height="283" viewBox="0 0 337 283" fill="none" xmlns="http://www.w3.org/2000/svg">
<g filter="url(#filter0_dd_387_951)">
<rect x="3" y="2" width="331" height="116.385" rx="4.15385" fill="white"/>
<rect x="3.34615" y="2.34615" width="330.308" height="115.692" rx="3.80769" stroke="#E3E8EF" stroke-width="0.692308"/>
<path d="M102.692 60.1539C102.692 83.095 84.0949 101.692 61.1538 101.692C38.2128 101.692 19.6154 83.095 19.6154 60.1539C19.6154 37.2129 38.2128 18.6155 61.1538 18.6155C84.0949 18.6155 102.692 37.2129 102.692 60.1539ZM30 60.1539C30 77.3597 43.948 91.3078 61.1538 91.3078C78.3596 91.3078 92.3077 77.3597 92.3077 60.1539C92.3077 42.9481 78.3596 29.0001 61.1538 29.0001C43.948 29.0001 30 42.9481 30 60.1539Z" fill="#EEF2F6"/>
<path d="M61.1538 18.6155C69.9259 18.6155 78.4728 21.3925 85.5695 26.5486C92.6663 31.7047 97.9485 38.9751 100.659 47.3179L90.7829 50.5269C88.7498 44.2698 84.7881 38.817 79.4656 34.9499C74.143 31.0829 67.7329 29.0001 61.1538 29.0001V18.6155Z" fill="#4B5565"/>
<path d="M100.659 47.3179C103.026 54.6035 103.333 62.4019 101.545 69.8509C99.7562 77.2999 95.9428 84.1092 90.5259 89.5261C85.1091 94.9429 78.2997 98.7563 70.8508 100.545C63.4018 102.333 55.6034 102.027 48.3177 99.6594L51.5268 89.783C56.991 91.5585 62.8398 91.7883 68.4265 90.447C74.0133 89.1057 79.1203 86.2457 83.1829 82.183C87.2456 78.1204 90.1056 73.0134 91.4469 67.4267C92.7881 61.8399 92.5583 55.9911 90.7829 50.5269L100.659 47.3179Z" fill="#697586"/>
<path d="M48.3177 99.6594C39.975 96.9486 32.7046 91.6664 27.5485 84.5696L35.9498 78.4657C39.8169 83.7883 45.2697 87.75 51.5267 89.783L48.3177 99.6594Z" fill="#9AA4B2"/>
<path d="M27.5485 84.5696C23.6954 79.2664 21.1522 73.1265 20.1268 66.652C19.1013 60.1775 19.6227 53.5522 21.6484 47.3179L31.5247 50.5269C30.0055 55.2026 29.6144 60.1716 30.3835 65.0275C31.1526 69.8833 33.06 74.4883 35.9498 78.4657L27.5485 84.5696Z" fill="#CDD5DF"/>
<path d="M121.069 32.6155H119.618L122.879 23.5525H124.459L127.72 32.6155H126.269L123.706 25.1987H123.636L121.069 32.6155ZM121.312 29.0664H126.021V30.217H121.312V29.0664ZM130.14 30.3099L130.131 28.6947H130.361L133.069 25.8183H134.653L131.565 29.093H131.357L130.14 30.3099ZM128.923 32.6155V23.5525H130.246V32.6155H128.923ZM133.215 32.6155L130.781 29.385L131.693 28.4602L134.839 32.6155H133.215ZM140.165 29.7966V25.8183H141.493V32.6155H140.192V31.4384H140.121C139.964 31.8012 139.714 32.1036 139.369 32.3455C139.026 32.5845 138.6 32.704 138.09 32.704C137.653 32.704 137.267 32.6081 136.93 32.4163C136.597 32.2216 136.334 31.934 136.143 31.5534C135.954 31.1728 135.859 30.7023 135.859 30.1418V25.8183H137.182V29.9824C137.182 30.4456 137.311 30.8144 137.567 31.0888C137.824 31.3631 138.158 31.5003 138.568 31.5003C138.815 31.5003 139.062 31.4384 139.307 31.3145C139.554 31.1905 139.759 31.0032 139.922 30.7524C140.087 30.5017 140.168 30.1831 140.165 29.7966ZM144.594 28.5796V32.6155H143.271V25.8183H144.541V26.9246H144.625C144.781 26.5647 145.026 26.2756 145.359 26.0572C145.696 25.8389 146.119 25.7298 146.629 25.7298C147.092 25.7298 147.498 25.8271 147.846 26.0218C148.194 26.2136 148.464 26.4998 148.656 26.8803C148.848 27.2609 148.944 27.7315 148.944 28.292V32.6155H147.621V28.4513C147.621 27.9586 147.492 27.5736 147.236 27.2963C146.979 27.016 146.626 26.8759 146.178 26.8759C145.871 26.8759 145.598 26.9423 145.359 27.0751C145.123 27.2078 144.936 27.4025 144.797 27.6592C144.662 27.9129 144.594 28.2197 144.594 28.5796ZM159.11 27.4777L157.91 27.6902C157.86 27.5368 157.781 27.3907 157.671 27.2521C157.565 27.1134 157.421 26.9998 157.238 26.9113C157.055 26.8228 156.826 26.7786 156.552 26.7786C156.177 26.7786 155.864 26.8626 155.614 27.0308C155.363 27.196 155.238 27.4099 155.238 27.6725C155.238 27.8996 155.322 28.0825 155.49 28.2212C155.658 28.3599 155.929 28.4734 156.304 28.5619L157.384 28.8098C158.009 28.9543 158.475 29.177 158.782 29.478C159.089 29.7789 159.242 30.1698 159.242 30.6507C159.242 31.0578 159.124 31.4207 158.888 31.7393C158.655 32.0549 158.329 32.3028 157.91 32.4827C157.494 32.6627 157.012 32.7527 156.463 32.7527C155.702 32.7527 155.081 32.5904 154.6 32.2659C154.119 31.9384 153.824 31.4738 153.715 30.8719L154.994 30.6772C155.074 31.0106 155.238 31.2628 155.485 31.4339C155.733 31.6021 156.056 31.6862 156.454 31.6862C156.888 31.6862 157.235 31.5962 157.494 31.4162C157.754 31.2333 157.884 31.0106 157.884 30.748C157.884 30.5356 157.804 30.3571 157.645 30.2126C157.489 30.068 157.248 29.9588 156.924 29.8851L155.773 29.6329C155.139 29.4883 154.67 29.2582 154.366 28.9425C154.065 28.6268 153.914 28.2271 153.914 27.7433C153.914 27.342 154.027 26.991 154.251 26.6901C154.475 26.3891 154.785 26.1546 155.18 25.9864C155.575 25.8153 156.028 25.7298 156.539 25.7298C157.273 25.7298 157.851 25.8891 158.273 26.2077C158.695 26.5234 158.974 26.9467 159.11 27.4777ZM162.675 32.7659C162.245 32.7659 161.855 32.6863 161.507 32.527C161.159 32.3647 160.883 32.1302 160.68 31.8234C160.479 31.5165 160.379 31.1404 160.379 30.6949C160.379 30.3114 160.452 29.9957 160.6 29.7479C160.747 29.5001 160.947 29.3039 161.197 29.1593C161.448 29.0148 161.728 28.9056 162.038 28.8319C162.348 28.7581 162.664 28.7021 162.985 28.6637C163.392 28.6165 163.723 28.5782 163.976 28.5487C164.23 28.5162 164.414 28.4646 164.529 28.3938C164.645 28.323 164.702 28.2079 164.702 28.0486V28.0176C164.702 27.6312 164.593 27.3317 164.375 27.1193C164.159 26.9069 163.838 26.8007 163.41 26.8007C162.964 26.8007 162.613 26.8995 162.357 27.0972C162.103 27.2919 161.927 27.5087 161.83 27.7477L160.587 27.4645C160.734 27.0514 160.949 26.7181 161.233 26.4644C161.519 26.2077 161.848 26.0218 162.22 25.9068C162.591 25.7888 162.982 25.7298 163.392 25.7298C163.664 25.7298 163.951 25.7622 164.255 25.8271C164.562 25.8891 164.848 26.0041 165.114 26.1723C165.382 26.3405 165.602 26.5809 165.773 26.8936C165.944 27.2034 166.03 27.6061 166.03 28.1017V32.6155H164.737V31.6862H164.684C164.599 31.8573 164.47 32.0254 164.299 32.1907C164.128 32.3559 163.908 32.493 163.64 32.6022C163.372 32.7114 163.05 32.7659 162.675 32.7659ZM162.963 31.7039C163.329 31.7039 163.641 31.6316 163.901 31.487C164.164 31.3425 164.363 31.1537 164.499 30.9206C164.637 30.6846 164.707 30.4323 164.707 30.1639V29.2877C164.659 29.3349 164.568 29.3791 164.432 29.4204C164.299 29.4588 164.147 29.4927 163.976 29.5222C163.805 29.5488 163.639 29.5738 163.476 29.5974C163.314 29.6181 163.178 29.6358 163.069 29.6506C162.812 29.683 162.578 29.7376 162.366 29.8143C162.156 29.891 161.988 30.0016 161.861 30.1462C161.737 30.2878 161.675 30.4766 161.675 30.7126C161.675 31.0401 161.796 31.2879 162.038 31.4561C162.28 31.6213 162.588 31.7039 162.963 31.7039ZM167.792 32.6155V25.8183H169.062V26.9246H169.146C169.288 26.5499 169.519 26.2579 169.841 26.0484C170.162 25.836 170.547 25.7298 170.996 25.7298C171.45 25.7298 171.831 25.836 172.138 26.0484C172.447 26.2608 172.676 26.5529 172.824 26.9246H172.894C173.057 26.5617 173.315 26.2726 173.669 26.0572C174.023 25.8389 174.445 25.7298 174.934 25.7298C175.551 25.7298 176.054 25.923 176.443 26.3095C176.836 26.696 177.032 27.2786 177.032 28.0575V32.6155H175.709V28.1814C175.709 27.7211 175.583 27.3878 175.333 27.1813C175.082 26.9747 174.782 26.8715 174.434 26.8715C174.004 26.8715 173.669 27.0042 173.43 27.2698C173.191 27.5323 173.071 27.8701 173.071 28.2831V32.6155H171.753V28.0973C171.753 27.7285 171.638 27.432 171.407 27.2078C171.177 26.9836 170.878 26.8715 170.509 26.8715C170.258 26.8715 170.027 26.9379 169.814 27.0706C169.605 27.2004 169.435 27.3819 169.305 27.6149C169.179 27.848 169.115 28.1179 169.115 28.4248V32.6155H167.792ZM178.805 35.1644V25.8183H180.098V26.9202H180.208C180.285 26.7786 180.396 26.6148 180.54 26.429C180.685 26.2431 180.885 26.0808 181.142 25.9422C181.399 25.8006 181.738 25.7298 182.16 25.7298C182.708 25.7298 183.198 25.8684 183.629 26.1457C184.06 26.4231 184.397 26.8228 184.642 27.345C184.89 27.8672 185.014 28.4956 185.014 29.2302C185.014 29.9647 184.892 30.5946 184.647 31.1197C184.402 31.6419 184.066 32.0446 183.638 32.3278C183.21 32.6081 182.722 32.7482 182.173 32.7482C181.76 32.7482 181.422 32.6789 181.16 32.5402C180.9 32.4016 180.696 32.2393 180.549 32.0535C180.401 31.8676 180.288 31.7024 180.208 31.5578H180.129V35.1644H178.805ZM180.102 29.2169C180.102 29.6948 180.171 30.1137 180.31 30.4737C180.449 30.8336 180.649 31.1153 180.912 31.3189C181.174 31.5195 181.496 31.6198 181.877 31.6198C182.272 31.6198 182.602 31.5151 182.868 31.3056C183.133 31.0932 183.334 30.8055 183.47 30.4427C183.608 30.0798 183.678 29.6712 183.678 29.2169C183.678 28.7685 183.61 28.3658 183.474 28.0088C183.341 27.6518 183.141 27.3701 182.872 27.1636C182.607 26.957 182.275 26.8538 181.877 26.8538C181.493 26.8538 181.168 26.9526 180.903 27.1503C180.64 27.3479 180.441 27.6238 180.306 27.9778C180.17 28.3318 180.102 28.7448 180.102 29.2169ZM186.496 32.6155V25.8183H187.82V32.6155H186.496ZM187.165 24.7695C186.935 24.7695 186.737 24.6928 186.572 24.5394C186.409 24.383 186.328 24.1972 186.328 23.9818C186.328 23.7635 186.409 23.5776 186.572 23.4242C186.737 23.2678 186.935 23.1897 187.165 23.1897C187.395 23.1897 187.591 23.2678 187.753 23.4242C187.918 23.5776 188.001 23.7635 188.001 23.9818C188.001 24.1972 187.918 24.383 187.753 24.5394C187.591 24.6928 187.395 24.7695 187.165 24.7695ZM190.923 28.5796V32.6155H189.6V25.8183H190.87V26.9246H190.954C191.11 26.5647 191.355 26.2756 191.688 26.0572C192.025 25.8389 192.448 25.7298 192.958 25.7298C193.422 25.7298 193.827 25.8271 194.175 26.0218C194.524 26.2136 194.793 26.4998 194.985 26.8803C195.177 27.2609 195.273 27.7315 195.273 28.292V32.6155H193.95V28.4513C193.95 27.9586 193.821 27.5736 193.565 27.2963C193.308 27.016 192.956 26.8759 192.507 26.8759C192.2 26.8759 191.927 26.9423 191.688 27.0751C191.452 27.2078 191.265 27.4025 191.126 27.6592C190.991 27.9129 190.923 28.2197 190.923 28.5796ZM199.897 35.306C199.357 35.306 198.893 35.2352 198.503 35.0936C198.117 34.952 197.801 34.7647 197.556 34.5316C197.311 34.2986 197.129 34.0434 197.008 33.766L198.145 33.297C198.225 33.4268 198.331 33.564 198.464 33.7085C198.599 33.856 198.782 33.9814 199.012 34.0847C199.245 34.1879 199.545 34.2395 199.911 34.2395C200.412 34.2395 200.827 34.1171 201.154 33.8723C201.482 33.6303 201.645 33.2439 201.645 32.7128V31.3764H201.561C201.482 31.521 201.366 31.6817 201.216 31.8588C201.069 32.0358 200.865 32.1892 200.605 32.319C200.346 32.4488 200.008 32.5137 199.592 32.5137C199.055 32.5137 198.571 32.3883 198.14 32.1376C197.713 31.8838 197.373 31.5106 197.123 31.018C196.875 30.5223 196.751 29.9131 196.751 29.1903C196.751 28.4675 196.873 27.848 197.118 27.3317C197.366 26.8154 197.705 26.4201 198.136 26.1457C198.567 25.8684 199.055 25.7298 199.601 25.7298C200.023 25.7298 200.363 25.8006 200.623 25.9422C200.883 26.0808 201.085 26.2431 201.229 26.429C201.377 26.6148 201.49 26.7786 201.57 26.9202H201.667V25.8183H202.964V32.7659C202.964 33.3501 202.828 33.8295 202.557 34.2041C202.285 34.5788 201.918 34.8561 201.455 35.0361C200.995 35.2161 200.476 35.306 199.897 35.306ZM199.884 31.4162C200.265 31.4162 200.586 31.3277 200.849 31.1507C201.114 30.9708 201.315 30.7141 201.451 30.3807C201.589 30.0444 201.659 29.6417 201.659 29.1726C201.659 28.7153 201.591 28.3126 201.455 27.9645C201.319 27.6164 201.12 27.345 200.858 27.1503C200.595 26.9526 200.27 26.8538 199.884 26.8538C199.486 26.8538 199.154 26.957 198.888 27.1636C198.623 27.3671 198.422 27.6444 198.287 27.9955C198.154 28.3466 198.087 28.7389 198.087 29.1726C198.087 29.6181 198.155 30.009 198.291 30.3453C198.427 30.6816 198.627 30.9442 198.893 31.133C199.161 31.3218 199.492 31.4162 199.884 31.4162ZM206.717 32.7659C206.286 32.7659 205.896 32.6863 205.548 32.527C205.2 32.3647 204.924 32.1302 204.721 31.8234C204.52 31.5165 204.42 31.1404 204.42 30.6949C204.42 30.3114 204.494 29.9957 204.641 29.7479C204.789 29.5001 204.988 29.3039 205.239 29.1593C205.489 29.0148 205.77 28.9056 206.079 28.8319C206.389 28.7581 206.705 28.7021 207.026 28.6637C207.434 28.6165 207.764 28.5782 208.018 28.5487C208.271 28.5162 208.456 28.4646 208.571 28.3938C208.686 28.323 208.743 28.2079 208.743 28.0486V28.0176C208.743 27.6312 208.634 27.3317 208.416 27.1193C208.201 26.9069 207.879 26.8007 207.451 26.8007C207.006 26.8007 206.655 26.8995 206.398 27.0972C206.144 27.2919 205.969 27.5087 205.871 27.7477L204.628 27.4645C204.775 27.0514 204.991 26.7181 205.274 26.4644C205.56 26.2077 205.889 26.0218 206.261 25.9068C206.633 25.7888 207.023 25.7298 207.434 25.7298C207.705 25.7298 207.993 25.7622 208.296 25.8271C208.603 25.8891 208.889 26.0041 209.155 26.1723C209.423 26.3405 209.643 26.5809 209.814 26.8936C209.985 27.2034 210.071 27.6061 210.071 28.1017V32.6155H208.779V31.6862H208.726C208.64 31.8573 208.512 32.0254 208.341 32.1907C208.17 32.3559 207.95 32.493 207.681 32.6022C207.413 32.7114 207.091 32.7659 206.717 32.7659ZM207.004 31.7039C207.37 31.7039 207.683 31.6316 207.942 31.487C208.205 31.3425 208.404 31.1537 208.54 30.9206C208.678 30.6846 208.748 30.4323 208.748 30.1639V29.2877C208.701 29.3349 208.609 29.3791 208.473 29.4204C208.341 29.4588 208.189 29.4927 208.018 29.5222C207.847 29.5488 207.68 29.5738 207.518 29.5974C207.355 29.6181 207.22 29.6358 207.11 29.6506C206.854 29.683 206.619 29.7376 206.407 29.8143C206.197 29.891 206.029 30.0016 205.902 30.1462C205.778 30.2878 205.717 30.4766 205.717 30.7126C205.717 31.0401 205.837 31.2879 206.079 31.4561C206.321 31.6213 206.63 31.7039 207.004 31.7039ZM213.156 28.5796V32.6155H211.833V25.8183H213.103V26.9246H213.187C213.344 26.5647 213.589 26.2756 213.922 26.0572C214.258 25.8389 214.682 25.7298 215.192 25.7298C215.655 25.7298 216.061 25.8271 216.409 26.0218C216.757 26.2136 217.027 26.4998 217.219 26.8803C217.411 27.2609 217.507 27.7315 217.507 28.292V32.6155H216.183V28.4513C216.183 27.9586 216.055 27.5736 215.798 27.2963C215.542 27.016 215.189 26.8759 214.741 26.8759C214.434 26.8759 214.161 26.9423 213.922 27.0751C213.686 27.2078 213.499 27.4025 213.36 27.6592C213.224 27.9129 213.156 28.2197 213.156 28.5796Z" fill="#121926"/>
<path d="M309.077 29.3079C309.459 29.3079 309.769 28.998 309.769 28.6156C309.769 28.2333 309.459 27.9233 309.077 27.9233C308.695 27.9233 308.385 28.2333 308.385 28.6156C308.385 28.998 308.695 29.3079 309.077 29.3079Z" stroke="#9AA4B2" stroke-width="1.38462" stroke-linecap="round" stroke-linejoin="round"/>
<path d="M309.077 24.4618C309.459 24.4618 309.769 24.1518 309.769 23.7695C309.769 23.3871 309.459 23.0771 309.077 23.0771C308.695 23.0771 308.385 23.3871 308.385 23.7695C308.385 24.1518 308.695 24.4618 309.077 24.4618Z" stroke="#9AA4B2" stroke-width="1.38462" stroke-linecap="round" stroke-linejoin="round"/>
<path d="M309.077 34.1541C309.459 34.1541 309.769 33.8441 309.769 33.4618C309.769 33.0794 309.459 32.7695 309.077 32.7695C308.695 32.7695 308.385 33.0794 308.385 33.4618C308.385 33.8441 308.695 34.1541 309.077 34.1541Z" stroke="#9AA4B2" stroke-width="1.38462" stroke-linecap="round" stroke-linejoin="round"/>
<path d="M123.927 60.0337C123.89 59.7079 123.739 59.4555 123.472 59.2765C123.206 59.0952 122.871 59.0046 122.467 59.0046C122.178 59.0046 121.928 59.0505 121.717 59.1423C121.506 59.2318 121.342 59.3557 121.225 59.514C121.11 59.67 121.053 59.8479 121.053 60.0475C121.053 60.215 121.092 60.3596 121.17 60.4812C121.25 60.6028 121.355 60.7049 121.483 60.7875C121.614 60.8678 121.754 60.9355 121.903 60.9906C122.052 61.0433 122.195 61.0869 122.333 61.1214L123.022 61.3003C123.246 61.3554 123.477 61.43 123.713 61.5241C123.95 61.6181 124.169 61.742 124.371 61.8958C124.573 62.0495 124.736 62.24 124.859 62.4671C124.986 62.6943 125.049 62.9662 125.049 63.2829C125.049 63.6821 124.946 64.0366 124.739 64.3464C124.535 64.6562 124.238 64.9005 123.848 65.0795C123.46 65.2585 122.991 65.348 122.44 65.348C121.912 65.348 121.455 65.2642 121.07 65.0967C120.684 64.9292 120.383 64.6917 120.165 64.3843C119.947 64.0745 119.826 63.7074 119.803 63.2829H120.87C120.891 63.5376 120.974 63.7498 121.118 63.9196C121.265 64.0871 121.452 64.2122 121.679 64.2948C121.909 64.3751 122.16 64.4152 122.433 64.4152C122.734 64.4152 123.001 64.3682 123.235 64.2741C123.471 64.1777 123.657 64.0447 123.792 63.8749C123.928 63.7028 123.996 63.502 123.996 63.2725C123.996 63.0637 123.936 62.8928 123.817 62.7597C123.7 62.6266 123.54 62.5165 123.338 62.4293C123.139 62.3421 122.913 62.2652 122.66 62.1987L121.827 61.9715C121.263 61.8178 120.815 61.5918 120.485 61.2935C120.157 60.9952 119.993 60.6005 119.993 60.1095C119.993 59.7033 120.103 59.3488 120.323 59.0459C120.543 58.743 120.842 58.5078 121.218 58.3403C121.594 58.1705 122.019 58.0856 122.491 58.0856C122.969 58.0856 123.39 58.1694 123.755 58.3369C124.122 58.5044 124.411 58.735 124.622 59.0287C124.833 59.3201 124.943 59.6551 124.952 60.0337H123.927ZM127.776 65.348C127.441 65.348 127.138 65.286 126.867 65.1621C126.596 65.0359 126.382 64.8535 126.223 64.6149C126.067 64.3762 125.989 64.0837 125.989 63.7372C125.989 63.4389 126.047 63.1934 126.161 63.0006C126.276 62.8079 126.431 62.6553 126.626 62.5429C126.821 62.4304 127.039 62.3455 127.28 62.2882C127.521 62.2308 127.766 62.1872 128.017 62.1574C128.333 62.1207 128.59 62.0908 128.788 62.0679C128.985 62.0426 129.128 62.0025 129.218 61.9474C129.307 61.8923 129.352 61.8029 129.352 61.6789V61.6549C129.352 61.3543 129.267 61.1214 129.097 60.9562C128.93 60.7909 128.68 60.7083 128.347 60.7083C128 60.7083 127.727 60.7852 127.528 60.9389C127.33 61.0904 127.194 61.259 127.118 61.4449L126.151 61.2246C126.266 60.9034 126.433 60.6441 126.654 60.4468C126.876 60.2471 127.132 60.1026 127.421 60.0131C127.71 59.9213 128.014 59.8754 128.333 59.8754C128.544 59.8754 128.768 59.9006 129.004 59.9511C129.243 59.9993 129.466 60.0888 129.672 60.2196C129.881 60.3504 130.052 60.5374 130.185 60.7806C130.318 61.0215 130.385 61.3348 130.385 61.7202V65.231H129.38V64.5082H129.338C129.272 64.6412 129.172 64.772 129.039 64.9005C128.906 65.029 128.735 65.1357 128.526 65.2206C128.317 65.3055 128.067 65.348 127.776 65.348ZM127.999 64.5219C128.284 64.5219 128.527 64.4657 128.729 64.3533C128.933 64.2408 129.088 64.094 129.194 63.9127C129.301 63.7292 129.355 63.533 129.355 63.3242V62.6427C129.319 62.6794 129.248 62.7138 129.142 62.7459C129.039 62.7758 128.921 62.8021 128.788 62.8251C128.654 62.8457 128.525 62.8652 128.399 62.8836C128.272 62.8997 128.167 62.9134 128.082 62.9249C127.882 62.9501 127.7 62.9926 127.535 63.0523C127.372 63.1119 127.241 63.198 127.142 63.3104C127.046 63.4205 126.998 63.5674 126.998 63.751C126.998 64.0057 127.092 64.1984 127.28 64.3292C127.468 64.4577 127.708 64.5219 127.999 64.5219ZM132.784 58.182V65.231H131.755V58.182H132.784ZM136.148 65.3342C135.721 65.3342 135.34 65.2252 135.005 65.0072C134.673 64.787 134.411 64.4737 134.221 64.0676C134.032 63.6592 133.938 63.1693 133.938 62.5979C133.938 62.0266 134.033 61.5378 134.224 61.1317C134.417 60.7255 134.681 60.4146 135.016 60.1989C135.351 59.9833 135.73 59.8754 136.155 59.8754C136.483 59.8754 136.747 59.9305 136.946 60.0406C137.148 60.1485 137.304 60.2747 137.415 60.4192C137.527 60.5638 137.614 60.6911 137.676 60.8013H137.738V58.182H138.767V65.231H137.762V64.4083H137.676C137.614 64.5208 137.525 64.6493 137.408 64.7938C137.293 64.9384 137.135 65.0646 136.933 65.1724C136.731 65.2803 136.469 65.3342 136.148 65.3342ZM136.375 64.4565C136.671 64.4565 136.921 64.3785 137.125 64.2225C137.332 64.0642 137.488 63.845 137.594 63.5651C137.701 63.2852 137.755 62.9593 137.755 62.5876C137.755 62.2205 137.703 61.8992 137.597 61.6239C137.491 61.3485 137.337 61.134 137.132 60.9802C136.928 60.8265 136.676 60.7496 136.375 60.7496C136.065 60.7496 135.807 60.83 135.601 60.9906C135.394 61.1512 135.238 61.3703 135.133 61.648C135.029 61.9256 134.978 62.2388 134.978 62.5876C134.978 62.941 135.03 63.2588 135.136 63.541C135.242 63.8232 135.398 64.047 135.604 64.2122C135.813 64.3751 136.07 64.4565 136.375 64.4565ZM142.463 65.3377C141.967 65.3377 141.535 65.2241 141.165 64.9969C140.796 64.7697 140.509 64.4519 140.305 64.0435C140.101 63.6351 139.999 63.1578 139.999 62.6117C139.999 62.0633 140.101 61.5837 140.305 61.173C140.509 60.7623 140.796 60.4433 141.165 60.2162C141.535 59.989 141.967 59.8754 142.463 59.8754C142.959 59.8754 143.391 59.989 143.761 60.2162C144.13 60.4433 144.417 60.7623 144.621 61.173C144.825 61.5837 144.927 62.0633 144.927 62.6117C144.927 63.1578 144.825 63.6351 144.621 64.0435C144.417 64.4519 144.13 64.7697 143.761 64.9969C143.391 65.2241 142.959 65.3377 142.463 65.3377ZM142.466 64.4737C142.788 64.4737 143.054 64.3888 143.265 64.219C143.476 64.0492 143.632 63.8232 143.733 63.541C143.836 63.2588 143.888 62.9478 143.888 62.6083C143.888 62.2709 143.836 61.9612 143.733 61.6789C143.632 61.3944 143.476 61.1661 143.265 60.994C143.054 60.8219 142.788 60.7359 142.466 60.7359C142.143 60.7359 141.874 60.8219 141.661 60.994C141.45 61.1661 141.293 61.3944 141.189 61.6789C141.088 61.9612 141.038 62.2709 141.038 62.6083C141.038 62.9478 141.088 63.2588 141.189 63.541C141.293 63.8232 141.45 64.0492 141.661 64.219C141.874 64.3888 142.143 64.4737 142.466 64.4737ZM152.603 61.2349L151.67 61.4002C151.631 61.2808 151.569 61.1673 151.484 61.0594C151.401 60.9516 151.289 60.8632 151.147 60.7944C151.005 60.7255 150.827 60.6911 150.613 60.6911C150.322 60.6911 150.079 60.7565 149.884 60.8873C149.689 61.0158 149.591 61.1822 149.591 61.3864C149.591 61.5631 149.656 61.7053 149.787 61.8132C149.918 61.921 150.129 62.0094 150.421 62.0782L151.26 62.2709C151.747 62.3834 152.109 62.5566 152.348 62.7907C152.587 63.0247 152.706 63.3287 152.706 63.7028C152.706 64.0194 152.614 64.3017 152.431 64.5495C152.249 64.795 151.996 64.9877 151.67 65.1277C151.346 65.2677 150.971 65.3377 150.544 65.3377C149.952 65.3377 149.469 65.2115 149.095 64.959C148.721 64.7044 148.492 64.343 148.407 63.8749L149.402 63.7234C149.464 63.9827 149.591 64.1789 149.784 64.312C149.977 64.4428 150.228 64.5082 150.538 64.5082C150.875 64.5082 151.144 64.4382 151.346 64.2982C151.548 64.1559 151.649 63.9827 151.649 63.7785C151.649 63.6133 151.587 63.4745 151.463 63.362C151.342 63.2496 151.155 63.1647 150.902 63.1073L150.008 62.9111C149.514 62.7987 149.149 62.6197 148.913 62.3742C148.679 62.1287 148.562 61.8178 148.562 61.4415C148.562 61.1294 148.649 60.8563 148.824 60.6223C148.998 60.3882 149.239 60.2058 149.546 60.075C149.854 59.9419 150.206 59.8754 150.603 59.8754C151.174 59.8754 151.624 59.9993 151.952 60.2471C152.28 60.4926 152.497 60.8219 152.603 61.2349ZM155.376 65.348C155.041 65.348 154.738 65.286 154.467 65.1621C154.197 65.0359 153.982 64.8535 153.824 64.6149C153.668 64.3762 153.59 64.0837 153.59 63.7372C153.59 63.4389 153.647 63.1934 153.762 63.0006C153.876 62.8079 154.031 62.6553 154.226 62.5429C154.421 62.4304 154.639 62.3455 154.88 62.2882C155.121 62.2308 155.367 62.1872 155.617 62.1574C155.934 62.1207 156.191 62.0908 156.388 62.0679C156.585 62.0426 156.729 62.0025 156.818 61.9474C156.908 61.8923 156.952 61.8029 156.952 61.6789V61.6549C156.952 61.3543 156.867 61.1214 156.698 60.9562C156.53 60.7909 156.28 60.7083 155.947 60.7083C155.601 60.7083 155.328 60.7852 155.128 60.9389C154.931 61.0904 154.794 61.259 154.719 61.4449L153.751 61.2246C153.866 60.9034 154.034 60.6441 154.254 60.4468C154.476 60.2471 154.732 60.1026 155.021 60.0131C155.311 59.9213 155.615 59.8754 155.934 59.8754C156.145 59.8754 156.368 59.9006 156.605 59.9511C156.843 59.9993 157.066 60.0888 157.272 60.2196C157.481 60.3504 157.652 60.5374 157.785 60.7806C157.918 61.0215 157.985 61.3348 157.985 61.7202V65.231H156.98V64.5082H156.939C156.872 64.6412 156.772 64.772 156.639 64.9005C156.506 65.029 156.335 65.1357 156.126 65.2206C155.917 65.3055 155.667 65.348 155.376 65.348ZM155.6 64.5219C155.884 64.5219 156.127 64.4657 156.329 64.3533C156.534 64.2408 156.688 64.094 156.794 63.9127C156.902 63.7292 156.956 63.533 156.956 63.3242V62.6427C156.919 62.6794 156.848 62.7138 156.742 62.7459C156.639 62.7758 156.521 62.8021 156.388 62.8251C156.255 62.8457 156.125 62.8652 155.999 62.8836C155.873 62.8997 155.767 62.9134 155.682 62.9249C155.483 62.9501 155.3 62.9926 155.135 63.0523C154.972 63.1119 154.841 63.198 154.743 63.3104C154.646 63.4205 154.598 63.5674 154.598 63.751C154.598 64.0057 154.692 64.1984 154.88 64.3292C155.068 64.4577 155.308 64.5219 155.6 64.5219ZM160.894 65.348C160.559 65.348 160.256 65.286 159.985 65.1621C159.715 65.0359 159.5 64.8535 159.342 64.6149C159.186 64.3762 159.108 64.0837 159.108 63.7372C159.108 63.4389 159.165 63.1934 159.28 63.0006C159.395 62.8079 159.55 62.6553 159.745 62.5429C159.94 62.4304 160.158 62.3455 160.399 62.2882C160.639 62.2308 160.885 62.1872 161.135 62.1574C161.452 62.1207 161.709 62.0908 161.906 62.0679C162.103 62.0426 162.247 62.0025 162.336 61.9474C162.426 61.8923 162.471 61.8029 162.471 61.6789V61.6549C162.471 61.3543 162.386 61.1214 162.216 60.9562C162.048 60.7909 161.798 60.7083 161.465 60.7083C161.119 60.7083 160.846 60.7852 160.646 60.9389C160.449 61.0904 160.312 61.259 160.237 61.4449L159.27 61.2246C159.384 60.9034 159.552 60.6441 159.772 60.4468C159.995 60.2471 160.251 60.1026 160.54 60.0131C160.829 59.9213 161.133 59.8754 161.452 59.8754C161.663 59.8754 161.887 59.9006 162.123 59.9511C162.362 59.9993 162.584 60.0888 162.791 60.2196C162.999 60.3504 163.17 60.5374 163.303 60.7806C163.437 61.0215 163.503 61.3348 163.503 61.7202V65.231H162.498V64.5082H162.457C162.39 64.6412 162.29 64.772 162.157 64.9005C162.024 65.029 161.853 65.1357 161.644 65.2206C161.436 65.3055 161.186 65.348 160.894 65.348ZM161.118 64.5219C161.402 64.5219 161.646 64.4657 161.848 64.3533C162.052 64.2408 162.207 64.094 162.312 63.9127C162.42 63.7292 162.474 63.533 162.474 63.3242V62.6427C162.437 62.6794 162.366 62.7138 162.261 62.7459C162.157 62.7758 162.039 62.8021 161.906 62.8251C161.773 62.8457 161.643 62.8652 161.517 62.8836C161.391 62.8997 161.285 62.9134 161.2 62.9249C161.001 62.9501 160.818 62.9926 160.653 63.0523C160.49 63.1119 160.36 63.198 160.261 63.3104C160.164 63.4205 160.116 63.5674 160.116 63.751C160.116 64.0057 160.21 64.1984 160.399 64.3292C160.587 64.4577 160.826 64.5219 161.118 64.5219ZM167.342 59.9442V60.7703H164.454V59.9442H167.342ZM165.228 58.6776H166.257V63.6787C166.257 63.8783 166.287 64.0286 166.347 64.1296C166.407 64.2282 166.483 64.2959 166.578 64.3326C166.674 64.367 166.778 64.3843 166.891 64.3843C166.973 64.3843 167.046 64.3785 167.108 64.367C167.17 64.3556 167.218 64.3464 167.252 64.3395L167.438 65.1897C167.378 65.2126 167.293 65.2355 167.183 65.2585C167.073 65.2837 166.935 65.2975 166.77 65.2998C166.5 65.3044 166.247 65.2562 166.013 65.1552C165.779 65.0543 165.59 64.8982 165.445 64.6871C165.301 64.476 165.228 64.211 165.228 63.8921V58.6776ZM171.045 65.231V59.9442H172.074V65.231H171.045ZM171.565 59.1285C171.386 59.1285 171.232 59.0689 171.104 58.9495C170.977 58.8279 170.914 58.6834 170.914 58.5159C170.914 58.3461 170.977 58.2015 171.104 58.0822C171.232 57.9606 171.386 57.8998 171.565 57.8998C171.744 57.8998 171.896 57.9606 172.023 58.0822C172.151 58.2015 172.215 58.3461 172.215 58.5159C172.215 58.6834 172.151 58.8279 172.023 58.9495C171.896 59.0689 171.744 59.1285 171.565 59.1285ZM174.488 62.092V65.231H173.459V59.9442H174.447V60.8047H174.512C174.634 60.5248 174.824 60.2999 175.083 60.1301C175.345 59.9603 175.674 59.8754 176.071 59.8754C176.431 59.8754 176.747 59.9511 177.018 60.1026C177.288 60.2517 177.498 60.4743 177.647 60.7703C177.797 61.0663 177.871 61.4323 177.871 61.8682V65.231H176.842V61.9922C176.842 61.609 176.742 61.3095 176.543 61.0938C176.343 60.8758 176.069 60.7669 175.72 60.7669C175.481 60.7669 175.269 60.8185 175.083 60.9217C174.9 61.025 174.754 61.1764 174.646 61.3761C174.541 61.5734 174.488 61.812 174.488 62.092ZM179.251 65.231V59.9442H180.28V65.231H179.251ZM179.771 59.1285C179.592 59.1285 179.438 59.0689 179.31 58.9495C179.184 58.8279 179.121 58.6834 179.121 58.5159C179.121 58.3461 179.184 58.2015 179.31 58.0822C179.438 57.9606 179.592 57.8998 179.771 57.8998C179.95 57.8998 180.103 57.9606 180.229 58.0822C180.357 58.2015 180.422 58.3461 180.422 58.5159C180.422 58.6834 180.357 58.8279 180.229 58.9495C180.103 59.0689 179.95 59.1285 179.771 59.1285Z" fill="#697586"/>
<path d="M120.967 95.7695V80.6646H126.351C127.522 80.6646 128.493 80.8662 129.265 81.2694C130.041 81.6726 130.622 82.2307 131.005 82.9436C131.389 83.6517 131.58 84.4704 131.58 85.3997C131.58 86.3241 131.386 87.1378 130.998 87.8409C130.614 88.5391 130.034 89.0825 129.257 89.4709C128.485 89.8593 127.514 90.0536 126.344 90.0536H122.265V88.0917H126.137C126.875 88.0917 127.475 87.986 127.937 87.7746C128.404 87.5631 128.746 87.2558 128.962 86.8526C129.179 86.4494 129.287 85.9651 129.287 85.3997C129.287 84.8293 129.176 84.3351 128.955 83.9172C128.738 83.4993 128.397 83.1797 127.93 82.9584C127.467 82.7322 126.86 82.6191 126.108 82.6191H123.246V95.7695H120.967ZM128.424 88.9546L132.156 95.7695H129.56L125.901 88.9546H128.424ZM134.177 100.018V84.4409H136.33V86.2773H136.515C136.642 86.0413 136.827 85.7684 137.068 85.4587C137.309 85.1489 137.643 84.8785 138.071 84.6474C138.499 84.4114 139.064 84.2934 139.767 84.2934C140.682 84.2934 141.498 84.5244 142.216 84.9866C142.934 85.4488 143.497 86.1151 143.905 86.9854C144.318 87.8557 144.524 88.903 144.524 90.1273C144.524 91.3516 144.32 92.4014 143.912 93.2766C143.504 94.1469 142.944 94.8181 142.231 95.2901C141.518 95.7572 140.704 95.9908 139.789 95.9908C139.101 95.9908 138.538 95.8752 138.1 95.6441C137.668 95.4131 137.328 95.1426 137.083 94.8329C136.837 94.5231 136.647 94.2477 136.515 94.0068H136.382V100.018H134.177ZM136.338 90.1052C136.338 90.9017 136.453 91.6 136.684 92.1998C136.915 92.7997 137.25 93.2693 137.687 93.6085C138.125 93.9429 138.661 94.1101 139.295 94.1101C139.954 94.1101 140.505 93.9355 140.947 93.5864C141.39 93.2324 141.724 92.753 141.95 92.1482C142.181 91.5434 142.297 90.8624 142.297 90.1052C142.297 89.3578 142.184 88.6867 141.958 88.0917C141.736 87.4967 141.402 87.0272 140.955 86.683C140.512 86.3388 139.959 86.1667 139.295 86.1667C138.656 86.1667 138.115 86.3314 137.673 86.6609C137.235 86.9903 136.903 87.45 136.677 88.0401C136.451 88.6301 136.338 89.3185 136.338 90.1052ZM152.696 80.6646V95.7695H150.41V82.951H150.321L146.707 85.3112V83.128L150.476 80.6646H152.696ZM162.041 95.976C161.028 95.976 160.123 95.8015 159.327 95.4524C158.535 95.1033 157.908 94.619 157.446 93.9994C156.989 93.375 156.743 92.6522 156.709 91.831H159.024C159.054 92.2785 159.204 92.6669 159.474 92.9964C159.75 93.3209 160.109 93.5717 160.551 93.7487C160.994 93.9257 161.485 94.0142 162.026 94.0142C162.621 94.0142 163.147 93.9109 163.605 93.7044C164.067 93.4979 164.428 93.2103 164.689 92.8415C164.949 92.4678 165.08 92.0376 165.08 91.5508C165.08 91.0443 164.949 90.5993 164.689 90.2158C164.433 89.8274 164.057 89.5225 163.56 89.3013C163.069 89.08 162.474 88.9694 161.776 88.9694H160.5V87.1108H161.776C162.336 87.1108 162.828 87.01 163.251 86.8084C163.678 86.6068 164.013 86.3265 164.254 85.9676C164.495 85.6037 164.615 85.1784 164.615 84.6916C164.615 84.2245 164.509 83.8189 164.298 83.4747C164.091 83.1256 163.796 82.8527 163.413 82.656C163.034 82.4593 162.587 82.361 162.071 82.361C161.579 82.361 161.119 82.4519 160.691 82.6339C160.268 82.8109 159.924 83.0666 159.659 83.4009C159.393 83.7304 159.251 84.1262 159.231 84.5884H157.026C157.05 83.7722 157.291 83.0543 157.749 82.4347C158.211 81.8152 158.82 81.3309 159.578 80.9818C160.335 80.6327 161.176 80.4581 162.1 80.4581C163.069 80.4581 163.905 80.6474 164.608 81.026C165.316 81.3997 165.862 81.8988 166.245 82.5232C166.633 83.1477 166.825 83.8312 166.82 84.5736C166.825 85.4193 166.589 86.1372 166.112 86.7272C165.64 87.3173 165.011 87.7131 164.224 87.9147V88.0327C165.227 88.1851 166.004 88.5834 166.555 89.2275C167.11 89.8716 167.386 90.6706 167.381 91.6245C167.386 92.4555 167.155 93.2004 166.688 93.8593C166.225 94.5182 165.594 95.0369 164.792 95.4155C163.991 95.7892 163.074 95.976 162.041 95.976ZM171.205 95.9097C170.802 95.9097 170.455 95.7671 170.165 95.4819C169.875 95.1918 169.73 94.8427 169.73 94.4346C169.73 94.0314 169.875 93.6872 170.165 93.402C170.455 93.1119 170.802 92.9669 171.205 92.9669C171.608 92.9669 171.955 93.1119 172.245 93.402C172.535 93.6872 172.68 94.0314 172.68 94.4346C172.68 94.705 172.611 94.9533 172.474 95.1795C172.341 95.4008 172.164 95.5778 171.943 95.7105C171.721 95.8433 171.475 95.9097 171.205 95.9097ZM180.445 80.4581C181.118 80.463 181.782 80.586 182.436 80.8269C183.09 81.0678 183.68 81.4612 184.206 82.007C184.737 82.5527 185.16 83.2903 185.475 84.2196C185.794 85.144 185.956 86.2946 185.961 87.6713C185.961 88.994 185.829 90.1716 185.563 91.2041C185.298 92.2318 184.917 93.0996 184.42 93.8077C183.928 94.5157 183.331 95.0541 182.628 95.4229C181.925 95.7917 181.133 95.976 180.253 95.976C179.353 95.976 178.554 95.799 177.856 95.445C177.158 95.091 176.59 94.6018 176.152 93.9773C175.714 93.3479 175.442 92.6251 175.333 91.8089H177.583C177.73 92.458 178.03 92.9841 178.483 93.3873C178.94 93.7855 179.53 93.9847 180.253 93.9847C181.359 93.9847 182.222 93.5028 182.842 92.5391C183.461 91.5704 183.773 90.2183 183.778 88.4826H183.66C183.405 88.9055 183.085 89.2693 182.701 89.5742C182.323 89.879 181.898 90.115 181.426 90.2822C180.953 90.4494 180.449 90.533 179.914 90.533C179.043 90.533 178.252 90.3191 177.539 89.8913C176.826 89.4635 176.258 88.876 175.835 88.1286C175.412 87.3812 175.201 86.5281 175.201 85.5693C175.201 84.6154 175.417 83.75 175.85 82.9731C176.287 82.1963 176.897 81.5816 177.679 81.1293C178.466 80.672 179.387 80.4483 180.445 80.4581ZM180.452 82.3757C179.877 82.3757 179.358 82.5183 178.896 82.8035C178.438 83.0838 178.077 83.4648 177.812 83.9467C177.546 84.4236 177.413 84.9547 177.413 85.5398C177.413 86.1249 177.541 86.6559 177.797 87.1329C178.057 87.6049 178.411 87.9811 178.859 88.2613C179.311 88.5367 179.828 88.6744 180.408 88.6744C180.84 88.6744 181.244 88.5908 181.617 88.4236C181.991 88.2564 182.318 88.0253 182.598 87.7303C182.878 87.4304 183.097 87.0911 183.255 86.7125C183.412 86.3339 183.491 85.9356 183.491 85.5177C183.491 84.9621 183.358 84.4458 183.092 83.9688C182.832 83.4919 182.473 83.1084 182.016 82.8183C181.558 82.5232 181.037 82.3757 180.452 82.3757ZM193.884 96.0203C192.719 96.0154 191.723 95.7081 190.897 95.0984C190.071 94.4887 189.44 93.6012 189.002 92.4358C188.564 91.2705 188.346 89.8667 188.346 88.2245C188.346 86.5871 188.564 85.1882 189.002 84.0278C189.444 82.8674 190.079 81.9824 190.905 81.3727C191.736 80.763 192.729 80.4581 193.884 80.4581C195.04 80.4581 196.031 80.7654 196.857 81.3801C197.683 81.9898 198.315 82.8748 198.752 84.0352C199.195 85.1907 199.416 86.5871 199.416 88.2245C199.416 89.8716 199.197 91.2779 198.76 92.4432C198.322 93.6036 197.69 94.4911 196.864 95.1057C196.038 95.7154 195.045 96.0203 193.884 96.0203ZM193.884 94.0511C194.907 94.0511 195.706 93.552 196.281 92.5538C196.862 91.5557 197.152 90.1126 197.152 88.2245C197.152 86.9706 197.019 85.911 196.754 85.0456C196.493 84.1753 196.117 83.5165 195.625 83.069C195.138 82.6167 194.558 82.3905 193.884 82.3905C192.867 82.3905 192.068 82.892 191.487 83.8951C190.907 84.8981 190.615 86.3413 190.61 88.2245C190.61 89.4832 190.74 90.5477 191.001 91.418C191.266 92.2834 191.642 92.9398 192.129 93.3873C192.616 93.8298 193.201 94.0511 193.884 94.0511ZM207.291 96.0203C206.126 96.0154 205.13 95.7081 204.304 95.0984C203.478 94.4887 202.846 93.6012 202.409 92.4358C201.971 91.2705 201.752 89.8667 201.752 88.2245C201.752 86.5871 201.971 85.1882 202.409 84.0278C202.851 82.8674 203.485 81.9824 204.312 81.3727C205.142 80.763 206.136 80.4581 207.291 80.4581C208.447 80.4581 209.437 80.7654 210.263 81.3801C211.09 81.9898 211.721 82.8748 212.159 84.0352C212.601 85.1907 212.823 86.5871 212.823 88.2245C212.823 89.8716 212.604 91.2779 212.166 92.4432C211.729 93.6036 211.097 94.4911 210.271 95.1057C209.445 95.7154 208.452 96.0203 207.291 96.0203ZM207.291 94.0511C208.314 94.0511 209.113 93.552 209.688 92.5538C210.268 91.5557 210.558 90.1126 210.558 88.2245C210.558 86.9706 210.426 85.911 210.16 85.0456C209.9 84.1753 209.523 83.5165 209.032 83.069C208.545 82.6167 207.965 82.3905 207.291 82.3905C206.273 82.3905 205.474 82.892 204.894 83.8951C204.314 84.8981 204.021 86.3413 204.016 88.2245C204.016 89.4832 204.147 90.5477 204.407 91.418C204.673 92.2834 205.049 92.9398 205.536 93.3873C206.023 93.8298 206.608 94.0511 207.291 94.0511ZM216.374 95.9097C215.971 95.9097 215.624 95.7671 215.334 95.4819C215.044 95.1918 214.899 94.8427 214.899 94.4346C214.899 94.0314 215.044 93.6872 215.334 93.402C215.624 93.1119 215.971 92.9669 216.374 92.9669C216.777 92.9669 217.124 93.1119 217.414 93.402C217.704 93.6872 217.849 94.0314 217.849 94.4346C217.849 94.705 217.78 94.9533 217.643 95.1795C217.51 95.4008 217.333 95.5778 217.112 95.7105C216.89 95.8433 216.644 95.9097 216.374 95.9097ZM225.485 96.0203C224.319 96.0154 223.324 95.7081 222.497 95.0984C221.671 94.4887 221.04 93.6012 220.602 92.4358C220.164 91.2705 219.946 89.8667 219.946 88.2245C219.946 86.5871 220.164 85.1882 220.602 84.0278C221.045 82.8674 221.679 81.9824 222.505 81.3727C223.336 80.763 224.329 80.4581 225.485 80.4581C226.64 80.4581 227.631 80.7654 228.457 81.3801C229.283 81.9898 229.915 82.8748 230.352 84.0352C230.795 85.1907 231.016 86.5871 231.016 88.2245C231.016 89.8716 230.797 91.2779 230.36 92.4432C229.922 93.6036 229.29 94.4911 228.464 95.1057C227.638 95.7154 226.645 96.0203 225.485 96.0203ZM225.485 94.0511C226.507 94.0511 227.306 93.552 227.882 92.5538C228.462 91.5557 228.752 90.1126 228.752 88.2245C228.752 86.9706 228.619 85.911 228.354 85.0456C228.093 84.1753 227.717 83.5165 227.225 83.069C226.738 82.6167 226.158 82.3905 225.485 82.3905C224.467 82.3905 223.668 82.892 223.088 83.8951C222.507 84.8981 222.215 86.3413 222.21 88.2245C222.21 89.4832 222.34 90.5477 222.601 91.418C222.866 92.2834 223.242 92.9398 223.729 93.3873C224.216 93.8298 224.801 94.0511 225.485 94.0511ZM238.891 96.0203C237.726 96.0154 236.73 95.7081 235.904 95.0984C235.078 94.4887 234.446 93.6012 234.009 92.4358C233.571 91.2705 233.352 89.8667 233.352 88.2245C233.352 86.5871 233.571 85.1882 234.009 84.0278C234.451 82.8674 235.086 81.9824 235.912 81.3727C236.743 80.763 237.736 80.4581 238.891 80.4581C240.047 80.4581 241.037 80.7654 241.864 81.3801C242.69 81.9898 243.321 82.8748 243.759 84.0352C244.202 85.1907 244.423 86.5871 244.423 88.2245C244.423 89.8716 244.204 91.2779 243.766 92.4432C243.329 93.6036 242.697 94.4911 241.871 95.1057C241.045 95.7154 240.052 96.0203 238.891 96.0203ZM238.891 94.0511C239.914 94.0511 240.713 93.552 241.288 92.5538C241.868 91.5557 242.159 90.1126 242.159 88.2245C242.159 86.9706 242.026 85.911 241.76 85.0456C241.5 84.1753 241.124 83.5165 240.632 83.069C240.145 82.6167 239.565 82.3905 238.891 82.3905C237.873 82.3905 237.074 82.892 236.494 83.8951C235.914 84.8981 235.621 86.3413 235.617 88.2245C235.617 89.4832 235.747 90.5477 236.007 91.418C236.273 92.2834 236.649 92.9398 237.136 93.3873C237.623 93.8298 238.208 94.0511 238.891 94.0511ZM252.298 96.0203C251.133 96.0154 250.137 95.7081 249.311 95.0984C248.485 94.4887 247.853 93.6012 247.415 92.4358C246.978 91.2705 246.759 89.8667 246.759 88.2245C246.759 86.5871 246.978 85.1882 247.415 84.0278C247.858 82.8674 248.492 81.9824 249.318 81.3727C250.149 80.763 251.142 80.4581 252.298 80.4581C253.453 80.4581 254.444 80.7654 255.27 81.3801C256.096 81.9898 256.728 82.8748 257.166 84.0352C257.608 85.1907 257.83 86.5871 257.83 88.2245C257.83 89.8716 257.611 91.2779 257.173 92.4432C256.735 93.6036 256.104 94.4911 255.278 95.1057C254.452 95.7154 253.458 96.0203 252.298 96.0203ZM252.298 94.0511C253.321 94.0511 254.12 93.552 254.695 92.5538C255.275 91.5557 255.565 90.1126 255.565 88.2245C255.565 86.9706 255.432 85.911 255.167 85.0456C254.906 84.1753 254.53 83.5165 254.039 83.069C253.552 82.6167 252.972 82.3905 252.298 82.3905C251.28 82.3905 250.481 82.892 249.901 83.8951C249.321 84.8981 249.028 86.3413 249.023 88.2245C249.023 89.4832 249.154 90.5477 249.414 91.418C249.68 92.2834 250.056 92.9398 250.543 93.3873C251.029 93.8298 251.614 94.0511 252.298 94.0511Z" fill="#121926"/>
<rect x="272.846" y="79.885" width="44.5385" height="16.7692" rx="8.38461" fill="#FEF3F2"/>
<path d="M283.923 85.8464V90.6926M283.923 90.6926L286.346 88.2695M283.923 90.6926L281.5 88.2695" stroke="#F04438" stroke-width="1.03846" stroke-linecap="round" stroke-linejoin="round"/>
<path d="M293.978 91.3659C293.506 91.3659 293.083 91.2844 292.712 91.1215C292.342 90.9586 292.05 90.7326 291.834 90.4435C291.621 90.1521 291.506 89.8148 291.49 89.4316H292.571C292.584 89.6404 292.654 89.8217 292.781 89.9754C292.909 90.1268 293.077 90.2439 293.283 90.3265C293.49 90.4091 293.719 90.4504 293.971 90.4504C294.249 90.4504 294.495 90.4022 294.708 90.3058C294.924 90.2094 295.092 90.0752 295.214 89.9031C295.336 89.7287 295.396 89.5279 295.396 89.3008C295.396 89.0644 295.336 88.8568 295.214 88.6778C295.095 88.4965 294.919 88.3543 294.687 88.251C294.458 88.1478 294.18 88.0961 293.854 88.0961H293.259V87.2288H293.854C294.116 87.2288 294.345 87.1817 294.543 87.0877C294.742 86.9936 294.898 86.8628 295.011 86.6953C295.123 86.5255 295.18 86.327 295.18 86.0998C295.18 85.8819 295.13 85.6926 295.032 85.5319C294.935 85.369 294.797 85.2417 294.618 85.1499C294.442 85.0581 294.233 85.0122 293.992 85.0122C293.763 85.0122 293.548 85.0547 293.348 85.1396C293.151 85.2222 292.99 85.3415 292.867 85.4975C292.743 85.6513 292.676 85.836 292.667 86.0517H291.638C291.649 85.6708 291.762 85.3357 291.975 85.0466C292.191 84.7575 292.475 84.5315 292.829 84.3686C293.182 84.2057 293.574 84.1242 294.006 84.1242C294.458 84.1242 294.848 84.2125 295.176 84.3892C295.506 84.5636 295.761 84.7965 295.94 85.0879C296.121 85.3793 296.211 85.6983 296.209 86.0448C296.211 86.4394 296.101 86.7744 295.878 87.0498C295.658 87.3251 295.364 87.5099 294.997 87.6039V87.659C295.465 87.7301 295.828 87.916 296.085 88.2166C296.344 88.5172 296.473 88.8901 296.47 89.3352C296.473 89.723 296.365 90.0706 296.147 90.3781C295.931 90.6856 295.636 90.9276 295.262 91.1043C294.888 91.2787 294.46 91.3659 293.978 91.3659ZM298.255 91.3349C298.067 91.3349 297.905 91.2684 297.77 91.1353C297.634 90.9999 297.566 90.837 297.566 90.6466C297.566 90.4584 297.634 90.2978 297.77 90.1647C297.905 90.0293 298.067 89.9616 298.255 89.9616C298.443 89.9616 298.605 90.0293 298.74 90.1647C298.876 90.2978 298.943 90.4584 298.943 90.6466C298.943 90.7728 298.911 90.8886 298.847 90.9942C298.785 91.0974 298.702 91.18 298.599 91.242C298.496 91.3039 298.381 91.3349 298.255 91.3349ZM302.13 84.2206V91.2695H301.063V85.2876H301.022L299.336 86.389V85.3702L301.094 84.2206H302.13ZM307.717 89.9479V89.5761C307.717 89.31 307.772 89.0667 307.882 88.8465C307.994 88.6239 308.157 88.446 308.37 88.313C308.586 88.1776 308.847 88.1099 309.152 88.1099C309.464 88.1099 309.725 88.1764 309.937 88.3095C310.148 88.4426 310.307 88.6204 310.415 88.843C310.525 89.0656 310.58 89.31 310.58 89.5761V89.9479C310.58 90.214 310.525 90.4584 310.415 90.681C310.305 90.9013 310.143 91.0791 309.93 91.2145C309.719 91.3475 309.459 91.4141 309.152 91.4141C308.842 91.4141 308.58 91.3475 308.367 91.2145C308.154 91.0791 307.992 90.9013 307.882 90.681C307.772 90.4584 307.717 90.214 307.717 89.9479ZM308.518 89.5761V89.9479C308.518 90.1452 308.566 90.3242 308.66 90.4848C308.754 90.6454 308.918 90.7257 309.152 90.7257C309.384 90.7257 309.545 90.6454 309.637 90.4848C309.729 90.3242 309.775 90.1452 309.775 89.9479V89.5761C309.775 89.3788 309.73 89.1998 309.641 89.0392C309.553 88.8786 309.39 88.7983 309.152 88.7983C308.922 88.7983 308.759 88.8786 308.663 89.0392C308.567 89.1998 308.518 89.3788 308.518 89.5761ZM304.171 85.914V85.5423C304.171 85.2761 304.226 85.0317 304.337 84.8091C304.449 84.5866 304.612 84.4087 304.825 84.2756C305.041 84.1426 305.301 84.076 305.607 84.076C305.919 84.076 306.18 84.1426 306.391 84.2756C306.603 84.4087 306.762 84.5866 306.87 84.8091C306.978 85.0317 307.032 85.2761 307.032 85.5423V85.914C307.032 86.1802 306.977 86.4245 306.866 86.6471C306.759 86.8674 306.598 87.0452 306.385 87.1806C306.173 87.3137 305.914 87.3802 305.607 87.3802C305.295 87.3802 305.032 87.3137 304.818 87.1806C304.607 87.0452 304.447 86.8674 304.337 86.6471C304.226 86.4245 304.171 86.1802 304.171 85.914ZM304.977 85.5423V85.914C304.977 86.1113 305.023 86.2903 305.114 86.4509C305.209 86.6115 305.373 86.6918 305.607 86.6918C305.836 86.6918 305.997 86.6115 306.089 86.4509C306.183 86.2903 306.23 86.1113 306.23 85.914V85.5423C306.23 85.3449 306.185 85.1659 306.095 85.0053C306.006 84.8447 305.843 84.7644 305.607 84.7644C305.377 84.7644 305.214 84.8447 305.118 85.0053C305.024 85.1659 304.977 85.3449 304.977 85.5423ZM304.498 91.2695L309.345 84.2206H310.167L305.321 91.2695H304.498Z" fill="#B42318"/>
</g>
<g filter="url(#filter1_dd_387_951)">
<rect x="3" y="142.385" width="331" height="137.727" rx="3.57516" fill="white"/>
<rect x="3.29793" y="142.682" width="330.404" height="137.131" rx="3.27723" stroke="#E3E8EF" stroke-width="0.59586"/>
<path d="M88.8038 192.437C88.8038 212.182 72.7973 228.188 53.0522 228.188C33.3072 228.188 17.3006 212.182 17.3006 192.437C17.3006 172.692 33.3072 156.685 53.0522 156.685C72.7973 156.685 88.8038 172.692 88.8038 192.437ZM26.2385 192.437C26.2385 207.245 38.2434 219.25 53.0522 219.25C67.861 219.25 79.8659 207.245 79.8659 192.437C79.8659 177.628 67.861 165.623 53.0522 165.623C38.2434 165.623 26.2385 177.628 26.2385 192.437Z" fill="#D1E0FF"/>
<path d="M53.0522 156.685C60.6022 156.685 67.9584 159.075 74.0665 163.513C80.1745 167.951 84.7209 174.208 87.054 181.389L78.5535 184.151C76.8037 178.765 73.3939 174.072 68.8129 170.744C64.2318 167.416 58.7147 165.623 53.0522 165.623V156.685Z" fill="#155EEF"/>
<path d="M87.054 181.389C89.0914 187.659 89.3552 194.371 87.816 200.783C86.2768 207.194 82.9946 213.055 78.3324 217.717C73.6702 222.379 67.8095 225.661 61.3983 227.2C54.987 228.74 48.2751 228.476 42.0044 226.438L44.7663 217.938C49.4693 219.466 54.5033 219.664 59.3117 218.509C64.1202 217.355 68.5157 214.893 72.0123 211.397C75.509 207.9 77.9706 203.505 79.125 198.696C80.2794 193.888 80.0816 188.854 78.5535 184.151L87.054 181.389Z" fill="#2970FF"/>
<path d="M42.0044 226.438C34.8239 224.105 28.5663 219.559 24.1286 213.451L31.3595 208.197C34.6878 212.778 39.381 216.188 44.7663 217.938L42.0044 226.438Z" fill="#528BFF"/>
<path d="M24.1286 213.451C20.8123 208.886 18.6234 203.602 17.7408 198.029C16.8582 192.457 17.307 186.755 19.0504 181.389L27.5509 184.151C26.2433 188.175 25.9067 192.452 26.5686 196.631C27.2306 200.811 28.8723 204.774 31.3595 208.197L24.1286 213.451Z" fill="#84ADFF"/>
<path d="M104.62 168.685H103.371L106.178 160.885H107.538L110.345 168.685H109.096L106.89 162.302H106.829L104.62 168.685ZM104.83 165.63H108.882V166.621H104.83V165.63ZM112.427 166.701L112.42 165.31H112.618L114.949 162.835H116.312L113.654 165.653H113.475L112.427 166.701ZM111.38 168.685V160.885H112.519V168.685H111.38ZM115.074 168.685L112.98 165.905L113.764 165.109L116.472 168.685H115.074ZM121.056 166.259V162.835H122.199V168.685H121.079V167.672H121.018C120.883 167.984 120.668 168.245 120.37 168.453C120.076 168.658 119.709 168.761 119.27 168.761C118.894 168.761 118.561 168.679 118.272 168.514C117.985 168.346 117.759 168.099 117.594 167.771C117.431 167.443 117.35 167.038 117.35 166.556V162.835H118.489V166.419C118.489 166.817 118.599 167.135 118.82 167.371C119.041 167.607 119.328 167.725 119.681 167.725C119.894 167.725 120.106 167.672 120.317 167.565C120.53 167.459 120.707 167.297 120.847 167.082C120.989 166.866 121.059 166.592 121.056 166.259ZM124.868 165.211V168.685H123.729V162.835H124.822V163.787H124.894C125.029 163.477 125.24 163.228 125.527 163.04C125.816 162.853 126.18 162.759 126.62 162.759C127.018 162.759 127.367 162.842 127.667 163.01C127.967 163.175 128.199 163.421 128.364 163.749C128.529 164.076 128.612 164.481 128.612 164.964V168.685H127.473V165.101C127.473 164.677 127.362 164.346 127.142 164.107C126.921 163.866 126.617 163.745 126.231 163.745C125.967 163.745 125.732 163.802 125.527 163.916C125.323 164.031 125.162 164.198 125.043 164.419C124.926 164.638 124.868 164.902 124.868 165.211ZM136.683 166.259V162.835H137.826V168.685H136.706V167.672H136.645C136.511 167.984 136.295 168.245 135.998 168.453C135.703 168.658 135.336 168.761 134.897 168.761C134.521 168.761 134.189 168.679 133.899 168.514C133.612 168.346 133.386 168.099 133.221 167.771C133.059 167.443 132.977 167.038 132.977 166.556V162.835H134.116V166.419C134.116 166.817 134.227 167.135 134.448 167.371C134.669 167.607 134.955 167.725 135.308 167.725C135.522 167.725 135.734 167.672 135.945 167.565C136.158 167.459 136.334 167.297 136.474 167.082C136.616 166.866 136.686 166.592 136.683 166.259ZM142.087 162.835V163.749H138.892V162.835H142.087ZM139.749 161.433H140.887V166.967C140.887 167.188 140.92 167.355 140.986 167.466C141.052 167.575 141.137 167.65 141.242 167.691C141.348 167.729 141.464 167.748 141.588 167.748C141.68 167.748 141.76 167.742 141.828 167.729C141.897 167.716 141.95 167.706 141.988 167.699L142.194 168.639C142.128 168.665 142.034 168.69 141.912 168.716C141.79 168.743 141.638 168.759 141.455 168.761C141.155 168.766 140.876 168.713 140.617 168.601C140.358 168.49 140.148 168.317 139.988 168.083C139.828 167.85 139.749 167.556 139.749 167.203V161.433ZM145.049 168.815C144.679 168.815 144.343 168.746 144.044 168.609C143.744 168.469 143.507 168.267 143.332 168.003C143.159 167.739 143.073 167.415 143.073 167.032C143.073 166.702 143.136 166.43 143.263 166.217C143.39 166.004 143.561 165.835 143.777 165.71C143.993 165.586 144.234 165.492 144.501 165.429C144.767 165.365 145.039 165.317 145.316 165.284C145.666 165.243 145.951 165.21 146.169 165.185C146.387 165.157 146.546 165.112 146.645 165.052C146.744 164.991 146.794 164.892 146.794 164.754V164.728C146.794 164.395 146.7 164.137 146.512 163.955C146.327 163.772 146.05 163.68 145.682 163.68C145.298 163.68 144.996 163.765 144.775 163.936C144.557 164.103 144.406 164.29 144.322 164.495L143.252 164.252C143.379 163.896 143.564 163.609 143.808 163.391C144.054 163.17 144.337 163.01 144.657 162.911C144.977 162.809 145.313 162.759 145.666 162.759C145.9 162.759 146.148 162.787 146.409 162.842C146.673 162.896 146.919 162.995 147.148 163.14C147.379 163.284 147.568 163.491 147.715 163.76C147.863 164.027 147.936 164.374 147.936 164.8V168.685H146.824V167.885H146.779C146.705 168.032 146.594 168.177 146.447 168.319C146.3 168.462 146.111 168.58 145.88 168.674C145.649 168.768 145.372 168.815 145.049 168.815ZM145.297 167.9C145.612 167.9 145.881 167.838 146.104 167.714C146.33 167.589 146.502 167.427 146.619 167.226C146.738 167.023 146.798 166.806 146.798 166.575V165.821C146.757 165.861 146.678 165.9 146.561 165.935C146.447 165.968 146.316 165.997 146.169 166.023C146.022 166.046 145.878 166.067 145.739 166.087C145.599 166.105 145.482 166.12 145.388 166.133C145.167 166.161 144.966 166.208 144.783 166.274C144.602 166.34 144.458 166.435 144.349 166.56C144.242 166.682 144.189 166.844 144.189 167.047C144.189 167.329 144.293 167.542 144.501 167.687C144.709 167.829 144.974 167.9 145.297 167.9ZM149.453 168.685V162.835H150.546V163.787H150.619C150.741 163.465 150.94 163.213 151.217 163.033C151.493 162.85 151.825 162.759 152.211 162.759C152.602 162.759 152.929 162.85 153.193 163.033C153.46 163.216 153.657 163.467 153.784 163.787H153.845C153.984 163.475 154.207 163.226 154.511 163.04C154.816 162.853 155.179 162.759 155.601 162.759C156.131 162.759 156.564 162.925 156.899 163.258C157.237 163.59 157.406 164.092 157.406 164.762V168.685H156.267V164.869C156.267 164.473 156.159 164.186 155.943 164.008C155.728 163.83 155.47 163.741 155.17 163.741C154.799 163.741 154.511 163.856 154.306 164.084C154.1 164.31 153.997 164.601 153.997 164.956V168.685H152.862V164.796C152.862 164.479 152.763 164.224 152.565 164.031C152.367 163.838 152.109 163.741 151.792 163.741C151.576 163.741 151.377 163.798 151.194 163.913C151.014 164.024 150.868 164.181 150.756 164.381C150.647 164.582 150.592 164.814 150.592 165.078V168.685H149.453ZM160.635 168.815C160.264 168.815 159.929 168.746 159.629 168.609C159.33 168.469 159.092 168.267 158.917 168.003C158.744 167.739 158.658 167.415 158.658 167.032C158.658 166.702 158.722 166.43 158.848 166.217C158.975 166.004 159.147 165.835 159.363 165.71C159.579 165.586 159.82 165.492 160.086 165.429C160.353 165.365 160.625 165.317 160.901 165.284C161.252 165.243 161.536 165.21 161.755 165.185C161.973 165.157 162.132 165.112 162.231 165.052C162.33 164.991 162.379 164.892 162.379 164.754V164.728C162.379 164.395 162.285 164.137 162.097 163.955C161.912 163.772 161.635 163.68 161.267 163.68C160.884 163.68 160.581 163.765 160.361 163.936C160.142 164.103 159.991 164.29 159.907 164.495L158.837 164.252C158.964 163.896 159.149 163.609 159.393 163.391C159.639 163.17 159.923 163.01 160.242 162.911C160.562 162.809 160.899 162.759 161.252 162.759C161.485 162.759 161.733 162.787 161.995 162.842C162.259 162.896 162.505 162.995 162.733 163.14C162.964 163.284 163.154 163.491 163.301 163.76C163.448 164.027 163.522 164.374 163.522 164.8V168.685H162.41V167.885H162.364C162.29 168.032 162.18 168.177 162.033 168.319C161.885 168.462 161.696 168.58 161.465 168.674C161.234 168.768 160.957 168.815 160.635 168.815ZM160.882 167.9C161.197 167.9 161.466 167.838 161.69 167.714C161.916 167.589 162.087 167.427 162.204 167.226C162.323 167.023 162.383 166.806 162.383 166.575V165.821C162.342 165.861 162.264 165.9 162.147 165.935C162.033 165.968 161.902 165.997 161.755 166.023C161.607 166.046 161.464 166.067 161.324 166.087C161.185 166.105 161.068 166.12 160.974 166.133C160.753 166.161 160.551 166.208 160.368 166.274C160.188 166.34 160.043 166.435 159.934 166.56C159.827 166.682 159.774 166.844 159.774 167.047C159.774 167.329 159.878 167.542 160.086 167.687C160.295 167.829 160.56 167.9 160.882 167.9Z" fill="#121926"/>
<path d="M312.549 165.781C312.878 165.781 313.145 165.514 313.145 165.185C313.145 164.856 312.878 164.589 312.549 164.589C312.22 164.589 311.953 164.856 311.953 165.185C311.953 165.514 312.22 165.781 312.549 165.781Z" stroke="#9AA4B2" stroke-width="1.19172" stroke-linecap="round" stroke-linejoin="round"/>
<path d="M312.549 161.61C312.878 161.61 313.145 161.343 313.145 161.014C313.145 160.685 312.878 160.418 312.549 160.418C312.22 160.418 311.953 160.685 311.953 161.014C311.953 161.343 312.22 161.61 312.549 161.61Z" stroke="#9AA4B2" stroke-width="1.19172" stroke-linecap="round" stroke-linejoin="round"/>
<path d="M312.549 169.952C312.878 169.952 313.145 169.685 313.145 169.356C313.145 169.027 312.878 168.76 312.549 168.76C312.22 168.76 311.953 169.027 311.953 169.356C311.953 169.685 312.22 169.952 312.549 169.952Z" stroke="#9AA4B2" stroke-width="1.19172" stroke-linecap="round" stroke-linejoin="round"/>
<path d="M107.08 192.512C107.048 192.232 106.918 192.015 106.689 191.861C106.46 191.705 106.171 191.627 105.824 191.627C105.575 191.627 105.36 191.666 105.178 191.745C104.996 191.822 104.855 191.929 104.754 192.065C104.656 192.199 104.606 192.352 104.606 192.524C104.606 192.668 104.64 192.793 104.707 192.898C104.776 193.002 104.866 193.09 104.977 193.161C105.089 193.23 105.21 193.289 105.338 193.336C105.466 193.381 105.59 193.419 105.708 193.449L106.301 193.603C106.494 193.65 106.693 193.714 106.896 193.795C107.1 193.876 107.288 193.983 107.462 194.115C107.636 194.247 107.776 194.411 107.883 194.607C107.991 194.802 108.046 195.036 108.046 195.309C108.046 195.653 107.957 195.958 107.779 196.224C107.603 196.491 107.348 196.701 107.012 196.855C106.678 197.009 106.274 197.086 105.8 197.086C105.346 197.086 104.953 197.014 104.621 196.87C104.289 196.726 104.03 196.521 103.842 196.257C103.654 195.99 103.551 195.674 103.531 195.309H104.449C104.467 195.528 104.538 195.711 104.663 195.857C104.789 196.001 104.95 196.109 105.145 196.18C105.343 196.249 105.559 196.284 105.794 196.284C106.053 196.284 106.283 196.243 106.484 196.162C106.688 196.079 106.848 195.965 106.964 195.818C107.081 195.67 107.139 195.497 107.139 195.3C107.139 195.12 107.088 194.973 106.985 194.859C106.884 194.744 106.747 194.649 106.573 194.574C106.402 194.499 106.207 194.433 105.99 194.376L105.273 194.18C104.787 194.048 104.402 193.853 104.118 193.597C103.835 193.34 103.694 193 103.694 192.578C103.694 192.228 103.789 191.923 103.978 191.662C104.168 191.402 104.425 191.199 104.749 191.055C105.072 190.909 105.438 190.836 105.845 190.836C106.255 190.836 106.618 190.908 106.932 191.052C107.248 191.196 107.497 191.395 107.678 191.647C107.86 191.898 107.955 192.187 107.963 192.512H107.08ZM110.393 197.086C110.104 197.086 109.844 197.033 109.611 196.926C109.377 196.818 109.193 196.661 109.057 196.455C108.922 196.25 108.855 195.998 108.855 195.7C108.855 195.443 108.904 195.232 109.003 195.066C109.102 194.9 109.235 194.769 109.403 194.672C109.571 194.575 109.759 194.502 109.966 194.453C110.173 194.403 110.385 194.366 110.6 194.34C110.872 194.309 111.094 194.283 111.264 194.263C111.433 194.241 111.557 194.207 111.634 194.159C111.711 194.112 111.749 194.035 111.749 193.928V193.908C111.749 193.649 111.676 193.449 111.53 193.306C111.386 193.164 111.171 193.093 110.884 193.093C110.586 193.093 110.351 193.159 110.179 193.292C110.009 193.422 109.892 193.567 109.827 193.727L108.994 193.537C109.093 193.261 109.237 193.038 109.427 192.868C109.618 192.696 109.839 192.572 110.087 192.495C110.336 192.416 110.598 192.376 110.872 192.376C111.054 192.376 111.247 192.398 111.45 192.441C111.656 192.483 111.847 192.56 112.025 192.672C112.205 192.785 112.352 192.946 112.466 193.155C112.581 193.363 112.638 193.632 112.638 193.964V196.986H111.773V196.363H111.737C111.68 196.478 111.594 196.591 111.48 196.701C111.365 196.812 111.218 196.904 111.038 196.977C110.859 197.05 110.643 197.086 110.393 197.086ZM110.585 196.375C110.83 196.375 111.039 196.327 111.213 196.23C111.389 196.133 111.522 196.007 111.613 195.851C111.706 195.693 111.752 195.524 111.752 195.344V194.758C111.721 194.789 111.659 194.819 111.569 194.847C111.48 194.872 111.378 194.895 111.264 194.915C111.149 194.933 111.037 194.949 110.929 194.965C110.82 194.979 110.729 194.991 110.656 195.001C110.484 195.023 110.327 195.059 110.185 195.11C110.045 195.162 109.932 195.236 109.848 195.333C109.765 195.427 109.723 195.554 109.723 195.712C109.723 195.931 109.804 196.097 109.966 196.209C110.128 196.32 110.334 196.375 110.585 196.375ZM114.704 190.919V196.986H113.818V190.919H114.704ZM117.599 197.074C117.231 197.074 116.903 196.981 116.615 196.793C116.329 196.603 116.104 196.334 115.94 195.984C115.778 195.633 115.697 195.211 115.697 194.719C115.697 194.228 115.779 193.807 115.943 193.457C116.108 193.108 116.336 192.84 116.624 192.655C116.912 192.469 117.239 192.376 117.604 192.376C117.887 192.376 118.114 192.424 118.286 192.518C118.46 192.611 118.594 192.72 118.689 192.844C118.785 192.969 118.861 193.078 118.914 193.173H118.967V190.919H119.853V196.986H118.988V196.278H118.914C118.861 196.374 118.783 196.485 118.683 196.609C118.584 196.734 118.448 196.842 118.274 196.935C118.1 197.028 117.875 197.074 117.599 197.074ZM117.794 196.319C118.049 196.319 118.264 196.252 118.44 196.118C118.618 195.981 118.752 195.793 118.843 195.552C118.936 195.311 118.982 195.03 118.982 194.71C118.982 194.395 118.937 194.118 118.846 193.881C118.755 193.644 118.622 193.459 118.446 193.327C118.27 193.195 118.053 193.129 117.794 193.129C117.527 193.129 117.305 193.198 117.128 193.336C116.95 193.474 116.815 193.663 116.725 193.902C116.636 194.141 116.591 194.41 116.591 194.71C116.591 195.015 116.637 195.288 116.728 195.531C116.818 195.774 116.953 195.967 117.13 196.109C117.31 196.249 117.531 196.319 117.794 196.319ZM123.034 197.077C122.607 197.077 122.235 196.98 121.917 196.784C121.599 196.589 121.352 196.315 121.176 195.964C121.001 195.612 120.913 195.201 120.913 194.731C120.913 194.259 121.001 193.846 121.176 193.493C121.352 193.139 121.599 192.865 121.917 192.669C122.235 192.474 122.607 192.376 123.034 192.376C123.46 192.376 123.833 192.474 124.151 192.669C124.469 192.865 124.715 193.139 124.891 193.493C125.067 193.846 125.155 194.259 125.155 194.731C125.155 195.201 125.067 195.612 124.891 195.964C124.715 196.315 124.469 196.589 124.151 196.784C123.833 196.98 123.46 197.077 123.034 197.077ZM123.037 196.334C123.313 196.334 123.542 196.261 123.724 196.115C123.906 195.969 124.04 195.774 124.127 195.531C124.216 195.288 124.26 195.021 124.26 194.728C124.26 194.438 124.216 194.171 124.127 193.928C124.04 193.684 123.906 193.487 123.724 193.339C123.542 193.191 123.313 193.117 123.037 193.117C122.758 193.117 122.527 193.191 122.344 193.339C122.162 193.487 122.027 193.684 121.938 193.928C121.851 194.171 121.807 194.438 121.807 194.728C121.807 195.021 121.851 195.288 121.938 195.531C122.027 195.774 122.162 195.969 122.344 196.115C122.527 196.261 122.758 196.334 123.037 196.334ZM131.761 193.546L130.958 193.688C130.925 193.586 130.871 193.488 130.798 193.395C130.727 193.302 130.63 193.226 130.508 193.167C130.385 193.108 130.232 193.078 130.049 193.078C129.798 193.078 129.588 193.135 129.421 193.247C129.253 193.358 129.169 193.501 129.169 193.677C129.169 193.829 129.225 193.951 129.338 194.044C129.45 194.137 129.632 194.213 129.883 194.272L130.606 194.438C131.024 194.535 131.336 194.684 131.542 194.885C131.747 195.087 131.85 195.348 131.85 195.67C131.85 195.943 131.771 196.186 131.613 196.399C131.457 196.61 131.239 196.776 130.958 196.897C130.68 197.017 130.357 197.077 129.989 197.077C129.48 197.077 129.064 196.969 128.742 196.752C128.42 196.532 128.223 196.221 128.15 195.818L129.006 195.688C129.059 195.911 129.169 196.08 129.335 196.195C129.501 196.307 129.717 196.363 129.983 196.363C130.274 196.363 130.506 196.303 130.68 196.183C130.853 196.06 130.94 195.911 130.94 195.735C130.94 195.593 130.887 195.474 130.78 195.377C130.676 195.28 130.515 195.207 130.297 195.158L129.527 194.989C129.103 194.892 128.789 194.738 128.585 194.527C128.384 194.316 128.283 194.048 128.283 193.724C128.283 193.455 128.358 193.22 128.508 193.019C128.658 192.818 128.866 192.661 129.13 192.548C129.395 192.433 129.698 192.376 130.04 192.376C130.532 192.376 130.919 192.483 131.201 192.696C131.483 192.907 131.67 193.191 131.761 193.546ZM134.148 197.086C133.859 197.086 133.599 197.033 133.366 196.926C133.133 196.818 132.948 196.661 132.812 196.455C132.678 196.25 132.61 195.998 132.61 195.7C132.61 195.443 132.66 195.232 132.758 195.066C132.857 194.9 132.991 194.769 133.158 194.672C133.326 194.575 133.514 194.502 133.721 194.453C133.929 194.403 134.14 194.366 134.355 194.34C134.628 194.309 134.849 194.283 135.019 194.263C135.189 194.241 135.312 194.207 135.389 194.159C135.466 194.112 135.505 194.035 135.505 193.928V193.908C135.505 193.649 135.432 193.449 135.285 193.306C135.141 193.164 134.926 193.093 134.64 193.093C134.341 193.093 134.106 193.159 133.935 193.292C133.765 193.422 133.647 193.567 133.582 193.727L132.75 193.537C132.848 193.261 132.993 193.038 133.182 192.868C133.374 192.696 133.594 192.572 133.843 192.495C134.092 192.416 134.353 192.376 134.628 192.376C134.809 192.376 135.002 192.398 135.205 192.441C135.411 192.483 135.602 192.56 135.78 192.672C135.96 192.785 136.107 192.946 136.221 193.155C136.336 193.363 136.393 193.632 136.393 193.964V196.986H135.528V196.363H135.493C135.435 196.478 135.35 196.591 135.235 196.701C135.12 196.812 134.973 196.904 134.794 196.977C134.614 197.05 134.399 197.086 134.148 197.086ZM134.34 196.375C134.585 196.375 134.795 196.327 134.968 196.23C135.144 196.133 135.277 196.007 135.368 195.851C135.461 195.693 135.508 195.524 135.508 195.344V194.758C135.476 194.789 135.415 194.819 135.324 194.847C135.235 194.872 135.133 194.895 135.019 194.915C134.904 194.933 134.793 194.949 134.684 194.965C134.575 194.979 134.485 194.991 134.411 195.001C134.24 195.023 134.083 195.059 133.94 195.11C133.8 195.162 133.688 195.236 133.603 195.333C133.52 195.427 133.478 195.554 133.478 195.712C133.478 195.931 133.559 196.097 133.721 196.209C133.883 196.32 134.09 196.375 134.34 196.375ZM138.897 197.086C138.609 197.086 138.348 197.033 138.115 196.926C137.882 196.818 137.697 196.661 137.561 196.455C137.427 196.25 137.36 195.998 137.36 195.7C137.36 195.443 137.409 195.232 137.508 195.066C137.607 194.9 137.74 194.769 137.908 194.672C138.076 194.575 138.263 194.502 138.471 194.453C138.678 194.403 138.889 194.366 139.105 194.34C139.377 194.309 139.598 194.283 139.768 194.263C139.938 194.241 140.061 194.207 140.138 194.159C140.216 194.112 140.254 194.035 140.254 193.928V193.908C140.254 193.649 140.181 193.449 140.035 193.306C139.891 193.164 139.675 193.093 139.389 193.093C139.091 193.093 138.856 193.159 138.684 193.292C138.514 193.422 138.397 193.567 138.331 193.727L137.499 193.537C137.598 193.261 137.742 193.038 137.932 192.868C138.123 192.696 138.343 192.572 138.592 192.495C138.841 192.416 139.103 192.376 139.377 192.376C139.559 192.376 139.751 192.398 139.955 192.441C140.16 192.483 140.352 192.56 140.53 192.672C140.709 192.785 140.856 192.946 140.971 193.155C141.085 193.363 141.143 193.632 141.143 193.964V196.986H140.278V196.363H140.242C140.185 196.478 140.099 196.591 139.984 196.701C139.87 196.812 139.723 196.904 139.543 196.977C139.363 197.05 139.148 197.086 138.897 197.086ZM139.09 196.375C139.335 196.375 139.544 196.327 139.718 196.23C139.894 196.133 140.027 196.007 140.118 195.851C140.211 195.693 140.257 195.524 140.257 195.344V194.758C140.225 194.789 140.164 194.819 140.073 194.847C139.984 194.872 139.883 194.895 139.768 194.915C139.654 194.933 139.542 194.949 139.433 194.965C139.325 194.979 139.234 194.991 139.161 195.001C138.989 195.023 138.832 195.059 138.69 195.11C138.55 195.162 138.437 195.236 138.352 195.333C138.269 195.427 138.228 195.554 138.228 195.712C138.228 195.931 138.309 196.097 138.471 196.209C138.633 196.32 138.839 196.375 139.09 196.375ZM144.447 192.435V193.146H141.961V192.435H144.447ZM142.628 191.345H143.513V195.65C143.513 195.821 143.539 195.951 143.59 196.038C143.642 196.123 143.708 196.181 143.789 196.212C143.872 196.242 143.962 196.257 144.058 196.257C144.13 196.257 144.192 196.252 144.245 196.242C144.298 196.232 144.34 196.224 144.369 196.218L144.529 196.95C144.478 196.97 144.405 196.99 144.31 197.009C144.215 197.031 144.097 197.043 143.955 197.045C143.722 197.049 143.504 197.007 143.303 196.92C143.102 196.834 142.939 196.699 142.814 196.518C142.69 196.336 142.628 196.108 142.628 195.833V191.345ZM147.634 196.986V192.435H148.52V196.986H147.634ZM148.081 191.733C147.927 191.733 147.795 191.682 147.684 191.579C147.576 191.475 147.521 191.35 147.521 191.206C147.521 191.06 147.576 190.935 147.684 190.833C147.795 190.728 147.927 190.676 148.081 190.676C148.235 190.676 148.367 190.728 148.475 190.833C148.586 190.935 148.641 191.06 148.641 191.206C148.641 191.35 148.586 191.475 148.475 191.579C148.367 191.682 148.235 191.733 148.081 191.733ZM150.597 194.284V196.986H149.711V192.435H150.562V193.176H150.618C150.723 192.935 150.886 192.742 151.11 192.595C151.335 192.449 151.618 192.376 151.96 192.376C152.27 192.376 152.541 192.441 152.774 192.572C153.008 192.7 153.188 192.892 153.317 193.146C153.445 193.401 153.509 193.716 153.509 194.091V196.986H152.623V194.198C152.623 193.868 152.537 193.61 152.366 193.425C152.194 193.237 151.958 193.143 151.658 193.143C151.452 193.143 151.27 193.188 151.11 193.277C150.952 193.366 150.826 193.496 150.733 193.668C150.643 193.838 150.597 194.043 150.597 194.284ZM154.697 196.986V192.435H155.583V196.986H154.697ZM155.144 191.733C154.99 191.733 154.858 191.682 154.747 191.579C154.639 191.475 154.584 191.35 154.584 191.206C154.584 191.06 154.639 190.935 154.747 190.833C154.858 190.728 154.99 190.676 155.144 190.676C155.298 190.676 155.43 190.728 155.538 190.833C155.649 190.935 155.704 191.06 155.704 191.206C155.704 191.35 155.649 191.475 155.538 191.579C155.43 191.682 155.298 191.733 155.144 191.733Z" fill="#697586"/>
<path d="M104.533 222.752V209.752H109.167C110.174 209.752 111.01 209.925 111.674 210.272C112.343 210.619 112.842 211.1 113.172 211.713C113.502 212.323 113.667 213.027 113.667 213.827C113.667 214.623 113.5 215.323 113.166 215.928C112.836 216.529 112.336 216.997 111.668 217.331C111.003 217.666 110.168 217.833 109.16 217.833H105.65V216.144H108.983C109.617 216.144 110.134 216.053 110.531 215.871C110.934 215.689 111.228 215.425 111.414 215.078C111.6 214.731 111.693 214.314 111.693 213.827C111.693 213.336 111.598 212.911 111.408 212.551C111.221 212.192 110.927 211.917 110.525 211.726C110.127 211.531 109.605 211.434 108.957 211.434H106.494V222.752H104.533ZM110.95 216.887L114.163 222.752H111.928L108.779 216.887H110.95ZM115.902 226.409V213.002H117.755V214.583H117.914C118.024 214.38 118.183 214.145 118.39 213.878C118.598 213.611 118.885 213.379 119.254 213.18C119.622 212.977 120.108 212.875 120.714 212.875C121.501 212.875 122.203 213.074 122.821 213.472C123.439 213.87 123.924 214.443 124.275 215.192C124.63 215.941 124.808 216.843 124.808 217.896C124.808 218.95 124.632 219.854 124.281 220.607C123.93 221.356 123.447 221.934 122.834 222.34C122.22 222.742 121.52 222.943 120.733 222.943C120.14 222.943 119.656 222.843 119.279 222.645C118.907 222.446 118.615 222.213 118.403 221.946C118.191 221.68 118.028 221.443 117.914 221.235H117.8V226.409H115.902ZM117.762 217.877C117.762 218.563 117.861 219.164 118.06 219.68C118.259 220.196 118.547 220.6 118.923 220.892C119.3 221.18 119.761 221.324 120.307 221.324C120.874 221.324 121.348 221.174 121.729 220.873C122.11 220.569 122.398 220.156 122.593 219.636C122.791 219.115 122.891 218.529 122.891 217.877C122.891 217.234 122.794 216.656 122.599 216.144C122.408 215.632 122.121 215.228 121.736 214.932C121.355 214.636 120.879 214.487 120.307 214.487C119.757 214.487 119.292 214.629 118.911 214.913C118.534 215.196 118.248 215.592 118.054 216.1C117.859 216.608 117.762 217.2 117.762 217.877ZM131.2 222.93C130.405 222.93 129.69 222.778 129.055 222.473C128.424 222.164 127.921 221.741 127.544 221.204C127.167 220.666 126.966 220.052 126.941 219.363H128.845C128.892 219.921 129.139 220.38 129.588 220.74C130.037 221.1 130.574 221.28 131.2 221.28C131.7 221.28 132.142 221.165 132.527 220.937C132.916 220.704 133.221 220.385 133.441 219.978C133.665 219.572 133.778 219.109 133.778 218.588C133.778 218.059 133.663 217.587 133.435 217.173C133.206 216.758 132.891 216.432 132.489 216.195C132.091 215.958 131.634 215.837 131.118 215.833C130.724 215.833 130.329 215.901 129.931 216.036C129.533 216.172 129.211 216.349 128.966 216.57L127.169 216.303L127.899 209.752H135.047V211.434H129.531L129.118 215.071H129.194C129.448 214.826 129.785 214.621 130.204 214.456C130.627 214.291 131.08 214.208 131.562 214.208C132.354 214.208 133.058 214.396 133.676 214.773C134.298 215.15 134.787 215.664 135.142 216.316C135.502 216.963 135.68 217.708 135.676 218.55C135.68 219.392 135.489 220.143 135.104 220.804C134.723 221.464 134.194 221.984 133.517 222.365C132.844 222.742 132.072 222.93 131.2 222.93ZM138.432 222.752L144.107 211.529V211.434H137.544V209.752H146.139V211.491L140.483 222.752H138.432ZM147.388 222.873C147.041 222.873 146.742 222.75 146.493 222.505C146.243 222.255 146.118 221.955 146.118 221.603C146.118 221.256 146.243 220.96 146.493 220.715C146.742 220.465 147.041 220.34 147.388 220.34C147.735 220.34 148.033 220.465 148.283 220.715C148.532 220.96 148.657 221.256 148.657 221.603C148.657 221.836 148.598 222.05 148.479 222.245C148.365 222.435 148.213 222.587 148.022 222.702C147.832 222.816 147.62 222.873 147.388 222.873ZM151.174 222.752V221.331L155.573 216.773C156.043 216.278 156.43 215.844 156.735 215.471C157.044 215.095 157.275 214.737 157.427 214.399C157.579 214.06 157.655 213.7 157.655 213.319C157.655 212.888 157.554 212.515 157.351 212.202C157.148 211.885 156.87 211.641 156.519 211.472C156.168 211.299 155.772 211.212 155.332 211.212C154.867 211.212 154.46 211.307 154.113 211.498C153.766 211.688 153.5 211.957 153.313 212.304C153.127 212.651 153.034 213.057 153.034 213.523H151.161C151.161 212.731 151.343 212.039 151.707 211.447C152.071 210.854 152.571 210.395 153.205 210.069C153.84 209.739 154.562 209.574 155.37 209.574C156.187 209.574 156.906 209.737 157.528 210.063C158.155 210.385 158.644 210.825 158.995 211.383C159.346 211.938 159.522 212.564 159.522 213.262C159.522 213.745 159.431 214.217 159.249 214.678C159.071 215.139 158.76 215.653 158.316 216.22C157.871 216.783 157.253 217.467 156.462 218.271L153.878 220.975V221.07H159.731V222.752H151.174ZM166.428 222.93C165.633 222.93 164.917 222.778 164.283 222.473C163.652 222.164 163.148 221.741 162.772 221.204C162.395 220.666 162.194 220.052 162.169 219.363H164.073C164.12 219.921 164.367 220.38 164.816 220.74C165.264 221.1 165.802 221.28 166.428 221.28C166.928 221.28 167.37 221.165 167.755 220.937C168.144 220.704 168.449 220.385 168.669 219.978C168.893 219.572 169.006 219.109 169.006 218.588C169.006 218.059 168.891 217.587 168.663 217.173C168.434 216.758 168.119 216.432 167.717 216.195C167.319 215.958 166.862 215.837 166.346 215.833C165.952 215.833 165.556 215.901 165.159 216.036C164.761 216.172 164.439 216.349 164.194 216.57L162.397 216.303L163.127 209.752H170.275V211.434H164.759L164.346 215.071H164.422C164.676 214.826 165.013 214.621 165.432 214.456C165.855 214.291 166.308 214.208 166.79 214.208C167.581 214.208 168.286 214.396 168.904 214.773C169.526 215.15 170.015 215.664 170.37 216.316C170.73 216.963 170.908 217.708 170.904 218.55C170.908 219.392 170.717 220.143 170.332 220.804C169.951 221.464 169.422 221.984 168.745 222.365C168.072 222.742 167.3 222.93 166.428 222.93ZM177.748 222.968C176.745 222.964 175.888 222.7 175.177 222.175C174.466 221.65 173.923 220.886 173.546 219.883C173.169 218.88 172.981 217.672 172.981 216.259C172.981 214.849 173.169 213.645 173.546 212.647C173.927 211.648 174.473 210.886 175.184 210.361C175.899 209.837 176.754 209.574 177.748 209.574C178.743 209.574 179.595 209.839 180.306 210.368C181.017 210.892 181.561 211.654 181.938 212.653C182.319 213.647 182.509 214.849 182.509 216.259C182.509 217.676 182.321 218.887 181.944 219.89C181.568 220.888 181.024 221.652 180.313 222.181C179.602 222.706 178.747 222.968 177.748 222.968ZM177.748 221.273C178.628 221.273 179.316 220.844 179.811 219.985C180.311 219.126 180.56 217.884 180.56 216.259C180.56 215.179 180.446 214.267 180.218 213.523C179.993 212.773 179.67 212.206 179.246 211.821C178.827 211.432 178.328 211.237 177.748 211.237C176.872 211.237 176.184 211.669 175.685 212.532C175.186 213.396 174.934 214.638 174.93 216.259C174.93 217.342 175.042 218.258 175.266 219.007C175.495 219.752 175.818 220.317 176.237 220.702C176.656 221.083 177.16 221.273 177.748 221.273ZM185.566 222.873C185.219 222.873 184.92 222.75 184.671 222.505C184.421 222.255 184.296 221.955 184.296 221.603C184.296 221.256 184.421 220.96 184.671 220.715C184.92 220.465 185.219 220.34 185.566 220.34C185.913 220.34 186.211 220.465 186.461 220.715C186.71 220.96 186.835 221.256 186.835 221.603C186.835 221.836 186.776 222.05 186.658 222.245C186.543 222.435 186.391 222.587 186.2 222.702C186.01 222.816 185.798 222.873 185.566 222.873ZM193.407 222.968C192.404 222.964 191.547 222.7 190.836 222.175C190.125 221.65 189.581 220.886 189.205 219.883C188.828 218.88 188.64 217.672 188.64 216.259C188.64 214.849 188.828 213.645 189.205 212.647C189.586 211.648 190.131 210.886 190.842 210.361C191.558 209.837 192.412 209.574 193.407 209.574C194.401 209.574 195.254 209.839 195.965 210.368C196.676 210.892 197.22 211.654 197.597 212.653C197.977 213.647 198.168 214.849 198.168 216.259C198.168 217.676 197.98 218.887 197.603 219.89C197.226 220.888 196.683 221.652 195.972 222.181C195.261 222.706 194.406 222.968 193.407 222.968ZM193.407 221.273C194.287 221.273 194.975 220.844 195.47 219.985C195.969 219.126 196.219 217.884 196.219 216.259C196.219 215.179 196.105 214.267 195.876 213.523C195.652 212.773 195.328 212.206 194.905 211.821C194.486 211.432 193.987 211.237 193.407 211.237C192.531 211.237 191.843 211.669 191.344 212.532C190.845 213.396 190.593 214.638 190.588 216.259C190.588 217.342 190.701 218.258 190.925 219.007C191.153 219.752 191.477 220.317 191.896 220.702C192.315 221.083 192.819 221.273 193.407 221.273ZM204.946 222.968C203.943 222.964 203.086 222.7 202.375 222.175C201.664 221.65 201.12 220.886 200.744 219.883C200.367 218.88 200.179 217.672 200.179 216.259C200.179 214.849 200.367 213.645 200.744 212.647C201.124 211.648 201.67 210.886 202.381 210.361C203.097 209.837 203.951 209.574 204.946 209.574C205.94 209.574 206.793 209.839 207.504 210.368C208.215 210.892 208.759 211.654 209.136 212.653C209.516 213.647 209.707 214.849 209.707 216.259C209.707 217.676 209.519 218.887 209.142 219.89C208.765 220.888 208.221 221.652 207.51 222.181C206.8 222.706 205.945 222.968 204.946 222.968ZM204.946 221.273C205.826 221.273 206.514 220.844 207.009 219.985C207.508 219.126 207.758 217.884 207.758 216.259C207.758 215.179 207.644 214.267 207.415 213.523C207.191 212.773 206.867 212.206 206.444 211.821C206.025 211.432 205.526 211.237 204.946 211.237C204.07 211.237 203.382 211.669 202.883 212.532C202.383 213.396 202.132 214.638 202.127 216.259C202.127 217.342 202.24 218.258 202.464 219.007C202.692 219.752 203.016 220.317 203.435 220.702C203.854 221.083 204.358 221.273 204.946 221.273ZM216.485 222.968C215.482 222.964 214.625 222.7 213.914 222.175C213.203 221.65 212.659 220.886 212.283 219.883C211.906 218.88 211.718 217.672 211.718 216.259C211.718 214.849 211.906 213.645 212.283 212.647C212.663 211.648 213.209 210.886 213.92 210.361C214.636 209.837 215.49 209.574 216.485 209.574C217.479 209.574 218.332 209.839 219.043 210.368C219.754 210.892 220.298 211.654 220.675 212.653C221.055 213.647 221.246 214.849 221.246 216.259C221.246 217.676 221.058 218.887 220.681 219.89C220.304 220.888 219.76 221.652 219.049 222.181C218.338 222.706 217.484 222.968 216.485 222.968ZM216.485 221.273C217.365 221.273 218.053 220.844 218.548 219.985C219.047 219.126 219.297 217.884 219.297 216.259C219.297 215.179 219.183 214.267 218.954 213.523C218.73 212.773 218.406 212.206 217.983 211.821C217.564 211.432 217.065 211.237 216.485 211.237C215.609 211.237 214.921 211.669 214.422 212.532C213.922 213.396 213.671 214.638 213.666 216.259C213.666 217.342 213.779 218.258 214.003 219.007C214.231 219.752 214.555 220.317 214.974 220.702C215.393 221.083 215.897 221.273 216.485 221.273Z" fill="#121926"/>
<rect x="280.44" y="209.061" width="39.2592" height="14.3834" rx="7.19172" fill="#EDFCF2"/>
<path d="M289.974 218.338V214.167M289.974 214.167L287.888 216.252M289.974 214.167L292.059 216.252" stroke="#16B364" stroke-width="0.893789" stroke-linecap="round" stroke-linejoin="round"/>
<path d="M296.72 219.252L299.369 214.015V213.971H296.306V213.186H300.317V213.997L297.677 219.252H296.72ZM300.9 219.309C300.738 219.309 300.598 219.251 300.482 219.137C300.365 219.02 300.307 218.88 300.307 218.716C300.307 218.554 300.365 218.416 300.482 218.302C300.598 218.185 300.738 218.127 300.9 218.127C301.062 218.127 301.201 218.185 301.317 218.302C301.434 218.416 301.492 218.554 301.492 218.716C301.492 218.825 301.464 218.925 301.409 219.015C301.356 219.104 301.285 219.175 301.196 219.229C301.107 219.282 301.008 219.309 300.9 219.309ZM302.667 219.252V218.589L304.72 216.462C304.939 216.231 305.12 216.028 305.262 215.855C305.406 215.679 305.514 215.512 305.585 215.354C305.656 215.196 305.691 215.028 305.691 214.85C305.691 214.649 305.644 214.475 305.549 214.329C305.454 214.181 305.325 214.067 305.161 213.988C304.997 213.907 304.812 213.867 304.607 213.867C304.39 213.867 304.2 213.911 304.038 214C303.876 214.089 303.752 214.214 303.665 214.376C303.578 214.538 303.535 214.728 303.535 214.945H302.661C302.661 214.576 302.746 214.253 302.916 213.976C303.085 213.7 303.318 213.486 303.615 213.334C303.911 213.18 304.248 213.103 304.625 213.103C305.006 213.103 305.342 213.179 305.632 213.331C305.924 213.481 306.152 213.686 306.316 213.947C306.48 214.206 306.562 214.498 306.562 214.824C306.562 215.049 306.52 215.269 306.435 215.484C306.352 215.7 306.207 215.94 305.999 216.204C305.792 216.467 305.504 216.786 305.134 217.161L303.929 218.423V218.467H306.66V219.252H302.667ZM310.949 218.115V217.795C310.949 217.566 310.997 217.357 311.092 217.167C311.188 216.975 311.329 216.822 311.512 216.708C311.698 216.591 311.922 216.533 312.185 216.533C312.453 216.533 312.678 216.59 312.86 216.705C313.042 216.819 313.179 216.972 313.272 217.164C313.367 217.356 313.414 217.566 313.414 217.795V218.115C313.414 218.344 313.367 218.554 313.272 218.746C313.177 218.935 313.038 219.089 312.854 219.205C312.673 219.32 312.449 219.377 312.185 219.377C311.918 219.377 311.693 219.32 311.509 219.205C311.326 219.089 311.186 218.935 311.092 218.746C310.997 218.554 310.949 218.344 310.949 218.115ZM311.64 217.795V218.115C311.64 218.285 311.68 218.439 311.761 218.577C311.842 218.715 311.983 218.784 312.185 218.784C312.384 218.784 312.523 218.715 312.602 218.577C312.681 218.439 312.721 218.285 312.721 218.115V217.795C312.721 217.625 312.682 217.471 312.605 217.333C312.53 217.195 312.39 217.125 312.185 217.125C311.987 217.125 311.847 217.195 311.764 217.333C311.681 217.471 311.64 217.625 311.64 217.795ZM307.898 214.643V214.323C307.898 214.094 307.946 213.884 308.04 213.692C308.137 213.501 308.277 213.347 308.461 213.233C308.647 213.118 308.871 213.061 309.134 213.061C309.402 213.061 309.627 213.118 309.809 213.233C309.991 213.347 310.128 213.501 310.221 213.692C310.314 213.884 310.36 214.094 310.36 214.323V214.643C310.36 214.872 310.313 215.082 310.218 215.274C310.125 215.464 309.987 215.617 309.803 215.733C309.621 215.848 309.398 215.905 309.134 215.905C308.865 215.905 308.639 215.848 308.455 215.733C308.273 215.617 308.135 215.464 308.04 215.274C307.946 215.082 307.898 214.872 307.898 214.643ZM308.591 214.323V214.643C308.591 214.813 308.631 214.967 308.71 215.105C308.791 215.243 308.932 215.312 309.134 215.312C309.331 215.312 309.469 215.243 309.548 215.105C309.629 214.967 309.67 214.813 309.67 214.643V214.323C309.67 214.153 309.631 213.999 309.554 213.861C309.477 213.723 309.337 213.654 309.134 213.654C308.936 213.654 308.796 213.723 308.713 213.861C308.632 213.999 308.591 214.153 308.591 214.323ZM308.18 219.252L312.351 213.186H313.059L308.888 219.252H308.18Z" fill="#087443"/>
</g>
<defs>
<filter id="filter0_dd_387_951" x="0.923077" y="0.615385" width="335.154" height="120.538" filterUnits="userSpaceOnUse" color-interpolation-filters="sRGB">
<feFlood flood-opacity="0" result="BackgroundImageFix"/>
<feColorMatrix in="SourceAlpha" type="matrix" values="0 0 0 0 0 0 0 0 0 0 0 0 0 0 0 0 0 0 127 0" result="hardAlpha"/>
<feOffset dy="0.692308"/>
<feGaussianBlur stdDeviation="0.692308"/>
<feColorMatrix type="matrix" values="0 0 0 0 0.0627451 0 0 0 0 0.0941176 0 0 0 0 0.156863 0 0 0 0.06 0"/>
<feBlend mode="normal" in2="BackgroundImageFix" result="effect1_dropShadow_387_951"/>
<feColorMatrix in="SourceAlpha" type="matrix" values="0 0 0 0 0 0 0 0 0 0 0 0 0 0 0 0 0 0 127 0" result="hardAlpha"/>
<feOffset dy="0.692308"/>
<feGaussianBlur stdDeviation="1.03846"/>
<feColorMatrix type="matrix" values="0 0 0 0 0.0627451 0 0 0 0 0.0941176 0 0 0 0 0.156863 0 0 0 0.1 0"/>
<feBlend mode="normal" in2="effect1_dropShadow_387_951" result="effect2_dropShadow_387_951"/>
<feBlend mode="normal" in="SourceGraphic" in2="effect2_dropShadow_387_951" result="shape"/>
</filter>
<filter id="filter1_dd_387_951" x="1.21242" y="141.193" width="334.575" height="141.302" filterUnits="userSpaceOnUse" color-interpolation-filters="sRGB">
<feFlood flood-opacity="0" result="BackgroundImageFix"/>
<feColorMatrix in="SourceAlpha" type="matrix" values="0 0 0 0 0 0 0 0 0 0 0 0 0 0 0 0 0 0 127 0" result="hardAlpha"/>
<feOffset dy="0.59586"/>
<feGaussianBlur stdDeviation="0.59586"/>
<feColorMatrix type="matrix" values="0 0 0 0 0.0627451 0 0 0 0 0.0941176 0 0 0 0 0.156863 0 0 0 0.06 0"/>
<feBlend mode="normal" in2="BackgroundImageFix" result="effect1_dropShadow_387_951"/>
<feColorMatrix in="SourceAlpha" type="matrix" values="0 0 0 0 0 0 0 0 0 0 0 0 0 0 0 0 0 0 127 0" result="hardAlpha"/>
<feOffset dy="0.59586"/>
<feGaussianBlur stdDeviation="0.893789"/>
<feColorMatrix type="matrix" values="0 0 0 0 0.0627451 0 0 0 0 0.0941176 0 0 0 0 0.156863 0 0 0 0.1 0"/>
<feBlend mode="normal" in2="effect1_dropShadow_387_951" result="effect2_dropShadow_387_951"/>
<feBlend mode="normal" in="SourceGraphic" in2="effect2_dropShadow_387_951" result="shape"/>
</filter>
</defs>
</svg>
