<svg width="330" height="164" viewBox="0 0 330 164" fill="none" xmlns="http://www.w3.org/2000/svg">
<g filter="url(#filter0_dd_363_885)">
<g clip-path="url(#clip0_363_885)">
<rect x="2" y="2" width="326" height="158.9" rx="3.178" fill="white"/>
<path d="M15.4738 25.7119V18.7781H18.0131C18.5051 18.7781 18.9125 18.8593 19.2353 19.0219C19.558 19.1821 19.7995 19.3999 19.9598 19.6753C20.1201 19.9484 20.2002 20.2565 20.2002 20.5996C20.2002 20.8885 20.1471 21.1322 20.0411 21.3309C19.935 21.5272 19.7928 21.6852 19.6145 21.8049C19.4384 21.9222 19.2443 22.008 19.0321 22.0622V22.1299C19.2624 22.1412 19.4869 22.2157 19.7059 22.3533C19.9271 22.4888 20.1099 22.6818 20.2544 22.9323C20.3988 23.1828 20.471 23.4875 20.471 23.8464C20.471 24.2008 20.3875 24.519 20.2205 24.8012C20.0557 25.0811 19.8007 25.3034 19.4553 25.4681C19.11 25.6307 18.6687 25.7119 18.1315 25.7119H15.4738ZM16.52 24.8147H18.03C18.5311 24.8147 18.8899 24.7177 19.1066 24.5235C19.3233 24.3294 19.4316 24.0868 19.4316 23.7956C19.4316 23.5767 19.3763 23.3758 19.2657 23.193C19.1551 23.0102 18.9971 22.8646 18.7918 22.7562C18.5886 22.6479 18.3471 22.5937 18.0672 22.5937H16.52V24.8147ZM16.52 21.7778H17.9216C18.1564 21.7778 18.3674 21.7326 18.5548 21.6424C18.7444 21.5521 18.8945 21.4257 19.005 21.2632C19.1179 21.0984 19.1743 20.9043 19.1743 20.6808C19.1743 20.3942 19.0739 20.1538 18.873 19.9597C18.6721 19.7656 18.364 19.6685 17.9487 19.6685H16.52V21.7778ZM23.144 25.827C22.8145 25.827 22.5165 25.7661 22.2502 25.6442C21.9839 25.5201 21.7728 25.3406 21.6171 25.1059C21.4636 24.8711 21.3869 24.5834 21.3869 24.2425C21.3869 23.9491 21.4433 23.7076 21.5561 23.518C21.669 23.3284 21.8214 23.1783 22.0132 23.0677C22.2051 22.9571 22.4195 22.8736 22.6565 22.8172C22.8935 22.7608 23.135 22.7179 23.381 22.6885C23.6925 22.6524 23.9453 22.6231 24.1394 22.6005C24.3335 22.5757 24.4746 22.5362 24.5626 22.482C24.6506 22.4278 24.6946 22.3398 24.6946 22.2179V22.1942C24.6946 21.8985 24.6111 21.6694 24.4441 21.5069C24.2793 21.3444 24.0333 21.2632 23.706 21.2632C23.3652 21.2632 23.0966 21.3388 22.9002 21.49C22.7061 21.639 22.5718 21.8049 22.4974 21.9877L21.546 21.771C21.6588 21.455 21.8236 21.2 22.0403 21.0059C22.2592 20.8095 22.5109 20.6673 22.7953 20.5793C23.0797 20.489 23.3788 20.4438 23.6925 20.4438C23.9001 20.4438 24.1202 20.4687 24.3527 20.5183C24.5874 20.5657 24.8064 20.6537 25.0095 20.7824C25.2149 20.9111 25.3831 21.095 25.514 21.3343C25.6449 21.5713 25.7103 21.8794 25.7103 22.2585V25.7119H24.7217V25.0009H24.6811C24.6156 25.1318 24.5175 25.2605 24.3866 25.3869C24.2556 25.5133 24.0875 25.6182 23.8821 25.7018C23.6767 25.7853 23.4307 25.827 23.144 25.827ZM23.3641 25.0145C23.644 25.0145 23.8832 24.9592 24.0818 24.8486C24.2827 24.738 24.4351 24.5935 24.5389 24.4152C24.645 24.2346 24.698 24.0417 24.698 23.8363V23.1659C24.6619 23.202 24.5919 23.2359 24.4881 23.2675C24.3866 23.2968 24.2703 23.3228 24.1394 23.3453C24.0085 23.3657 23.881 23.3848 23.7568 23.4029C23.6327 23.4187 23.5289 23.4322 23.4453 23.4435C23.249 23.4684 23.0695 23.5101 22.907 23.5688C22.7468 23.6275 22.6181 23.7121 22.5211 23.8227C22.4263 23.9311 22.3789 24.0755 22.3789 24.2561C22.3789 24.5066 22.4714 24.6962 22.6565 24.8249C22.8416 24.9513 23.0774 25.0145 23.3641 25.0145ZM28.071 18.7781V25.7119H27.0587V18.7781H28.071ZM30.9463 25.827C30.6167 25.827 30.3188 25.7661 30.0524 25.6442C29.7861 25.5201 29.5751 25.3406 29.4193 25.1059C29.2658 24.8711 29.1891 24.5834 29.1891 24.2425C29.1891 23.9491 29.2455 23.7076 29.3584 23.518C29.4712 23.3284 29.6236 23.1783 29.8154 23.0677C30.0073 22.9571 30.2217 22.8736 30.4587 22.8172C30.6957 22.7608 30.9372 22.7179 31.1833 22.6885C31.4947 22.6524 31.7475 22.6231 31.9416 22.6005C32.1358 22.5757 32.2768 22.5362 32.3648 22.482C32.4529 22.4278 32.4969 22.3398 32.4969 22.2179V22.1942C32.4969 21.8985 32.4134 21.6694 32.2464 21.5069C32.0816 21.3444 31.8356 21.2632 31.5083 21.2632C31.1675 21.2632 30.8989 21.3388 30.7025 21.49C30.5084 21.639 30.3741 21.8049 30.2996 21.9877L29.3482 21.771C29.4611 21.455 29.6259 21.2 29.8425 21.0059C30.0615 20.8095 30.3131 20.6673 30.5975 20.5793C30.8819 20.489 31.181 20.4438 31.4947 20.4438C31.7024 20.4438 31.9225 20.4687 32.1549 20.5183C32.3897 20.5657 32.6086 20.6537 32.8118 20.7824C33.0172 20.9111 33.1853 21.095 33.3162 21.3343C33.4471 21.5713 33.5126 21.8794 33.5126 22.2585V25.7119H32.524V25.0009H32.4833C32.4179 25.1318 32.3197 25.2605 32.1888 25.3869C32.0579 25.5133 31.8897 25.6182 31.6843 25.7018C31.4789 25.7853 31.2329 25.827 30.9463 25.827ZM31.1663 25.0145C31.4462 25.0145 31.6855 24.9592 31.8841 24.8486C32.085 24.738 32.2373 24.5935 32.3411 24.4152C32.4472 24.2346 32.5003 24.0417 32.5003 23.8363V23.1659C32.4642 23.202 32.3942 23.2359 32.2904 23.2675C32.1888 23.2968 32.0726 23.3228 31.9416 23.3453C31.8107 23.3657 31.6832 23.3848 31.5591 23.4029C31.4349 23.4187 31.3311 23.4322 31.2476 23.4435C31.0512 23.4684 30.8718 23.5101 30.7093 23.5688C30.549 23.6275 30.4204 23.7121 30.3233 23.8227C30.2285 23.9311 30.1811 24.0755 30.1811 24.2561C30.1811 24.5066 30.2736 24.6962 30.4587 24.8249C30.6438 24.9513 30.8797 25.0145 31.1663 25.0145ZM35.8732 22.6242V25.7119H34.8609V20.5115H35.8326V21.358H35.8969C36.0166 21.0826 36.2039 20.8614 36.459 20.6944C36.7163 20.5273 37.0402 20.4438 37.4306 20.4438C37.785 20.4438 38.0954 20.5183 38.3617 20.6673C38.628 20.814 38.8346 21.0329 38.9813 21.3241C39.128 21.6153 39.2013 21.9753 39.2013 22.4041V25.7119H38.189V22.526C38.189 22.1491 38.0908 21.8545 37.8945 21.6424C37.6981 21.4279 37.4284 21.3207 37.0853 21.3207C36.8506 21.3207 36.6418 21.3715 36.459 21.4731C36.2784 21.5746 36.1351 21.7236 36.029 21.92C35.9252 22.1141 35.8732 22.3488 35.8732 22.6242ZM42.7495 25.8169C42.2462 25.8169 41.8128 25.7029 41.4494 25.4749C41.0883 25.2447 40.8107 24.9276 40.6165 24.5235C40.4224 24.1195 40.3254 23.6568 40.3254 23.1354C40.3254 22.6073 40.4247 22.1412 40.6233 21.7372C40.8219 21.3309 41.1018 21.0138 41.463 20.7858C41.8241 20.5578 42.2496 20.4438 42.7393 20.4438C43.1343 20.4438 43.4864 20.5172 43.7957 20.6639C44.1049 20.8084 44.3543 21.0115 44.5439 21.2733C44.7358 21.5351 44.8497 21.841 44.8859 22.1908H43.9006C43.8465 21.9471 43.7223 21.7372 43.5282 21.5611C43.3364 21.385 43.079 21.297 42.7563 21.297C42.4741 21.297 42.227 21.3715 42.0148 21.5205C41.8049 21.6672 41.6413 21.8771 41.5239 22.1502C41.4065 22.4211 41.3478 22.7416 41.3478 23.1117C41.3478 23.4909 41.4054 23.8182 41.5205 24.0936C41.6356 24.3689 41.7981 24.5822 42.008 24.7335C42.2202 24.8847 42.4696 24.9603 42.7563 24.9603C42.9481 24.9603 43.1219 24.9253 43.2777 24.8553C43.4357 24.7831 43.5677 24.6804 43.6738 24.5472C43.7821 24.4141 43.8577 24.2538 43.9006 24.0665H44.8859C44.8497 24.4028 44.7403 24.703 44.5574 24.9671C44.3746 25.2312 44.1297 25.4388 43.8228 25.59C43.518 25.7413 43.1603 25.8169 42.7495 25.8169ZM48.2097 25.8169C47.6974 25.8169 47.2561 25.7074 46.8859 25.4885C46.518 25.2673 46.2336 24.9569 46.0327 24.5574C45.8341 24.1556 45.7348 23.685 45.7348 23.1456C45.7348 22.6129 45.8341 22.1434 46.0327 21.7372C46.2336 21.3309 46.5135 21.0138 46.8724 20.7858C47.2335 20.5578 47.6556 20.4438 48.1386 20.4438C48.432 20.4438 48.7164 20.4924 48.9918 20.5894C49.2672 20.6865 49.5143 20.8388 49.7333 21.0465C49.9522 21.2541 50.1249 21.5239 50.2513 21.8557C50.3777 22.1852 50.4409 22.5858 50.4409 23.0576V23.4164H46.307V22.6581H49.4489C49.4489 22.3917 49.3947 22.1558 49.2864 21.9504C49.178 21.7428 49.0257 21.5792 48.8293 21.4595C48.6352 21.3399 48.4072 21.2801 48.1454 21.2801C47.861 21.2801 47.6127 21.3501 47.4006 21.49C47.1906 21.6277 47.0281 21.8083 46.913 22.0317C46.8002 22.2529 46.7437 22.4933 46.7437 22.7529V23.3453C46.7437 23.6929 46.8047 23.9886 46.9266 24.2324C47.0507 24.4761 47.2234 24.6624 47.4446 24.791C47.6658 24.9174 47.9242 24.9806 48.2199 24.9806C48.4117 24.9806 48.5867 24.9535 48.7447 24.8994C48.9027 24.8429 49.0392 24.7594 49.1543 24.6488C49.2694 24.5382 49.3575 24.4017 49.4184 24.2392L50.3765 24.4118C50.2998 24.694 50.1621 24.9411 49.9635 25.1533C49.7671 25.3632 49.52 25.5268 49.222 25.6442C48.9264 25.7593 48.5889 25.8169 48.2097 25.8169ZM57.9841 21.7812L57.0666 21.9437C57.0282 21.8263 56.9673 21.7146 56.8838 21.6085C56.8025 21.5024 56.6919 21.4155 56.552 21.3478C56.412 21.2801 56.2371 21.2462 56.0272 21.2462C55.7405 21.2462 55.5013 21.3106 55.3094 21.4392C55.1176 21.5656 55.0217 21.7293 55.0217 21.9301C55.0217 22.1039 55.086 22.2439 55.2146 22.35C55.3433 22.456 55.551 22.5429 55.8376 22.6107L56.6637 22.8002C57.1422 22.9108 57.4988 23.0813 57.7336 23.3115C57.9683 23.5417 58.0857 23.8408 58.0857 24.2087C58.0857 24.5202 57.9954 24.7978 57.8148 25.0416C57.6365 25.2831 57.3871 25.4727 57.0666 25.6103C56.7483 25.748 56.3793 25.8169 55.9595 25.8169C55.3772 25.8169 54.902 25.6927 54.5341 25.4444C54.1662 25.1939 53.9405 24.8384 53.857 24.378L54.8355 24.229C54.8964 24.484 55.0217 24.677 55.2113 24.8079C55.4009 24.9366 55.648 25.0009 55.9527 25.0009C56.2845 25.0009 56.5497 24.9321 56.7483 24.7944C56.947 24.6545 57.0463 24.484 57.0463 24.2832C57.0463 24.1207 56.9853 23.9841 56.8635 23.8735C56.7438 23.7629 56.5599 23.6794 56.3116 23.623L55.4313 23.43C54.946 23.3194 54.5872 23.1433 54.3547 22.9018C54.1245 22.6603 54.0094 22.3545 54.0094 21.9843C54.0094 21.6773 54.0951 21.4087 54.2667 21.1785C54.4382 20.9483 54.6752 20.7689 54.9776 20.6402C55.2801 20.5093 55.6266 20.4438 56.017 20.4438C56.5791 20.4438 57.0215 20.5657 57.3442 20.8095C57.667 21.051 57.8803 21.3749 57.9841 21.7812ZM61.44 25.8169C60.9277 25.8169 60.4864 25.7074 60.1162 25.4885C59.7483 25.2673 59.4639 24.9569 59.263 24.5574C59.0644 24.1556 58.9651 23.685 58.9651 23.1456C58.9651 22.6129 59.0644 22.1434 59.263 21.7372C59.4639 21.3309 59.7438 21.0138 60.1027 20.7858C60.4638 20.5578 60.8859 20.4438 61.3689 20.4438C61.6623 20.4438 61.9467 20.4924 62.2221 20.5894C62.4975 20.6865 62.7446 20.8388 62.9636 21.0465C63.1825 21.2541 63.3552 21.5239 63.4816 21.8557C63.608 22.1852 63.6712 22.5858 63.6712 23.0576V23.4164H59.5373V22.6581H62.6792C62.6792 22.3917 62.625 22.1558 62.5167 21.9504C62.4083 21.7428 62.256 21.5792 62.0596 21.4595C61.8655 21.3399 61.6375 21.2801 61.3757 21.2801C61.0913 21.2801 60.843 21.3501 60.6308 21.49C60.4209 21.6277 60.2584 21.8083 60.1433 22.0317C60.0305 22.2529 59.974 22.4933 59.974 22.7529V23.3453C59.974 23.6929 60.035 23.9886 60.1569 24.2324C60.281 24.4761 60.4537 24.6624 60.6749 24.791C60.8961 24.9174 61.1545 24.9806 61.4502 24.9806C61.642 24.9806 61.817 24.9535 61.975 24.8994C62.133 24.8429 62.2695 24.7594 62.3846 24.6488C62.4997 24.5382 62.5878 24.4017 62.6487 24.2392L63.6068 24.4118C63.5301 24.694 63.3924 24.9411 63.1938 25.1533C62.9974 25.3632 62.7503 25.5268 62.4523 25.6442C62.1567 25.7593 61.8192 25.8169 61.44 25.8169ZM64.7944 27.6621V20.5115H65.783V21.3546H65.8676C65.9263 21.2462 66.0109 21.121 66.1215 20.9788C66.2321 20.8366 66.3856 20.7124 66.582 20.6063C66.7784 20.498 67.0379 20.4438 67.3607 20.4438C67.7805 20.4438 68.1552 20.5499 68.4847 20.7621C68.8143 20.9743 69.0727 21.2801 69.26 21.6796C69.4496 22.0791 69.5444 22.5599 69.5444 23.1219C69.5444 23.6839 69.4508 24.1658 69.2634 24.5676C69.0761 24.9671 68.8188 25.2752 68.4915 25.4918C68.1642 25.7063 67.7907 25.8135 67.3708 25.8135C67.0549 25.8135 66.7964 25.7604 66.5955 25.6544C66.3969 25.5483 66.2412 25.4241 66.1283 25.2819C66.0155 25.1397 65.9286 25.0133 65.8676 24.9027H65.8067V27.6621H64.7944ZM65.7864 23.1117C65.7864 23.4774 65.8394 23.7979 65.9455 24.0733C66.0516 24.3486 66.2051 24.5642 66.4059 24.7199C66.6068 24.8734 66.8528 24.9501 67.144 24.9501C67.4465 24.9501 67.6993 24.87 67.9024 24.7098C68.1055 24.5472 68.259 24.3272 68.3628 24.0496C68.4689 23.7719 68.522 23.4593 68.522 23.1117C68.522 22.7686 68.4701 22.4606 68.3662 22.1874C68.2647 21.9143 68.1112 21.6988 67.9058 21.5408C67.7026 21.3828 67.4487 21.3038 67.144 21.3038C66.8506 21.3038 66.6023 21.3794 66.3992 21.5306C66.1983 21.6819 66.0459 21.8929 65.9421 22.1637C65.8383 22.4346 65.7864 22.7506 65.7864 23.1117ZM72.192 25.827C71.8625 25.827 71.5645 25.7661 71.2982 25.6442C71.0319 25.5201 70.8208 25.3406 70.6651 25.1059C70.5116 24.8711 70.4349 24.5834 70.4349 24.2425C70.4349 23.9491 70.4913 23.7076 70.6041 23.518C70.717 23.3284 70.8694 23.1783 71.0612 23.0677C71.2531 22.9571 71.4675 22.8736 71.7045 22.8172C71.9415 22.7608 72.183 22.7179 72.429 22.6885C72.7405 22.6524 72.9933 22.6231 73.1874 22.6005C73.3815 22.5757 73.5226 22.5362 73.6106 22.482C73.6986 22.4278 73.7427 22.3398 73.7427 22.2179V22.1942C73.7427 21.8985 73.6591 21.6694 73.4921 21.5069C73.3273 21.3444 73.0813 21.2632 72.754 21.2632C72.4132 21.2632 72.1446 21.3388 71.9483 21.49C71.7541 21.639 71.6198 21.8049 71.5454 21.9877L70.594 21.771C70.7068 21.455 70.8716 21.2 71.0883 21.0059C71.3072 20.8095 71.5589 20.6673 71.8433 20.5793C72.1277 20.489 72.4268 20.4438 72.7405 20.4438C72.9482 20.4438 73.1682 20.4687 73.4007 20.5183C73.6354 20.5657 73.8544 20.6537 74.0575 20.7824C74.2629 20.9111 74.4311 21.095 74.562 21.3343C74.6929 21.5713 74.7583 21.8794 74.7583 22.2585V25.7119H73.7697V25.0009H73.7291C73.6637 25.1318 73.5655 25.2605 73.4346 25.3869C73.3036 25.5133 73.1355 25.6182 72.9301 25.7018C72.7247 25.7853 72.4787 25.827 72.192 25.827ZM72.4121 25.0145C72.692 25.0145 72.9312 24.9592 73.1298 24.8486C73.3307 24.738 73.4831 24.5935 73.5869 24.4152C73.693 24.2346 73.746 24.0417 73.746 23.8363V23.1659C73.7099 23.202 73.64 23.2359 73.5361 23.2675C73.4346 23.2968 73.3183 23.3228 73.1874 23.3453C73.0565 23.3657 72.929 23.3848 72.8048 23.4029C72.6807 23.4187 72.5769 23.4322 72.4933 23.4435C72.297 23.4684 72.1175 23.5101 71.955 23.5688C71.7948 23.6275 71.6661 23.7121 71.5691 23.8227C71.4743 23.9311 71.4269 24.0755 71.4269 24.2561C71.4269 24.5066 71.5194 24.6962 71.7045 24.8249C71.8896 24.9513 72.1254 25.0145 72.4121 25.0145ZM77.119 22.6242V25.7119H76.1067V20.5115H77.0784V21.358H77.1427C77.2623 21.0826 77.4497 20.8614 77.7047 20.6944C77.962 20.5273 78.2859 20.4438 78.6764 20.4438C79.0308 20.4438 79.3411 20.5183 79.6075 20.6673C79.8738 20.814 80.0803 21.0329 80.227 21.3241C80.3737 21.6153 80.4471 21.9753 80.4471 22.4041V25.7119H79.4348V22.526C79.4348 22.1491 79.3366 21.8545 79.1402 21.6424C78.9439 21.4279 78.6741 21.3207 78.3311 21.3207C78.0963 21.3207 77.8875 21.3715 77.7047 21.4731C77.5241 21.5746 77.3808 21.7236 77.2747 21.92C77.1709 22.1141 77.119 22.3488 77.119 22.6242ZM81.8047 20.5115H82.8171V26.0505C82.8171 26.3981 82.7539 26.6915 82.6275 26.9308C82.5033 27.17 82.3182 27.3517 82.0722 27.4758C81.8284 27.6 81.5271 27.6621 81.1682 27.6621C81.1321 27.6621 81.0983 27.6621 81.0667 27.6621C81.0328 27.6621 80.9978 27.6609 80.9617 27.6587V26.7886C80.9933 26.7886 81.0215 26.7886 81.0464 26.7886C81.0689 26.7886 81.0949 26.7886 81.1242 26.7886C81.3635 26.7886 81.5362 26.7242 81.6422 26.5956C81.7506 26.4692 81.8047 26.2852 81.8047 26.0437V20.5115ZM82.3058 19.7091C82.1298 19.7091 81.9785 19.6505 81.8521 19.5331C81.728 19.4135 81.6659 19.2713 81.6659 19.1065C81.6659 18.9395 81.728 18.7973 81.8521 18.6799C81.9785 18.5603 82.1298 18.5005 82.3058 18.5005C82.4819 18.5005 82.632 18.5603 82.7561 18.6799C82.8825 18.7973 82.9457 18.9395 82.9457 19.1065C82.9457 19.2713 82.8825 19.4135 82.7561 19.5331C82.632 19.6505 82.4819 19.7091 82.3058 19.7091ZM85.6923 25.827C85.3628 25.827 85.0649 25.7661 84.7985 25.6442C84.5322 25.5201 84.3211 25.3406 84.1654 25.1059C84.0119 24.8711 83.9352 24.5834 83.9352 24.2425C83.9352 23.9491 83.9916 23.7076 84.1045 23.518C84.2173 23.3284 84.3697 23.1783 84.5615 23.0677C84.7534 22.9571 84.9678 22.8736 85.2048 22.8172C85.4418 22.7608 85.6833 22.7179 85.9293 22.6885C86.2408 22.6524 86.4936 22.6231 86.6877 22.6005C86.8818 22.5757 87.0229 22.5362 87.1109 22.482C87.1989 22.4278 87.243 22.3398 87.243 22.2179V22.1942C87.243 21.8985 87.1594 21.6694 86.9924 21.5069C86.8276 21.3444 86.5816 21.2632 86.2543 21.2632C85.9135 21.2632 85.6449 21.3388 85.4486 21.49C85.2544 21.639 85.1202 21.8049 85.0457 21.9877L84.0943 21.771C84.2072 21.455 84.3719 21.2 84.5886 21.0059C84.8075 20.8095 85.0592 20.6673 85.3436 20.5793C85.628 20.489 85.9271 20.4438 86.2408 20.4438C86.4485 20.4438 86.6685 20.4687 86.901 20.5183C87.1357 20.5657 87.3547 20.6537 87.5578 20.7824C87.7632 20.9111 87.9314 21.095 88.0623 21.3343C88.1932 21.5713 88.2587 21.8794 88.2587 22.2585V25.7119H87.27V25.0009H87.2294C87.164 25.1318 87.0658 25.2605 86.9349 25.3869C86.804 25.5133 86.6358 25.6182 86.4304 25.7018C86.225 25.7853 85.979 25.827 85.6923 25.827ZM85.9124 25.0145C86.1923 25.0145 86.4315 24.9592 86.6302 24.8486C86.831 24.738 86.9834 24.5935 87.0872 24.4152C87.1933 24.2346 87.2463 24.0417 87.2463 23.8363V23.1659C87.2102 23.202 87.1403 23.2359 87.0364 23.2675C86.9349 23.2968 86.8186 23.3228 86.6877 23.3453C86.5568 23.3657 86.4293 23.3848 86.3051 23.4029C86.181 23.4187 86.0772 23.4322 85.9936 23.4435C85.7973 23.4684 85.6178 23.5101 85.4553 23.5688C85.2951 23.6275 85.1664 23.7121 85.0694 23.8227C84.9746 23.9311 84.9272 24.0755 84.9272 24.2561C84.9272 24.5066 85.0197 24.6962 85.2048 24.8249C85.3899 24.9513 85.6257 25.0145 85.9124 25.0145ZM90.6193 22.6242V25.7119H89.607V20.5115H90.5787V21.358H90.643C90.7626 21.0826 90.95 20.8614 91.205 20.6944C91.4623 20.5273 91.7862 20.4438 92.1767 20.4438C92.5311 20.4438 92.8414 20.5183 93.1078 20.6673C93.3741 20.814 93.5806 21.0329 93.7273 21.3241C93.874 21.6153 93.9474 21.9753 93.9474 22.4041V25.7119H92.9351V22.526C92.9351 22.1491 92.8369 21.8545 92.6405 21.6424C92.4442 21.4279 92.1744 21.3207 91.8314 21.3207C91.5966 21.3207 91.3878 21.3715 91.205 21.4731C91.0245 21.5746 90.8811 21.7236 90.775 21.92C90.6712 22.1141 90.6193 22.3488 90.6193 22.6242ZM97.4854 27.7704C97.0724 27.7704 96.7169 27.7162 96.4189 27.6079C96.1233 27.4995 95.8817 27.3562 95.6944 27.1779C95.5071 26.9996 95.3671 26.8044 95.2746 26.5922L96.1447 26.2333C96.2056 26.3326 96.2869 26.4376 96.3885 26.5482C96.4923 26.661 96.6322 26.757 96.8083 26.836C96.9866 26.915 97.2157 26.9545 97.4956 26.9545C97.8793 26.9545 98.1964 26.8608 98.4469 26.6734C98.6975 26.4884 98.8227 26.1927 98.8227 25.7864V24.7639H98.7584C98.6975 24.8745 98.6095 24.9975 98.4943 25.133C98.3815 25.2684 98.2257 25.3858 98.0271 25.4851C97.8285 25.5844 97.5701 25.634 97.2518 25.634C96.841 25.634 96.4708 25.5381 96.1413 25.3463C95.814 25.1522 95.5545 24.8666 95.3626 24.4897C95.173 24.1105 95.0782 23.6444 95.0782 23.0914C95.0782 22.5384 95.1719 22.0644 95.3592 21.6694C95.5488 21.2744 95.8084 20.972 96.1379 20.7621C96.4675 20.5499 96.841 20.4438 97.2586 20.4438C97.5813 20.4438 97.842 20.498 98.0407 20.6063C98.2393 20.7124 98.3939 20.8366 98.5045 20.9788C98.6174 21.121 98.7043 21.2462 98.7652 21.3546H98.8397V20.5115H99.8317V25.827C99.8317 26.2739 99.7278 26.6407 99.5202 26.9274C99.3125 27.214 99.0315 27.4262 98.6772 27.5639C98.3251 27.7016 97.9278 27.7704 97.4854 27.7704ZM97.4753 24.7944C97.7664 24.7944 98.0124 24.7267 98.2133 24.5913C98.4165 24.4536 98.57 24.2572 98.6738 24.0022C98.7799 23.7448 98.8329 23.4368 98.8329 23.0779C98.8329 22.728 98.781 22.4199 98.6772 22.1536C98.5733 21.8873 98.421 21.6796 98.2201 21.5306C98.0192 21.3794 97.7709 21.3038 97.4753 21.3038C97.1705 21.3038 96.9166 21.3828 96.7135 21.5408C96.5103 21.6965 96.3569 21.9087 96.253 22.1773C96.1515 22.4459 96.1007 22.7461 96.1007 23.0779C96.1007 23.4187 96.1526 23.7178 96.2564 23.9751C96.3602 24.2324 96.5137 24.4333 96.7169 24.5777C96.9223 24.7222 97.1751 24.7944 97.4753 24.7944ZM104.84 25.7119L103.31 20.5115H104.356L105.375 24.3306H105.426L106.448 20.5115H107.494L108.51 24.3136H108.561L109.573 20.5115H110.619L109.092 25.7119H108.06L107.003 21.9572H106.925L105.869 25.7119H104.84ZM113.093 25.827C112.764 25.827 112.466 25.7661 112.199 25.6442C111.933 25.5201 111.722 25.3406 111.566 25.1059C111.413 24.8711 111.336 24.5834 111.336 24.2425C111.336 23.9491 111.393 23.7076 111.505 23.518C111.618 23.3284 111.771 23.1783 111.962 23.0677C112.154 22.9571 112.369 22.8736 112.606 22.8172C112.843 22.7608 113.084 22.7179 113.33 22.6885C113.642 22.6524 113.895 22.6231 114.089 22.6005C114.283 22.5757 114.424 22.5362 114.512 22.482C114.6 22.4278 114.644 22.3398 114.644 22.2179V22.1942C114.644 21.8985 114.56 21.6694 114.393 21.5069C114.229 21.3444 113.983 21.2632 113.655 21.2632C113.314 21.2632 113.046 21.3388 112.85 21.49C112.655 21.639 112.521 21.8049 112.447 21.9877L111.495 21.771C111.608 21.455 111.773 21.2 111.99 21.0059C112.209 20.8095 112.46 20.6673 112.745 20.5793C113.029 20.489 113.328 20.4438 113.642 20.4438C113.849 20.4438 114.069 20.4687 114.302 20.5183C114.537 20.5657 114.756 20.6537 114.959 20.7824C115.164 20.9111 115.332 21.095 115.463 21.3343C115.594 21.5713 115.66 21.8794 115.66 22.2585V25.7119H114.671V25.0009H114.63C114.565 25.1318 114.467 25.2605 114.336 25.3869C114.205 25.5133 114.037 25.6182 113.831 25.7018C113.626 25.7853 113.38 25.827 113.093 25.827ZM113.313 25.0145C113.593 25.0145 113.832 24.9592 114.031 24.8486C114.232 24.738 114.384 24.5935 114.488 24.4152C114.594 24.2346 114.647 24.0417 114.647 23.8363V23.1659C114.611 23.202 114.541 23.2359 114.437 23.2675C114.336 23.2968 114.22 23.3228 114.089 23.3453C113.958 23.3657 113.83 23.3848 113.706 23.4029C113.582 23.4187 113.478 23.4322 113.395 23.4435C113.198 23.4684 113.019 23.5101 112.856 23.5688C112.696 23.6275 112.567 23.7121 112.47 23.8227C112.376 23.9311 112.328 24.0755 112.328 24.2561C112.328 24.5066 112.421 24.6962 112.606 24.8249C112.791 24.9513 113.027 25.0145 113.313 25.0145ZM117.939 23.948L117.932 22.7122H118.108L120.18 20.5115H121.392L119.029 23.0169H118.87L117.939 23.948ZM117.008 25.7119V18.7781H118.02V25.7119H117.008ZM120.292 25.7119L118.43 23.2404L119.127 22.5328L121.535 25.7119H120.292ZM124.742 20.5115V21.3241H121.902V20.5115H124.742ZM122.664 19.2656H123.676V24.185C123.676 24.3814 123.705 24.5292 123.764 24.6285C123.823 24.7256 123.898 24.7921 123.991 24.8283C124.086 24.8621 124.188 24.879 124.299 24.879C124.38 24.879 124.451 24.8734 124.512 24.8621C124.573 24.8508 124.621 24.8418 124.654 24.835L124.837 25.6713C124.779 25.6939 124.695 25.7164 124.587 25.739C124.478 25.7638 124.343 25.7774 124.18 25.7796C123.914 25.7841 123.666 25.7367 123.436 25.6374C123.205 25.5381 123.019 25.3846 122.877 25.177C122.735 24.9693 122.664 24.7086 122.664 24.3949V19.2656ZM129.157 23.5553V20.5115H130.172V25.7119H129.177V24.8113H129.123C129.003 25.089 128.811 25.3203 128.547 25.5054C128.285 25.6882 127.959 25.7796 127.569 25.7796C127.235 25.7796 126.939 25.7063 126.682 25.5596C126.427 25.4106 126.226 25.1905 126.079 24.8994C125.935 24.6082 125.862 24.2482 125.862 23.8193V20.5115H126.875V23.6974C126.875 24.0518 126.973 24.334 127.169 24.5439C127.366 24.7538 127.621 24.8587 127.934 24.8587C128.124 24.8587 128.312 24.8113 128.5 24.7165C128.689 24.6217 128.846 24.4784 128.97 24.2866C129.097 24.0947 129.159 23.8509 129.157 23.5553Z" fill="#121926"/>
<path d="M308.932 22.7416C309.225 22.7416 309.462 22.5045 309.462 22.2119C309.462 21.9194 309.225 21.6823 308.932 21.6823C308.639 21.6823 308.402 21.9194 308.402 22.2119C308.402 22.5045 308.639 22.7416 308.932 22.7416Z" stroke="#9AA4B2" stroke-width="1.05933" stroke-linecap="round" stroke-linejoin="round"/>
<path d="M308.932 19.0339C309.225 19.0339 309.462 18.7968 309.462 18.5043C309.462 18.2117 309.225 17.9746 308.932 17.9746C308.639 17.9746 308.402 18.2117 308.402 18.5043C308.402 18.7968 308.639 19.0339 308.932 19.0339Z" stroke="#9AA4B2" stroke-width="1.05933" stroke-linecap="round" stroke-linejoin="round"/>
<path d="M308.932 26.4493C309.225 26.4493 309.462 26.2121 309.462 25.9196C309.462 25.6271 309.225 25.39 308.932 25.39C308.639 25.39 308.402 25.6271 308.402 25.9196C308.402 26.2121 308.639 26.4493 308.932 26.4493Z" stroke="#9AA4B2" stroke-width="1.05933" stroke-linecap="round" stroke-linejoin="round"/>
<line x1="14.712" y1="40.0403" x2="355.699" y2="40.0403" stroke="#EEF2F6" stroke-width="0.529667"/>
<line x1="14.712" y1="58.7928" x2="355.699" y2="58.7928" stroke="#EEF2F6" stroke-width="0.529667"/>
<line x1="14.712" y1="77.5455" x2="355.699" y2="77.5455" stroke="#EEF2F6" stroke-width="0.529667"/>
<line x1="14.712" y1="96.2979" x2="355.699" y2="96.2979" stroke="#EEF2F6" stroke-width="0.529667"/>
<line x1="14.712" y1="115.051" x2="355.699" y2="115.051" stroke="#EEF2F6" stroke-width="0.529667"/>
<line x1="14.712" y1="133.803" x2="355.699" y2="133.803" stroke="#EEF2F6" stroke-width="0.529667"/>
<path d="M29.7534 140.683H30.3131V143.987C30.3131 144.282 30.259 144.532 30.1506 144.739C30.0423 144.945 29.8896 145.101 29.6924 145.208C29.4953 145.315 29.2628 145.368 28.995 145.368C28.7422 145.368 28.5172 145.322 28.3201 145.231C28.123 145.137 27.968 145.005 27.8551 144.833C27.7423 144.662 27.6859 144.458 27.6859 144.222H28.2366C28.2366 144.353 28.269 144.467 28.3337 144.565C28.3999 144.661 28.4901 144.736 28.6045 144.791C28.7189 144.845 28.849 144.872 28.995 144.872C29.156 144.872 29.2929 144.838 29.4058 144.77C29.5186 144.703 29.6044 144.603 29.6631 144.472C29.7233 144.34 29.7534 144.178 29.7534 143.987V140.683ZM32.3829 145.386C32.1632 145.386 31.9638 145.345 31.7848 145.262C31.6057 145.178 31.4635 145.057 31.3582 144.899C31.2528 144.739 31.2002 144.547 31.2002 144.321C31.2002 144.122 31.2393 143.961 31.3175 143.838C31.3958 143.713 31.5004 143.615 31.6313 143.545C31.7622 143.474 31.9067 143.421 32.0646 143.387C32.2242 143.351 32.3844 143.322 32.5454 143.301C32.7561 143.274 32.9269 143.253 33.0578 143.24C33.1902 143.225 33.2865 143.2 33.3467 143.165C33.4084 143.131 33.4392 143.071 33.4392 142.985V142.967C33.4392 142.744 33.3783 142.571 33.2564 142.448C33.136 142.324 32.9532 142.263 32.7079 142.263C32.4536 142.263 32.2542 142.318 32.1098 142.43C31.9653 142.541 31.8638 142.66 31.8051 142.786L31.2995 142.606C31.3898 142.395 31.5102 142.231 31.6606 142.114C31.8126 141.995 31.9781 141.912 32.1572 141.865C32.3378 141.817 32.5153 141.793 32.6899 141.793C32.8012 141.793 32.9291 141.807 33.0736 141.834C33.2195 141.859 33.3602 141.913 33.4957 141.994C33.6326 142.075 33.7462 142.198 33.8365 142.362C33.9268 142.526 33.9719 142.746 33.9719 143.021V145.305H33.4392V144.836H33.4121C33.376 144.911 33.3158 144.991 33.2316 145.077C33.1473 145.163 33.0352 145.236 32.8953 145.296C32.7553 145.356 32.5845 145.386 32.3829 145.386ZM32.4642 144.908C32.6748 144.908 32.8524 144.867 32.9968 144.784C33.1428 144.701 33.2526 144.594 33.3264 144.463C33.4016 144.332 33.4392 144.195 33.4392 144.05V143.563C33.4167 143.59 33.367 143.615 33.2903 143.637C33.215 143.658 33.1277 143.677 33.0284 143.694C32.9306 143.709 32.8351 143.722 32.7418 143.734C32.65 143.745 32.5755 143.754 32.5183 143.761C32.3799 143.779 32.2505 143.809 32.1301 143.849C32.0112 143.888 31.9149 143.948 31.8412 144.028C31.769 144.106 31.7329 144.213 31.7329 144.348C31.7329 144.533 31.8013 144.673 31.9383 144.768C32.0767 144.861 32.252 144.908 32.4642 144.908ZM35.4768 143.22V145.305H34.9442V141.838H35.4588V142.38H35.5039C35.5852 142.204 35.7086 142.062 35.8741 141.956C36.0396 141.847 36.2533 141.793 36.5151 141.793C36.7498 141.793 36.9552 141.841 37.1313 141.938C37.3073 142.032 37.4443 142.177 37.5421 142.371C37.6399 142.564 37.6888 142.807 37.6888 143.102V145.305H37.1561V143.138C37.1561 142.866 37.0854 142.654 36.9439 142.502C36.8025 142.348 36.6084 142.272 36.3616 142.272C36.1916 142.272 36.0396 142.308 35.9057 142.382C35.7733 142.456 35.6687 142.564 35.5919 142.705C35.5152 142.846 35.4768 143.018 35.4768 143.22Z" fill="#697586"/>
<path d="M55.3089 145.305V140.683H58.0806V141.179H55.8687V142.741H57.873V143.238H55.8687V145.305H55.3089ZM60.1662 145.377C59.8321 145.377 59.544 145.304 59.3017 145.156C59.061 145.007 58.8751 144.8 58.7442 144.533C58.6148 144.265 58.5501 143.954 58.5501 143.599C58.5501 143.244 58.6148 142.931 58.7442 142.66C58.8751 142.387 59.0572 142.175 59.2904 142.023C59.5252 141.87 59.799 141.793 60.112 141.793C60.2926 141.793 60.4709 141.823 60.647 141.883C60.823 141.944 60.9833 142.041 61.1277 142.177C61.2722 142.311 61.3873 142.488 61.4731 142.71C61.5588 142.931 61.6017 143.203 61.6017 143.527V143.752H58.9293V143.292H61.06C61.06 143.096 61.0209 142.922 60.9426 142.768C60.8659 142.615 60.7561 142.494 60.6131 142.405C60.4717 142.316 60.3046 142.272 60.112 142.272C59.8999 142.272 59.7163 142.324 59.5613 142.43C59.4078 142.533 59.2897 142.669 59.2069 142.836C59.1242 143.003 59.0828 143.182 59.0828 143.373V143.68C59.0828 143.942 59.1279 144.164 59.2182 144.346C59.31 144.526 59.4372 144.664 59.5997 144.759C59.7622 144.852 59.951 144.899 60.1662 144.899C60.3061 144.899 60.4325 144.879 60.5454 144.84C60.6598 144.8 60.7583 144.739 60.8411 144.66C60.9238 144.578 60.9878 144.478 61.0329 144.357L61.5475 144.502C61.4934 144.676 61.4023 144.83 61.2744 144.962C61.1465 145.093 60.9885 145.195 60.8004 145.269C60.6124 145.341 60.4009 145.377 60.1662 145.377ZM62.4842 145.305V140.683H63.0169V142.389H63.0621C63.1012 142.329 63.1554 142.252 63.2246 142.159C63.2953 142.064 63.3961 141.98 63.527 141.906C63.6594 141.831 63.8385 141.793 64.0642 141.793C64.3561 141.793 64.6134 141.866 64.8361 142.012C65.0588 142.158 65.2326 142.365 65.3575 142.633C65.4824 142.901 65.5449 143.217 65.5449 143.581C65.5449 143.948 65.4824 144.266 65.3575 144.536C65.2326 144.803 65.0596 145.011 64.8384 145.158C64.6172 145.304 64.3622 145.377 64.0732 145.377C63.8505 145.377 63.6722 145.341 63.5383 145.267C63.4044 145.192 63.3013 145.107 63.2291 145.012C63.1569 144.915 63.1012 144.836 63.0621 144.772H62.9989V145.305H62.4842ZM63.0079 143.572C63.0079 143.834 63.0463 144.065 63.123 144.265C63.1997 144.463 63.3118 144.619 63.4593 144.732C63.6068 144.843 63.7873 144.899 64.001 144.899C64.2237 144.899 64.4096 144.84 64.5585 144.723C64.709 144.604 64.8219 144.444 64.8971 144.244C64.9738 144.043 65.0122 143.818 65.0122 143.572C65.0122 143.328 64.9746 143.108 64.8993 142.913C64.8256 142.716 64.7135 142.56 64.563 142.445C64.4141 142.33 64.2267 142.272 64.001 142.272C63.7843 142.272 63.6023 142.327 63.4548 142.436C63.3073 142.545 63.196 142.697 63.1207 142.892C63.0455 143.086 63.0079 143.313 63.0079 143.572Z" fill="#697586"/>
<path d="M83.634 140.683H84.3021L85.873 144.52H85.9272L87.4981 140.683H88.1662V145.305H87.6426V141.793H87.5975L86.1529 145.305H85.6473L84.2028 141.793H84.1576V145.305H83.634V140.683ZM90.2366 145.386C90.0169 145.386 89.8175 145.345 89.6384 145.262C89.4594 145.178 89.3172 145.057 89.2119 144.899C89.1065 144.739 89.0539 144.547 89.0539 144.321C89.0539 144.122 89.093 143.961 89.1712 143.838C89.2495 143.713 89.354 143.615 89.485 143.545C89.6159 143.474 89.7603 143.421 89.9183 143.387C90.0778 143.351 90.2381 143.322 90.3991 143.301C90.6098 143.274 90.7805 143.253 90.9115 143.24C91.0439 143.225 91.1402 143.2 91.2004 143.165C91.2621 143.131 91.2929 143.071 91.2929 142.985V142.967C91.2929 142.744 91.232 142.571 91.1101 142.448C90.9897 142.324 90.8069 142.263 90.5616 142.263C90.3073 142.263 90.1079 142.318 89.9635 142.43C89.819 142.541 89.7174 142.66 89.6588 142.786L89.1532 142.606C89.2435 142.395 89.3638 142.231 89.5143 142.114C89.6663 141.995 89.8318 141.912 90.0109 141.865C90.1914 141.817 90.369 141.793 90.5435 141.793C90.6549 141.793 90.7828 141.807 90.9273 141.834C91.0732 141.859 91.2139 141.913 91.3493 141.994C91.4863 142.075 91.5999 142.198 91.6902 142.362C91.7804 142.526 91.8256 142.746 91.8256 143.021V145.305H91.2929V144.836H91.2658C91.2297 144.911 91.1695 144.991 91.0852 145.077C91.001 145.163 90.8889 145.236 90.7489 145.296C90.609 145.356 90.4382 145.386 90.2366 145.386ZM90.3178 144.908C90.5285 144.908 90.7061 144.867 90.8505 144.784C90.9965 144.701 91.1063 144.594 91.18 144.463C91.2553 144.332 91.2929 144.195 91.2929 144.05V143.563C91.2703 143.59 91.2207 143.615 91.1439 143.637C91.0687 143.658 90.9814 143.677 90.8821 143.694C90.7843 143.709 90.6887 143.722 90.5955 143.734C90.5037 143.745 90.4292 143.754 90.372 143.761C90.2336 143.779 90.1042 143.809 89.9838 143.849C89.8649 143.888 89.7686 143.948 89.6949 144.028C89.6226 144.106 89.5865 144.213 89.5865 144.348C89.5865 144.533 89.655 144.673 89.7919 144.768C89.9304 144.861 90.1057 144.908 90.3178 144.908ZM92.7978 145.305V141.838H93.3124V142.362H93.3486C93.4118 142.19 93.5261 142.051 93.6916 141.944C93.8572 141.838 94.0437 141.784 94.2514 141.784C94.2905 141.784 94.3394 141.785 94.3981 141.786C94.4568 141.788 94.5012 141.79 94.5313 141.793V142.335C94.5132 142.33 94.4718 142.324 94.4071 142.315C94.3439 142.304 94.277 142.299 94.2063 142.299C94.0377 142.299 93.8873 142.334 93.7548 142.405C93.6239 142.474 93.5201 142.57 93.4434 142.694C93.3681 142.816 93.3305 142.955 93.3305 143.111V145.305H92.7978Z" fill="#697586"/>
<path d="M112.149 145.305H111.562L113.259 140.683H113.837L115.534 145.305H114.947L113.566 141.414H113.53L112.149 145.305ZM112.365 143.499H114.731V143.996H112.365V143.499ZM116.182 146.605V141.838H116.697V142.389H116.76C116.799 142.329 116.853 142.252 116.922 142.159C116.993 142.064 117.094 141.98 117.225 141.906C117.357 141.831 117.536 141.793 117.762 141.793C118.054 141.793 118.311 141.866 118.534 142.012C118.757 142.158 118.931 142.365 119.055 142.633C119.18 142.901 119.243 143.217 119.243 143.581C119.243 143.948 119.18 144.266 119.055 144.536C118.931 144.803 118.757 145.011 118.536 145.158C118.315 145.304 118.06 145.377 117.771 145.377C117.548 145.377 117.37 145.341 117.236 145.267C117.102 145.192 116.999 145.107 116.927 145.012C116.855 144.915 116.799 144.836 116.76 144.772H116.715V146.605H116.182ZM116.706 143.572C116.706 143.834 116.744 144.065 116.821 144.265C116.898 144.463 117.01 144.619 117.157 144.732C117.305 144.843 117.485 144.899 117.699 144.899C117.922 144.899 118.107 144.84 118.256 144.723C118.407 144.604 118.52 144.444 118.595 144.244C118.672 144.043 118.71 143.818 118.71 143.572C118.71 143.328 118.672 143.108 118.597 142.913C118.523 142.716 118.411 142.56 118.261 142.445C118.112 142.33 117.925 142.272 117.699 142.272C117.482 142.272 117.3 142.327 117.153 142.436C117.005 142.545 116.894 142.697 116.819 142.892C116.743 143.086 116.706 143.313 116.706 143.572ZM120.055 145.305V141.838H120.57V142.362H120.606C120.669 142.19 120.784 142.051 120.949 141.944C121.115 141.838 121.301 141.784 121.509 141.784C121.548 141.784 121.597 141.785 121.656 141.786C121.714 141.788 121.759 141.79 121.789 141.793V142.335C121.771 142.33 121.729 142.324 121.665 142.315C121.601 142.304 121.534 142.299 121.464 142.299C121.295 142.299 121.145 142.334 121.012 142.405C120.881 142.474 120.778 142.57 120.701 142.694C120.626 142.816 120.588 142.955 120.588 143.111V145.305H120.055Z" fill="#697586"/>
<path d="M139.284 140.683H139.952L141.523 144.52H141.577L143.148 140.683H143.816V145.305H143.293V141.793H143.248L141.803 145.305H141.297L139.853 141.793H139.808V145.305H139.284V140.683ZM146.32 145.377C145.986 145.377 145.698 145.304 145.456 145.156C145.215 145.007 145.029 144.8 144.898 144.533C144.769 144.265 144.704 143.954 144.704 143.599C144.704 143.244 144.769 142.931 144.898 142.66C145.029 142.387 145.211 142.175 145.444 142.023C145.679 141.87 145.953 141.793 146.266 141.793C146.447 141.793 146.625 141.823 146.801 141.883C146.977 141.944 147.137 142.041 147.282 142.177C147.426 142.311 147.541 142.488 147.627 142.71C147.713 142.931 147.756 143.203 147.756 143.527V143.752H145.083V143.292H147.214C147.214 143.096 147.175 142.922 147.097 142.768C147.02 142.615 146.91 142.494 146.767 142.405C146.626 142.316 146.459 142.272 146.266 142.272C146.054 142.272 145.87 142.324 145.715 142.43C145.562 142.533 145.444 142.669 145.361 142.836C145.278 143.003 145.237 143.182 145.237 143.373V143.68C145.237 143.942 145.282 144.164 145.372 144.346C145.464 144.526 145.591 144.664 145.754 144.759C145.916 144.852 146.105 144.899 146.32 144.899C146.46 144.899 146.586 144.879 146.699 144.84C146.814 144.8 146.912 144.739 146.995 144.66C147.078 144.578 147.142 144.478 147.187 144.357L147.701 144.502C147.647 144.676 147.556 144.83 147.428 144.962C147.3 145.093 147.142 145.195 146.954 145.269C146.766 145.341 146.555 145.377 146.32 145.377ZM148.566 145.305V141.838H149.099V145.305H148.566ZM148.837 141.26C148.733 141.26 148.643 141.225 148.568 141.154C148.494 141.084 148.458 140.999 148.458 140.899C148.458 140.8 148.494 140.715 148.568 140.644C148.643 140.574 148.733 140.538 148.837 140.538C148.941 140.538 149.029 140.574 149.103 140.644C149.178 140.715 149.216 140.8 149.216 140.899C149.216 140.999 149.178 141.084 149.103 141.154C149.029 141.225 148.941 141.26 148.837 141.26Z" fill="#697586"/>
<path d="M168.379 140.683H168.939V143.987C168.939 144.282 168.884 144.532 168.776 144.739C168.668 144.945 168.515 145.101 168.318 145.208C168.121 145.315 167.888 145.368 167.62 145.368C167.368 145.368 167.143 145.322 166.946 145.231C166.748 145.137 166.593 145.005 166.481 144.833C166.368 144.662 166.311 144.458 166.311 144.222H166.862C166.862 144.353 166.894 144.467 166.959 144.565C167.025 144.661 167.116 144.736 167.23 144.791C167.344 144.845 167.474 144.872 167.62 144.872C167.781 144.872 167.918 144.838 168.031 144.77C168.144 144.703 168.23 144.603 168.289 144.472C168.349 144.34 168.379 144.178 168.379 143.987V140.683ZM172.173 143.888V141.838H172.706V145.305H172.173V144.718H172.137C172.056 144.894 171.929 145.044 171.758 145.167C171.586 145.289 171.369 145.35 171.108 145.35C170.891 145.35 170.698 145.303 170.53 145.208C170.361 145.112 170.229 144.967 170.133 144.775C170.036 144.581 169.988 144.336 169.988 144.041V141.838H170.521V144.005C170.521 144.258 170.592 144.46 170.733 144.61C170.876 144.76 171.058 144.836 171.279 144.836C171.412 144.836 171.546 144.802 171.683 144.734C171.822 144.666 171.938 144.563 172.031 144.423C172.126 144.283 172.173 144.104 172.173 143.888ZM174.214 143.22V145.305H173.681V141.838H174.196V142.38H174.241C174.322 142.204 174.446 142.062 174.611 141.956C174.777 141.847 174.99 141.793 175.252 141.793C175.487 141.793 175.692 141.841 175.868 141.938C176.045 142.032 176.181 142.177 176.279 142.371C176.377 142.564 176.426 142.807 176.426 143.102V145.305H175.893V143.138C175.893 142.866 175.823 142.654 175.681 142.502C175.54 142.348 175.346 142.272 175.099 142.272C174.929 142.272 174.777 142.308 174.643 142.382C174.51 142.456 174.406 142.564 174.329 142.705C174.252 142.846 174.214 143.018 174.214 143.22Z" fill="#697586"/>
<path d="M195.704 140.683H196.264V143.987C196.264 144.282 196.21 144.532 196.101 144.739C195.993 144.945 195.84 145.101 195.643 145.208C195.446 145.315 195.213 145.368 194.946 145.368C194.693 145.368 194.468 145.322 194.271 145.231C194.074 145.137 193.919 145.005 193.806 144.833C193.693 144.662 193.636 144.458 193.636 144.222H194.187C194.187 144.353 194.219 144.467 194.284 144.565C194.35 144.661 194.441 144.736 194.555 144.791C194.669 144.845 194.8 144.872 194.946 144.872C195.107 144.872 195.243 144.838 195.356 144.77C195.469 144.703 195.555 144.603 195.614 144.472C195.674 144.34 195.704 144.178 195.704 143.987V140.683ZM199.498 143.888V141.838H200.031V145.305H199.498V144.718H199.462C199.381 144.894 199.254 145.044 199.083 145.167C198.911 145.289 198.695 145.35 198.433 145.35C198.216 145.35 198.023 145.303 197.855 145.208C197.686 145.112 197.554 144.967 197.458 144.775C197.361 144.581 197.313 144.336 197.313 144.041V141.838H197.846V144.005C197.846 144.258 197.917 144.46 198.058 144.61C198.201 144.76 198.383 144.836 198.604 144.836C198.737 144.836 198.871 144.802 199.008 144.734C199.147 144.666 199.263 144.563 199.356 144.423C199.451 144.283 199.498 144.104 199.498 143.888ZM201.539 140.683V145.305H201.006V140.683H201.539Z" fill="#697586"/>
<path d="M219.449 145.305H218.862L220.56 140.683H221.137L222.835 145.305H222.248L220.866 141.414H220.83L219.449 145.305ZM219.666 143.499H222.031V143.996H219.666V143.499ZM225.667 143.888V141.838H226.2V145.305H225.667V144.718H225.631C225.55 144.894 225.424 145.044 225.252 145.167C225.081 145.289 224.864 145.35 224.602 145.35C224.385 145.35 224.193 145.303 224.024 145.208C223.856 145.112 223.723 144.967 223.627 144.775C223.531 144.581 223.482 144.336 223.482 144.041V141.838H224.015V144.005C224.015 144.258 224.086 144.46 224.227 144.61C224.37 144.76 224.552 144.836 224.774 144.836C224.906 144.836 225.041 144.802 225.178 144.734C225.316 144.666 225.432 144.563 225.525 144.423C225.62 144.283 225.667 144.104 225.667 143.888ZM228.575 146.677C228.318 146.677 228.097 146.644 227.911 146.578C227.726 146.513 227.572 146.428 227.449 146.321C227.327 146.216 227.23 146.103 227.158 145.982L227.582 145.684C227.63 145.748 227.691 145.82 227.765 145.901C227.839 145.984 227.939 146.055 228.067 146.115C228.197 146.177 228.366 146.208 228.575 146.208C228.855 146.208 229.086 146.14 229.268 146.005C229.45 145.869 229.541 145.657 229.541 145.368V144.664H229.496C229.457 144.727 229.401 144.806 229.329 144.899C229.258 144.991 229.156 145.073 229.022 145.145C228.89 145.216 228.71 145.251 228.485 145.251C228.205 145.251 227.954 145.185 227.731 145.052C227.51 144.92 227.334 144.727 227.205 144.475C227.077 144.222 227.013 143.915 227.013 143.554C227.013 143.199 227.076 142.889 227.2 142.626C227.325 142.361 227.499 142.157 227.722 142.012C227.945 141.866 228.202 141.793 228.494 141.793C228.72 141.793 228.899 141.831 229.031 141.906C229.165 141.98 229.267 142.064 229.338 142.159C229.41 142.252 229.466 142.329 229.505 142.389H229.559V141.838H230.074V145.404C230.074 145.702 230.006 145.945 229.871 146.131C229.737 146.319 229.556 146.457 229.329 146.544C229.103 146.633 228.852 146.677 228.575 146.677ZM228.557 144.772C228.771 144.772 228.951 144.724 229.099 144.626C229.246 144.528 229.358 144.387 229.435 144.204C229.512 144.02 229.55 143.8 229.55 143.545C229.55 143.295 229.513 143.074 229.437 142.883C229.362 142.692 229.251 142.542 229.103 142.434C228.956 142.326 228.774 142.272 228.557 142.272C228.331 142.272 228.143 142.329 227.993 142.443C227.844 142.558 227.732 142.711 227.656 142.904C227.583 143.096 227.546 143.31 227.546 143.545C227.546 143.785 227.583 143.998 227.659 144.183C227.735 144.367 227.848 144.511 227.997 144.617C228.148 144.721 228.334 144.772 228.557 144.772Z" fill="#697586"/>
<path d="M250.112 141.838C250.085 141.61 249.976 141.432 249.783 141.306C249.59 141.179 249.354 141.116 249.074 141.116C248.87 141.116 248.691 141.149 248.537 141.215C248.385 141.282 248.266 141.373 248.18 141.488C248.096 141.604 248.054 141.736 248.054 141.883C248.054 142.007 248.083 142.113 248.142 142.202C248.202 142.289 248.279 142.362 248.372 142.421C248.466 142.478 248.563 142.525 248.666 142.563C248.768 142.599 248.862 142.628 248.948 142.651L249.417 142.777C249.538 142.809 249.672 142.852 249.819 142.908C249.968 142.964 250.11 143.04 250.246 143.136C250.383 143.231 250.495 143.353 250.584 143.502C250.673 143.651 250.717 143.834 250.717 144.05C250.717 144.3 250.652 144.526 250.521 144.727C250.392 144.929 250.202 145.089 249.952 145.208C249.704 145.327 249.402 145.386 249.047 145.386C248.716 145.386 248.429 145.333 248.187 145.226C247.946 145.119 247.757 144.97 247.618 144.779C247.481 144.588 247.404 144.366 247.386 144.113H247.964C247.979 144.288 248.037 144.432 248.14 144.547C248.244 144.66 248.375 144.744 248.533 144.8C248.692 144.854 248.864 144.881 249.047 144.881C249.261 144.881 249.453 144.846 249.623 144.777C249.793 144.706 249.927 144.608 250.027 144.484C250.126 144.357 250.176 144.21 250.176 144.041C250.176 143.888 250.133 143.763 250.047 143.667C249.961 143.57 249.848 143.492 249.708 143.432C249.569 143.372 249.417 143.319 249.255 143.274L248.686 143.111C248.325 143.007 248.039 142.859 247.828 142.667C247.618 142.474 247.512 142.222 247.512 141.91C247.512 141.652 247.582 141.426 247.722 141.233C247.864 141.039 248.053 140.889 248.291 140.782C248.53 140.674 248.797 140.619 249.092 140.619C249.39 140.619 249.655 140.673 249.887 140.78C250.119 140.885 250.302 141.029 250.438 141.213C250.574 141.397 250.647 141.605 250.654 141.838H250.112ZM253.019 145.377C252.685 145.377 252.397 145.304 252.155 145.156C251.914 145.007 251.728 144.8 251.597 144.533C251.468 144.265 251.403 143.954 251.403 143.599C251.403 143.244 251.468 142.931 251.597 142.66C251.728 142.387 251.91 142.175 252.143 142.023C252.378 141.87 252.652 141.793 252.965 141.793C253.145 141.793 253.324 141.823 253.5 141.883C253.676 141.944 253.836 142.041 253.981 142.177C254.125 142.311 254.24 142.488 254.326 142.71C254.412 142.931 254.455 143.203 254.455 143.527V143.752H251.782V143.292H253.913C253.913 143.096 253.874 142.922 253.796 142.768C253.719 142.615 253.609 142.494 253.466 142.405C253.325 142.316 253.158 142.272 252.965 142.272C252.753 142.272 252.569 142.324 252.414 142.43C252.261 142.533 252.143 142.669 252.06 142.836C251.977 143.003 251.936 143.182 251.936 143.373V143.68C251.936 143.942 251.981 144.164 252.071 144.346C252.163 144.526 252.29 144.664 252.453 144.759C252.615 144.852 252.804 144.899 253.019 144.899C253.159 144.899 253.285 144.879 253.398 144.84C253.513 144.8 253.611 144.739 253.694 144.66C253.777 144.578 253.841 144.478 253.886 144.357L254.4 144.502C254.346 144.676 254.255 144.83 254.127 144.962C253.999 145.093 253.841 145.195 253.653 145.269C253.465 145.341 253.254 145.377 253.019 145.377ZM255.265 146.605V141.838H255.78V142.389H255.843C255.882 142.329 255.936 142.252 256.005 142.159C256.076 142.064 256.177 141.98 256.308 141.906C256.44 141.831 256.619 141.793 256.845 141.793C257.137 141.793 257.394 141.866 257.617 142.012C257.839 142.158 258.013 142.365 258.138 142.633C258.263 142.901 258.326 143.217 258.326 143.581C258.326 143.948 258.263 144.266 258.138 144.536C258.013 144.803 257.84 145.011 257.619 145.158C257.398 145.304 257.143 145.377 256.854 145.377C256.631 145.377 256.453 145.341 256.319 145.267C256.185 145.192 256.082 145.107 256.01 145.012C255.938 144.915 255.882 144.836 255.843 144.772H255.798V146.605H255.265ZM255.789 143.572C255.789 143.834 255.827 144.065 255.904 144.265C255.98 144.463 256.092 144.619 256.24 144.732C256.387 144.843 256.568 144.899 256.782 144.899C257.004 144.899 257.19 144.84 257.339 144.723C257.49 144.604 257.602 144.444 257.678 144.244C257.754 144.043 257.793 143.818 257.793 143.572C257.793 143.328 257.755 143.108 257.68 142.913C257.606 142.716 257.494 142.56 257.344 142.445C257.195 142.33 257.007 142.272 256.782 142.272C256.565 142.272 256.383 142.327 256.235 142.436C256.088 142.545 255.977 142.697 255.901 142.892C255.826 143.086 255.789 143.313 255.789 143.572Z" fill="#697586"/>
<path d="M279.81 142.994C279.81 143.481 279.722 143.903 279.546 144.258C279.37 144.613 279.128 144.887 278.821 145.079C278.514 145.272 278.164 145.368 277.769 145.368C277.375 145.368 277.025 145.272 276.718 145.079C276.411 144.887 276.169 144.613 275.993 144.258C275.817 143.903 275.729 143.481 275.729 142.994C275.729 142.506 275.817 142.085 275.993 141.73C276.169 141.375 276.411 141.101 276.718 140.908C277.025 140.716 277.375 140.619 277.769 140.619C278.164 140.619 278.514 140.716 278.821 140.908C279.128 141.101 279.37 141.375 279.546 141.73C279.722 142.085 279.81 142.506 279.81 142.994ZM279.268 142.994C279.268 142.594 279.201 142.256 279.067 141.98C278.935 141.705 278.755 141.497 278.528 141.355C278.302 141.214 278.049 141.143 277.769 141.143C277.49 141.143 277.236 141.214 277.009 141.355C276.783 141.497 276.603 141.705 276.469 141.98C276.337 142.256 276.271 142.594 276.271 142.994C276.271 143.394 276.337 143.732 276.469 144.007C276.603 144.283 276.783 144.491 277.009 144.633C277.236 144.774 277.49 144.845 277.769 144.845C278.049 144.845 278.302 144.774 278.528 144.633C278.755 144.491 278.935 144.283 279.067 144.007C279.201 143.732 279.268 143.394 279.268 142.994ZM282.087 145.377C281.762 145.377 281.482 145.301 281.248 145.147C281.013 144.994 280.832 144.782 280.706 144.513C280.58 144.244 280.516 143.936 280.516 143.59C280.516 143.238 280.581 142.927 280.71 142.658C280.841 142.387 281.023 142.175 281.257 142.023C281.491 141.87 281.765 141.793 282.078 141.793C282.322 141.793 282.542 141.838 282.737 141.929C282.933 142.019 283.093 142.145 283.218 142.308C283.343 142.47 283.421 142.66 283.451 142.877H282.918C282.877 142.719 282.787 142.579 282.647 142.457C282.509 142.333 282.322 142.272 282.087 142.272C281.88 142.272 281.698 142.326 281.541 142.434C281.386 142.541 281.265 142.692 281.178 142.888C281.092 143.082 281.049 143.31 281.049 143.572C281.049 143.84 281.091 144.073 281.175 144.271C281.261 144.47 281.382 144.624 281.537 144.734C281.693 144.844 281.877 144.899 282.087 144.899C282.226 144.899 282.351 144.875 282.464 144.827C282.577 144.779 282.673 144.709 282.751 144.619C282.829 144.529 282.885 144.42 282.918 144.294H283.451C283.421 144.499 283.346 144.683 283.227 144.847C283.11 145.009 282.954 145.139 282.76 145.235C282.567 145.33 282.343 145.377 282.087 145.377ZM285.737 141.838V142.29H283.94V141.838H285.737ZM284.464 141.008H284.997V144.312C284.997 144.463 285.019 144.575 285.062 144.651C285.107 144.724 285.164 144.774 285.234 144.8C285.304 144.824 285.379 144.836 285.457 144.836C285.516 144.836 285.564 144.833 285.602 144.827C285.639 144.819 285.669 144.813 285.692 144.809L285.8 145.287C285.764 145.301 285.714 145.314 285.649 145.328C285.584 145.343 285.502 145.35 285.403 145.35C285.253 145.35 285.105 145.318 284.961 145.253C284.818 145.189 284.699 145.09 284.604 144.958C284.511 144.825 284.464 144.658 284.464 144.457V141.008Z" fill="#697586"/>
<path d="M306.9 140.683V145.305H306.359L303.84 141.676H303.794V145.305H303.235V140.683H303.776L306.304 144.321H306.349V140.683H306.9ZM309.357 145.377C309.044 145.377 308.769 145.303 308.533 145.154C308.298 145.005 308.114 144.797 307.982 144.529C307.851 144.261 307.786 143.948 307.786 143.59C307.786 143.229 307.851 142.913 307.982 142.644C308.114 142.375 308.298 142.166 308.533 142.017C308.769 141.868 309.044 141.793 309.357 141.793C309.67 141.793 309.943 141.868 310.178 142.017C310.414 142.166 310.598 142.375 310.729 142.644C310.861 142.913 310.927 143.229 310.927 143.59C310.927 143.948 310.861 144.261 310.729 144.529C310.598 144.797 310.414 145.005 310.178 145.154C309.943 145.303 309.67 145.377 309.357 145.377ZM309.357 144.899C309.594 144.899 309.79 144.838 309.943 144.716C310.097 144.594 310.21 144.434 310.284 144.235C310.358 144.037 310.395 143.822 310.395 143.59C310.395 143.358 310.358 143.142 310.284 142.942C310.21 142.742 310.097 142.58 309.943 142.457C309.79 142.333 309.594 142.272 309.357 142.272C309.119 142.272 308.923 142.333 308.77 142.457C308.616 142.58 308.503 142.742 308.429 142.942C308.355 143.142 308.318 143.358 308.318 143.59C308.318 143.822 308.355 144.037 308.429 144.235C308.503 144.434 308.616 144.594 308.77 144.716C308.923 144.838 309.119 144.899 309.357 144.899ZM314.451 141.838L313.169 145.305H312.628L311.346 141.838H311.923L312.88 144.601H312.917L313.874 141.838H314.451Z" fill="#697586"/>
<path d="M25.3055 85.8565C25.3055 84.1013 26.7283 82.6785 28.4835 82.6785H39.0768C40.832 82.6785 42.2548 84.1013 42.2548 85.8565V134.467H25.3055V85.8565Z" fill="#84ADFF"/>
<path d="M25.3056 103.119C25.3056 101.364 26.7284 99.9414 28.4836 99.9414H39.0769C40.8321 99.9414 42.2549 101.364 42.2549 103.119V134.467H25.3056V103.119Z" fill="#2970FF"/>
<path d="M25.3056 116.93C25.3056 115.175 26.7284 113.752 28.4836 113.752H39.0769C40.8321 113.752 42.2549 115.175 42.2549 116.93V134.467H25.3056V116.93Z" fill="#004EEB"/>
<path d="M53.0312 49.8391C53.0312 48.084 54.454 46.6611 56.2092 46.6611H66.8025C68.5577 46.6611 69.9805 48.084 69.9805 49.8391V134.467H53.0312V49.8391Z" fill="#84ADFF"/>
<path d="M53.031 79.1079C53.031 77.3528 54.4538 75.9299 56.209 75.9299H66.8023C68.5575 75.9299 69.9803 77.3528 69.9803 79.1079V134.467H53.031V79.1079Z" fill="#2970FF"/>
<path d="M53.031 102.523C53.031 100.768 54.4538 99.3447 56.209 99.3447H66.8023C68.5575 99.3447 69.9803 100.768 69.9803 102.523V134.467H53.031V102.523Z" fill="#004EEB"/>
<path d="M80.2272 72.6148C80.2272 70.8596 81.65 69.4368 83.4052 69.4368H93.9985C95.7537 69.4368 97.1765 70.8596 97.1765 72.6148V134.467H80.2272V72.6148Z" fill="#84ADFF"/>
<path d="M80.2273 94.2915C80.2273 92.5364 81.6502 91.1135 83.4053 91.1135H93.9987C95.7538 91.1135 97.1767 92.5364 97.1767 94.2915V134.467H80.2273V94.2915Z" fill="#2970FF"/>
<path d="M80.2273 111.633C80.2273 109.878 81.6502 108.455 83.4053 108.455H93.9987C95.7538 108.455 97.1767 109.878 97.1767 111.633V134.467H80.2273V111.633Z" fill="#004EEB"/>
<path d="M107.953 58.3137C107.953 56.5586 109.376 55.1357 111.131 55.1357H121.724C123.479 55.1357 124.902 56.5586 124.902 58.3137V134.467H107.953V58.3137Z" fill="#84ADFF"/>
<path d="M107.953 84.7576C107.953 83.0024 109.376 81.5796 111.131 81.5796H121.724C123.479 81.5796 124.902 83.0024 124.902 84.7576V134.467H107.953V84.7576Z" fill="#2970FF"/>
<path d="M107.953 105.913C107.953 104.157 109.376 102.735 111.131 102.735H121.724C123.479 102.735 124.902 104.157 124.902 105.913V134.467H107.953V105.913Z" fill="#004EEB"/>
<path d="M135.679 66.7886C135.679 65.0334 137.101 63.6106 138.857 63.6106H149.45C151.205 63.6106 152.628 65.0334 152.628 66.7886V134.467H135.679V66.7886Z" fill="#84ADFF"/>
<path d="M135.679 90.4075C135.679 88.6523 137.101 87.2295 138.857 87.2295H149.45C151.205 87.2295 152.628 88.6523 152.628 90.4075V134.467H135.679V90.4075Z" fill="#2970FF"/>
<path d="M135.679 109.303C135.679 107.548 137.101 106.125 138.857 106.125H149.45C151.205 106.125 152.628 107.548 152.628 109.303V134.467H135.679V109.303Z" fill="#004EEB"/>
<path d="M162.875 80.5598C162.875 78.8047 164.297 77.3818 166.053 77.3818H176.646C178.401 77.3818 179.824 78.8047 179.824 80.5598V134.467H162.875V80.5598Z" fill="#84ADFF"/>
<path d="M162.874 99.5884C162.874 97.8332 164.297 96.4104 166.052 96.4104H176.646C178.401 96.4104 179.824 97.8332 179.824 99.5884V134.467H162.874V99.5884Z" fill="#2970FF"/>
<path d="M162.874 114.811C162.874 113.056 164.297 111.633 166.052 111.633H176.646C178.401 111.633 179.824 113.056 179.824 114.811V134.467H162.874V114.811Z" fill="#004EEB"/>
<path d="M190.6 63.0808C190.6 61.3257 192.023 59.9028 193.778 59.9028H204.372C206.127 59.9028 207.55 61.3257 207.55 63.0808V134.467H190.6V63.0808Z" fill="#84ADFF"/>
<path d="M190.6 87.9356C190.6 86.1804 192.023 84.7576 193.778 84.7576H204.371C206.127 84.7576 207.549 86.1804 207.549 87.9356V134.467H190.6V87.9356Z" fill="#2970FF"/>
<path d="M190.6 107.82C190.6 106.064 192.023 104.642 193.778 104.642H204.371C206.127 104.642 207.549 106.064 207.549 107.82V134.467H190.6V107.82Z" fill="#004EEB"/>
<path d="M217.796 93.8015C217.796 92.0464 219.219 90.6235 220.974 90.6235H231.568C233.323 90.6235 234.746 92.0464 234.746 93.8015V134.467H217.796V93.8015Z" fill="#84ADFF"/>
<path d="M217.796 108.416C217.796 106.661 219.219 105.238 220.974 105.238H231.568C233.323 105.238 234.746 106.661 234.746 108.416V134.467H217.796V108.416Z" fill="#2970FF"/>
<path d="M217.796 120.108C217.796 118.353 219.219 116.93 220.974 116.93H231.568C233.323 116.93 234.746 118.353 234.746 120.108V134.467H217.796V120.108Z" fill="#004EEB"/>
<path d="M245.522 49.8391C245.522 48.084 246.945 46.6611 248.7 46.6611H259.293C261.048 46.6611 262.471 48.084 262.471 49.8391V134.467H245.522V49.8391Z" fill="#84ADFF"/>
<path d="M245.522 79.1079C245.522 77.3528 246.945 75.9299 248.7 75.9299H259.293C261.048 75.9299 262.471 77.3528 262.471 79.1079V134.467H245.522V79.1079Z" fill="#2970FF"/>
<path d="M245.522 102.523C245.522 100.768 246.945 99.3447 248.7 99.3447H259.293C261.048 99.3447 262.471 100.768 262.471 102.523V134.467H245.522V102.523Z" fill="#004EEB"/>
<path d="M273.248 63.0808C273.248 61.3257 274.67 59.9028 276.426 59.9028H287.019C288.774 59.9028 290.197 61.3257 290.197 63.0808V134.467H273.248V63.0808Z" fill="#84ADFF"/>
<path d="M273.248 87.9356C273.248 86.1804 274.67 84.7576 276.426 84.7576H287.019C288.774 84.7576 290.197 86.1804 290.197 87.9356V134.467H273.248V87.9356Z" fill="#2970FF"/>
<path d="M273.248 107.82C273.248 106.064 274.67 104.642 276.426 104.642H287.019C288.774 104.642 290.197 106.064 290.197 107.82V134.467H273.248V107.82Z" fill="#004EEB"/>
<path d="M300.444 82.149C300.444 80.3938 301.866 78.9709 303.622 78.9709H314.215C315.97 78.9709 317.393 80.3938 317.393 82.149V134.467H300.444V82.149Z" fill="#84ADFF"/>
<path d="M300.444 100.648C300.444 98.8926 301.866 97.4697 303.622 97.4697H314.215C315.97 97.4697 317.393 98.8926 317.393 100.648V134.467H300.444V100.648Z" fill="#2970FF"/>
<path d="M300.444 115.447C300.444 113.692 301.866 112.269 303.622 112.269H314.215C315.97 112.269 317.393 113.692 317.393 115.447V134.467H300.444V115.447Z" fill="#004EEB"/>
</g>
<rect x="2.26483" y="2.26483" width="325.47" height="158.37" rx="2.91317" stroke="#E3E8EF" stroke-width="0.529667"/>
</g>
<defs>
<filter id="filter0_dd_363_885" x="0.410998" y="0.940666" width="329.178" height="162.078" filterUnits="userSpaceOnUse" color-interpolation-filters="sRGB">
<feFlood flood-opacity="0" result="BackgroundImageFix"/>
<feColorMatrix in="SourceAlpha" type="matrix" values="0 0 0 0 0 0 0 0 0 0 0 0 0 0 0 0 0 0 127 0" result="hardAlpha"/>
<feOffset dy="0.529667"/>
<feGaussianBlur stdDeviation="0.529667"/>
<feColorMatrix type="matrix" values="0 0 0 0 0.0627451 0 0 0 0 0.0941176 0 0 0 0 0.156863 0 0 0 0.06 0"/>
<feBlend mode="normal" in2="BackgroundImageFix" result="effect1_dropShadow_363_885"/>
<feColorMatrix in="SourceAlpha" type="matrix" values="0 0 0 0 0 0 0 0 0 0 0 0 0 0 0 0 0 0 127 0" result="hardAlpha"/>
<feOffset dy="0.529667"/>
<feGaussianBlur stdDeviation="0.794501"/>
<feColorMatrix type="matrix" values="0 0 0 0 0.0627451 0 0 0 0 0.0941176 0 0 0 0 0.156863 0 0 0 0.1 0"/>
<feBlend mode="normal" in2="effect1_dropShadow_363_885" result="effect2_dropShadow_363_885"/>
<feBlend mode="normal" in="SourceGraphic" in2="effect2_dropShadow_363_885" result="shape"/>
</filter>
<clipPath id="clip0_363_885">
<rect x="2" y="2" width="326" height="158.9" rx="3.178" fill="white"/>
</clipPath>
</defs>
</svg>
