<svg width="33" height="32" viewBox="0 0 33 32" fill="none" xmlns="http://www.w3.org/2000/svg">
<path d="M14.4733 14.8666C14.8047 15.0053 15.1485 15.1125 15.5 15.1866V27.88C15.2844 27.8244 15.0746 27.7485 14.8733 27.6533L6.87333 24.0933C6.16697 23.7789 5.56688 23.2665 5.14567 22.6181C4.72446 21.9697 4.50019 21.2131 4.5 20.44V11.56C4.50106 11.2038 4.5504 10.8495 4.64667 10.5066L14.4733 14.8666ZM20.26 11.8933L9.39333 6.78662L6.87333 7.90662C6.41886 8.10639 6.00696 8.39155 5.66 8.74662L15.2733 13.0266C15.6596 13.198 16.0774 13.2866 16.5 13.2866C16.9226 13.2866 17.3404 13.198 17.7267 13.0266L20.26 11.8933ZM27.34 8.74662C26.993 8.39155 26.5811 8.10639 26.1267 7.90662L18.1267 4.34662C17.6154 4.1159 17.0609 3.99658 16.5 3.99658C15.9391 3.99658 15.3846 4.1159 14.8733 4.34662L11.82 5.70662L22.6867 10.8133L27.34 8.74662ZM28.3533 10.5066L23.6733 12.5866V15.8533C23.6733 16.1185 23.568 16.3729 23.3804 16.5604C23.1929 16.7479 22.9385 16.8533 22.6733 16.8533C22.4081 16.8533 22.1538 16.7479 21.9662 16.5604C21.7787 16.3729 21.6733 16.1185 21.6733 15.8533V13.4666L18.5267 14.8666C18.1931 14.9993 17.8499 15.1063 17.5 15.1866V27.88C17.7156 27.8244 17.9254 27.7485 18.1267 27.6533L26.1267 24.0933C26.833 23.7789 27.4331 23.2665 27.8543 22.6181C28.2755 21.9697 28.4998 21.2131 28.5 20.44V11.56C28.4989 11.2038 28.4496 10.8495 28.3533 10.5066Z" fill="white"/>
</svg>
