<svg width="33" height="32" viewBox="0 0 33 32" fill="none" xmlns="http://www.w3.org/2000/svg">
<path d="M1.56668 10.6668C1.56668 12.1804 5.72668 13.8668 11.7 13.8668C11.996 13.8668 12.2867 13.8551 12.5768 13.8455C12.6191 13.7522 12.6742 13.6653 12.7405 13.5873C13.1504 13.1002 13.6013 12.6492 14.0883 12.2391C14.2514 12.1004 14.4505 12.0106 14.6624 11.9802C14.8744 11.9499 15.0906 11.9801 15.2861 12.0673L16.7389 12.6876C17.3868 12.3222 18.0762 12.0357 18.7923 11.8343L19.3789 10.3676C19.4577 10.1708 19.5888 9.99932 19.758 9.87165C19.9272 9.74399 20.1281 9.66504 20.3389 9.64335C20.8356 9.60011 21.3347 9.5937 21.8323 9.62415V6.16602C19.9181 7.71428 15.7171 8.53348 11.7 8.53348C7.68295 8.53348 3.48188 7.71428 1.56668 6.16602V10.6668ZM5.31388 10.4641C5.34598 10.3265 5.43142 10.2072 5.55143 10.1325C5.67143 10.0578 5.81619 10.0338 5.95388 10.0657C6.12295 10.1047 6.29521 10.1425 6.47121 10.1777C6.60083 10.2041 6.71604 10.2776 6.79449 10.3841C6.87293 10.4906 6.90901 10.6224 6.89572 10.754C6.88242 10.8856 6.82071 11.0076 6.72256 11.0962C6.6244 11.1849 6.49681 11.2339 6.36455 11.2337C6.32873 11.2341 6.29298 11.2307 6.25788 11.2236C6.07121 11.1863 5.8881 11.1465 5.70855 11.1041C5.57157 11.0712 5.45319 10.9854 5.37925 10.8655C5.3053 10.7456 5.2818 10.6013 5.31388 10.4641ZM2.68348 9.48068C2.71316 9.41721 2.75506 9.36021 2.80677 9.31294C2.85849 9.26567 2.91901 9.22905 2.98488 9.20518C3.05076 9.1813 3.12069 9.17065 3.19068 9.17381C3.26068 9.17697 3.32936 9.1939 3.39281 9.22362C3.55281 9.29864 3.72046 9.37082 3.89575 9.44015C3.96226 9.46485 4.02317 9.50257 4.07492 9.55111C4.12667 9.59964 4.16822 9.65801 4.19712 9.72281C4.22603 9.7876 4.24172 9.85751 4.24328 9.92844C4.24483 9.99937 4.23222 10.0699 4.20617 10.1359C4.18013 10.2019 4.14118 10.262 4.09161 10.3128C4.04203 10.3635 3.98283 10.4039 3.91747 10.4315C3.8521 10.4591 3.78189 10.4733 3.71094 10.4735C3.63999 10.4736 3.56973 10.4595 3.50428 10.4321C3.30801 10.3543 3.11921 10.2721 2.94055 10.19C2.87708 10.1603 2.82008 10.1184 2.77281 10.0667C2.72553 10.015 2.68892 9.95449 2.66504 9.88861C2.64117 9.82274 2.63051 9.75281 2.63367 9.68281C2.63684 9.61282 2.65376 9.54413 2.68348 9.48068Z" fill="white"/>
<path d="M1.56668 17.0667C1.56668 18.4049 4.98748 19.9467 10.1288 20.2187C10.1363 20.0902 10.1352 19.9611 10.148 19.8331C10.1701 19.6236 10.2489 19.424 10.3758 19.2558C10.5028 19.0876 10.6731 18.9572 10.8685 18.8785L12.34 18.2934C12.5409 17.577 12.8274 16.8874 13.1933 16.2395L12.6269 14.9126C12.3176 14.9211 12.0115 14.9334 11.7 14.9334C7.68295 14.9334 3.48188 14.1142 1.56668 12.5659V17.0667Z" fill="white"/>
<path d="M11.7 7.4669C17.2965 7.4669 21.8333 6.03421 21.8333 4.26689C21.8333 2.49958 17.2965 1.06689 11.7 1.06689C6.10353 1.06689 1.56668 2.49958 1.56668 4.26689C1.56668 6.03421 6.10353 7.4669 11.7 7.4669Z" fill="white"/>
<path d="M21.3 24.0001C23.0673 24.0001 24.5 22.5674 24.5 20.8001C24.5 19.0328 23.0673 17.6001 21.3 17.6001C19.5327 17.6001 18.1 19.0328 18.1 20.8001C18.1 22.5674 19.5327 24.0001 21.3 24.0001Z" fill="white"/>
<path d="M21.3 26.6664C22.4603 26.6664 23.5946 26.3224 24.5593 25.6777C25.5241 25.0331 26.276 24.1168 26.7201 23.0449C27.1641 21.9729 27.2803 20.7933 27.0539 19.6552C26.8276 18.5172 26.2688 17.4719 25.4483 16.6514C24.6279 15.8309 23.5825 15.2722 22.4445 15.0458C21.3065 14.8195 20.1269 14.9356 19.0549 15.3797C17.9829 15.8237 17.0667 16.5757 16.422 17.5404C15.7774 18.5052 15.4333 19.6395 15.4333 20.7998C15.4352 22.3551 16.0538 23.8463 17.1537 24.9461C18.2535 26.0459 19.7446 26.6646 21.3 26.6664ZM21.3 16.5331C22.1439 16.5331 22.9688 16.7833 23.6704 17.2522C24.3721 17.721 24.9189 18.3874 25.2419 19.167C25.5648 19.9466 25.6493 20.8045 25.4847 21.6322C25.32 22.4598 24.9137 23.2201 24.317 23.8168C23.7203 24.4135 22.96 24.8198 22.1324 24.9845C21.3047 25.1491 20.4468 25.0646 19.6672 24.7417C18.8876 24.4187 18.2212 23.8719 17.7524 23.1702C17.2836 22.4686 17.0333 21.6436 17.0333 20.7998C17.0346 19.6686 17.4845 18.5841 18.2844 17.7842C19.0843 16.9843 20.1688 16.5344 21.3 16.5331Z" fill="white"/>
<path d="M11.2099 21.6666C11.2138 21.6816 11.2213 21.6954 11.2317 21.7069C11.2421 21.7184 11.2551 21.7273 11.2696 21.7327L12.9832 22.417C13.0619 22.4484 13.132 22.4981 13.1876 22.562C13.2433 22.6259 13.2829 22.7022 13.3032 22.7844C13.5011 23.5823 13.8179 24.3459 14.2429 25.0495C14.2865 25.1219 14.3123 25.2036 14.3182 25.2879C14.324 25.3722 14.3097 25.4566 14.2765 25.5343L13.5507 27.2356C13.5433 27.2484 13.5394 27.2628 13.5394 27.2775C13.5394 27.2922 13.5433 27.3067 13.5507 27.3194C13.9227 27.7627 14.3322 28.1731 14.7747 28.546C14.7872 28.5561 14.8025 28.5623 14.8185 28.5637C14.8346 28.5651 14.8507 28.5618 14.8648 28.554L16.5661 27.8276C16.6438 27.7945 16.7281 27.7803 16.8123 27.7862C16.8965 27.792 16.9781 27.8177 17.0504 27.8612C17.7542 28.286 18.518 28.6024 19.316 28.7999C19.3983 28.8202 19.4745 28.8598 19.5384 28.9155C19.6023 28.9711 19.652 29.0412 19.6835 29.1199L20.3688 30.8356C20.3739 30.8499 20.3825 30.8627 20.3938 30.8728C20.405 30.883 20.4186 30.8902 20.4333 30.8938C21.0079 30.9466 21.5862 30.9466 22.1608 30.8938C22.1768 30.891 22.1919 30.884 22.2043 30.8735C22.2168 30.863 22.2262 30.8494 22.2317 30.834L22.9165 29.1199C22.948 29.0412 22.9977 28.9711 23.0616 28.9155C23.1255 28.8598 23.2017 28.8202 23.284 28.7999C24.0819 28.6021 24.8455 28.2853 25.5491 27.8602C25.6214 27.8167 25.703 27.7909 25.7872 27.7851C25.8713 27.7792 25.9557 27.7935 26.0333 27.8266L27.7336 28.5524C27.7464 28.5598 27.7609 28.5637 27.7757 28.5637C27.7905 28.5637 27.8051 28.5598 27.8179 28.5524C28.2612 28.1796 28.6717 27.7692 29.0445 27.3258C29.054 27.3131 29.0596 27.298 29.0607 27.2822C29.0618 27.2664 29.0584 27.2506 29.0509 27.2367L28.3245 25.5338C28.2913 25.4561 28.2771 25.3716 28.2829 25.2873C28.2888 25.203 28.3145 25.1213 28.3581 25.049C28.7831 24.3453 29.0999 23.5818 29.2979 22.7839C29.3182 22.7016 29.3578 22.6254 29.4134 22.5615C29.4691 22.4976 29.5392 22.4479 29.6179 22.4164L31.3341 21.7311C31.3481 21.7255 31.3605 21.7167 31.3705 21.7054C31.3804 21.6941 31.3875 21.6806 31.3912 21.666C31.4485 21.0917 31.4485 20.513 31.3912 19.9386C31.3881 19.9224 31.381 19.9074 31.3704 19.8948C31.3599 19.8822 31.3463 19.8725 31.3309 19.8666L29.6173 19.1823C29.5386 19.1509 29.4686 19.1012 29.4129 19.0373C29.3573 18.9734 29.3176 18.8971 29.2973 18.8148C29.0994 18.017 28.7826 17.2534 28.3576 16.5498C28.314 16.4774 28.2882 16.3957 28.2824 16.3114C28.2765 16.2271 28.2908 16.1427 28.324 16.065L29.0499 14.3636C29.0572 14.3509 29.0611 14.3365 29.0611 14.3218C29.0611 14.3071 29.0572 14.2926 29.0499 14.2799C28.6772 13.8364 28.2667 13.4259 27.8232 13.0532C27.8106 13.0432 27.7954 13.0371 27.7793 13.0357C27.7633 13.0343 27.7472 13.0376 27.7331 13.0452L26.0317 13.7716C25.9542 13.8051 25.8698 13.8195 25.7855 13.8137C25.7013 13.8078 25.6196 13.7819 25.5475 13.738C24.8443 13.3137 24.0812 12.9974 23.284 12.7999C23.2017 12.7796 23.1255 12.74 23.0616 12.6843C22.9977 12.6287 22.948 12.5586 22.9165 12.4799L22.2312 10.7642C22.2261 10.7499 22.2175 10.7371 22.2063 10.727C22.195 10.7168 22.1814 10.7096 22.1667 10.706C21.5921 10.6527 21.0138 10.6527 20.4392 10.706C20.4232 10.7089 20.4081 10.7159 20.3957 10.7264C20.3832 10.7368 20.3738 10.7504 20.3683 10.7658L19.6835 12.4799C19.652 12.5586 19.6023 12.6287 19.5384 12.6843C19.4745 12.74 19.3983 12.7796 19.316 12.7999C18.5181 12.9978 17.7545 13.3146 17.0509 13.7396C16.9788 13.7835 16.8971 13.8094 16.8129 13.8153C16.7286 13.8211 16.6442 13.8067 16.5667 13.7732L14.8664 13.0474C14.8536 13.0401 14.839 13.0363 14.8243 13.0363C14.8095 13.0363 14.795 13.0401 14.7821 13.0474C14.339 13.4205 13.9286 13.8309 13.5555 14.274C13.546 14.2867 13.5404 14.3019 13.5393 14.3176C13.5382 14.3334 13.5416 14.3492 13.5491 14.3631L14.2755 16.066C14.3087 16.1437 14.3229 16.2282 14.3171 16.3125C14.3113 16.3968 14.2855 16.4785 14.2419 16.5508C13.8169 17.2545 13.5001 18.0181 13.3021 18.8159C13.2818 18.8982 13.2422 18.9744 13.1866 19.0383C13.1309 19.1022 13.0608 19.152 12.9821 19.1834L11.2659 19.8687C11.2519 19.8743 11.2395 19.8831 11.2295 19.8944C11.2196 19.9057 11.2125 19.9192 11.2088 19.9338C11.1515 20.5082 11.1515 21.0869 11.2088 21.6612L11.2099 21.6666ZM21.3 13.8666C22.6713 13.8666 24.0118 14.2732 25.152 15.0351C26.2921 15.7969 27.1808 16.8797 27.7056 18.1466C28.2303 19.4135 28.3676 20.8076 28.1001 22.1525C27.8326 23.4975 27.1723 24.7329 26.2026 25.7025C25.233 26.6722 23.9976 27.3325 22.6526 27.6C21.3077 27.8675 19.9136 27.7302 18.6467 27.2055C17.3798 26.6807 16.297 25.792 15.5351 24.6519C14.7733 23.5117 14.3667 22.1712 14.3667 20.7999C14.3688 18.9617 15.0999 17.1994 16.3997 15.8996C17.6995 14.5998 19.4618 13.8687 21.3 13.8666Z" fill="white"/>
<path d="M11.7 26.6667C12.02 26.6667 12.3304 26.6566 12.6413 26.648L13.1901 25.3622C12.8252 24.7137 12.5397 24.0235 12.34 23.3067L10.8733 22.72C10.6767 22.6413 10.5053 22.5102 10.3778 22.341C10.2503 22.1717 10.1716 21.9708 10.1501 21.76C10.1341 21.6 10.1341 21.44 10.1261 21.28C5.75815 21.072 2.95975 20.0976 1.56668 18.9302V23.4667C1.56668 24.9803 5.72668 26.6667 11.7 26.6667Z" fill="white"/>
</svg>
