<svg width="33" height="32" viewBox="0 0 33 32" fill="none" xmlns="http://www.w3.org/2000/svg">
<g clip-path="url(#clip0_363_978)">
<path d="M0.5 16C0.5 7.1776 7.6776 0 16.5 0C20.0631 0 23.4356 1.14636 26.253 3.3152L22.5349 8.14507C20.7929 6.80411 18.706 6.09524 16.5 6.09524C11.0385 6.09524 6.59524 10.5385 6.59524 16C6.59524 21.4615 11.0385 25.9048 16.5 25.9048C20.8988 25.9048 24.6368 23.0228 25.9251 19.0476H16.5V12.9524H32.5V16C32.5 24.8224 25.3224 32 16.5 32C7.6776 32 0.5 24.8224 0.5 16Z" fill="white"/>
</g>
<defs>
<clipPath id="clip0_363_978">
<rect width="32" height="32" fill="white" transform="translate(0.5)"/>
</clipPath>
</defs>
</svg>
