<svg width="33" height="32" viewBox="0 0 33 32" fill="none" xmlns="http://www.w3.org/2000/svg">
<path d="M4.3125 0.9375V25.4375C4.3125 25.9557 4.73181 26.375 5.25 26.375H22.125C22.6432 26.375 23.0625 25.9557 23.0625 25.4375V0.9375C23.0625 0.419312 22.6432 0 22.125 0H5.25C4.73181 0 4.3125 0.419312 4.3125 0.9375ZM19.3125 21.625H15.5625C15.0443 21.625 14.625 21.2057 14.625 20.6875C14.625 20.1693 15.0443 19.75 15.5625 19.75H19.3125C19.8307 19.75 20.25 20.1693 20.25 20.6875C20.25 21.2057 19.8307 21.625 19.3125 21.625ZM8.0625 4.75H13.6875C14.2057 4.75 14.625 5.16931 14.625 5.6875C14.625 6.20569 14.2057 6.625 13.6875 6.625H8.0625C7.54431 6.625 7.125 6.20569 7.125 5.6875C7.125 5.16931 7.54431 4.75 8.0625 4.75ZM8.0625 8.5H19.3125C19.8307 8.5 20.25 8.91931 20.25 9.4375C20.25 9.95569 19.8307 10.375 19.3125 10.375H8.0625C7.54431 10.375 7.125 9.95569 7.125 9.4375C7.125 8.91931 7.54431 8.5 8.0625 8.5ZM8.0625 12.25H19.3125C19.8307 12.25 20.25 12.6693 20.25 13.1875C20.25 13.7057 19.8307 14.125 19.3125 14.125H8.0625C7.54431 14.125 7.125 13.7057 7.125 13.1875C7.125 12.6693 7.54431 12.25 8.0625 12.25ZM8.0625 16H19.3125C19.8307 16 20.25 16.4193 20.25 16.9375C20.25 17.4557 19.8307 17.875 19.3125 17.875H8.0625C7.54431 17.875 7.125 17.4557 7.125 16.9375C7.125 16.4193 7.54431 16 8.0625 16Z" fill="white"/>
<path d="M10.875 32H27.75C28.2682 32 28.6875 31.5807 28.6875 31.0625V6.625C28.6875 6.10681 28.2682 5.6875 27.75 5.6875H24.9375V25.4375C24.9375 26.9884 23.6759 28.25 22.125 28.25H9.9375V31.0625C9.9375 31.5807 10.3568 32 10.875 32Z" fill="white"/>
</svg>
