<svg width="117" height="32" viewBox="0 0 117 32" fill="none" xmlns="http://www.w3.org/2000/svg">
<path d="M10.622 14.8788C11.2798 12.8333 13.8029 10.7307 16.2576 10.1825L31.5607 6.76491C34.0154 6.21673 35.472 7.43057 34.8141 9.47608L30.713 22.2287C30.0552 24.2742 27.5321 26.3768 25.0775 26.925L9.77431 30.3426C7.3197 30.8908 5.8631 29.6769 6.52091 27.6314L10.622 14.8788Z" fill="#6629DE" fill-opacity="0.5"/>
<path d="M4.48703 9.76623C5.14484 7.72072 7.66796 5.61812 10.1226 5.06994L25.4258 1.65236C27.8804 1.10418 29.337 2.31801 28.6792 4.36353L24.5781 17.1162C23.9203 19.1617 21.3971 21.2643 18.9425 21.8125L3.63934 25.23C1.18472 25.7782 -0.271878 24.5644 0.385934 22.5189L4.48703 9.76623Z" fill="#6629DE"/>
<path d="M50.7934 24.2L46.6237 9.04685H49.1662L52.2172 20.9659L55.4105 9.04685H57.9123L61.0649 20.9456L64.1566 9.04685H66.6787L62.5294 24.2H59.8242L56.6512 12.586L53.4782 24.2H50.7934ZM72.6923 24.444C71.5939 24.444 70.6176 24.1932 69.7633 23.6915C68.9226 23.1762 68.265 22.4846 67.7904 21.6168C67.3158 20.7354 67.0785 19.7523 67.0785 18.6675C67.0785 17.5692 67.3158 16.5929 67.7904 15.7386C68.265 14.8708 68.9091 14.1928 69.7227 13.7047C70.5498 13.2029 71.4787 12.9521 72.5092 12.9521C73.6076 12.9521 74.55 13.2029 75.3364 13.7047C76.1229 14.1928 76.7195 14.8437 77.1263 15.6573C77.5467 16.4573 77.7569 17.3319 77.7569 18.2811C77.7569 18.4574 77.7501 18.6404 77.7365 18.8303C77.723 19.0201 77.6958 19.1964 77.6552 19.3591H69.4583C69.5261 20.2947 69.865 21.0405 70.4752 21.5965C71.099 22.1389 71.8448 22.4101 72.7126 22.4101C73.377 22.4101 73.9398 22.2609 74.4008 21.9626C74.8618 21.6643 75.2347 21.2778 75.5195 20.8032L77.3907 21.7185C77.0518 22.505 76.4619 23.1558 75.6212 23.6711C74.7805 24.1864 73.8042 24.444 72.6923 24.444ZM72.5092 14.8844C71.7499 14.8844 71.0922 15.1149 70.5363 15.5759C69.9939 16.0369 69.6549 16.6878 69.5193 17.5285H75.3161C75.2754 16.7556 74.9839 16.1251 74.4415 15.6369C73.9127 15.1352 73.2686 14.8844 72.5092 14.8844ZM85.8781 24.444C85.1052 24.444 84.3933 24.3016 83.7425 24.0169C83.1052 23.7321 82.5899 23.3253 82.1966 22.7965V24.2H80V8.80278H82.2983V14.4776C82.7051 13.9894 83.2136 13.6165 83.8238 13.3589C84.434 13.0877 85.1188 12.9521 85.8781 12.9521C86.9222 12.9521 87.8579 13.2029 88.685 13.7047C89.5257 14.2064 90.1834 14.8911 90.658 15.759C91.1461 16.6268 91.3902 17.6031 91.3902 18.6879C91.3902 19.7727 91.1461 20.749 90.658 21.6168C90.1834 22.4846 89.5257 23.1762 88.685 23.6915C87.8579 24.1932 86.9222 24.444 85.8781 24.444ZM85.6544 22.3084C86.2917 22.3084 86.8612 22.1524 87.3629 21.8405C87.8782 21.5287 88.2782 21.1015 88.563 20.5591C88.8613 20.0167 89.0105 19.393 89.0105 18.6879C89.0105 17.9963 88.8613 17.3794 88.563 16.837C88.2782 16.2946 87.8782 15.8674 87.3629 15.5556C86.8612 15.2437 86.2917 15.0878 85.6544 15.0878C85.0035 15.0878 84.4272 15.2437 83.9255 15.5556C83.4238 15.8674 83.0238 16.2946 82.7255 16.837C82.4407 17.3794 82.2983 17.9963 82.2983 18.6879C82.2983 19.393 82.4407 20.0167 82.7255 20.5591C83.0238 21.1015 83.4238 21.5287 83.9255 21.8405C84.4272 22.1524 85.0035 22.3084 85.6544 22.3084ZM93.626 11.691V9.04685H95.9244V11.691H93.626ZM93.626 24.2V13.1962H95.9244V24.2H93.626ZM99.8523 24.2V15.2708H97.8183V13.1962H99.8523V12.6266C99.8523 11.4063 100.225 10.4639 100.971 9.79942C101.717 9.13499 102.68 8.80278 103.859 8.80278C104.008 8.80278 104.178 8.81634 104.368 8.84346C104.558 8.85702 104.714 8.87736 104.836 8.90448V10.8978C104.727 10.8706 104.605 10.8571 104.469 10.8571C104.334 10.8435 104.225 10.8368 104.144 10.8368C103.534 10.8368 103.046 10.9791 102.68 11.2639C102.313 11.5351 102.13 11.9893 102.13 12.6266V13.1962H104.652V15.2708H102.13V24.2H99.8523ZM107.771 28.695C107.5 28.695 107.229 28.6679 106.958 28.6137C106.7 28.573 106.463 28.5052 106.246 28.4103V26.4373C106.409 26.478 106.605 26.5119 106.836 26.539C107.066 26.5797 107.29 26.6 107.507 26.6C108.144 26.6 108.612 26.4577 108.91 26.1729C109.222 25.9017 109.5 25.4746 109.744 24.8915L110.05 24.2L105.676 13.1962H108.138L111.229 21.2914L114.321 13.1962H116.802L111.941 25.4C111.548 26.3899 111.012 27.1831 110.334 27.7797C109.67 28.3899 108.816 28.695 107.771 28.695Z" fill="black"/>
</svg>
